<svg xmlns="http://www.w3.org/2000/svg">
  <symbol id="test-icon" viewBox="0 0 24 24" fill="none" xmlns="http://www.w3.org/2000/svg">
    <path
      d="M19,1H5A5.006,5.006,0,0,0,0,6V18a5.006,5.006,0,0,0,5,5H19a5.006,5.006,0,0,0,5-5V6A5.006,5.006,0,0,0,19,1ZM5,3H19a3,3,0,0,1,2.78,1.887l-7.658,7.659a3.007,3.007,0,0,1-4.244,0L2.22,4.887A3,3,0,0,1,5,3ZM19,21H5a3,3,0,0,1-3-3V7.5L8.464,13.96a5.007,5.007,0,0,0,7.072,0L22,7.5V18A3,3,0,0,1,19,21Z" fill="none"/>
  </symbol>
  <symbol id="test-img" viewBox="0 0 429 935"  xmlns="http://www.w3.org/2000/svg">
    <g transform="translate(0.000000,935.000000) scale(0.100000,-0.100000)" stroke="none">
<path d="M1795 9097 l-40 -23 -3 -122 c-1 -67 -6 -122 -11 -122 -10 0 -101 48
-118 62 -7 6 -13 25 -13 44 0 23 -5 34 -19 39 -23 7 -79 -14 -104 -39 -16 -16
-17 -219 -17 -3351 l0 -3334 30 -21 30 -21 0 -578 0 -578 69 -105 69 -105 103
-53 103 -52 140 -2 141 -1 5 -73 5 -72 103 -50 c57 -28 111 -50 120 -50 9 0
52 18 95 41 l77 40 0 60 c0 32 4 59 10 59 5 0 34 -12 65 -27 l55 -27 85 42 85
42 0 583 0 582 23 10 22 10 0 3350 0 3350 -185 93 c-102 52 -330 168 -508 258
-185 94 -334 164 -350 164 -15 0 -45 -11 -67 -23z m42 -13 c-3 -3 -12 -4 -19
-1 -8 3 -5 6 6 6 11 1 17 -2 13 -5z m23 -163 c0 -76 -3 -140 -6 -144 -3 -3
-15 -1 -25 6 -17 11 -19 25 -19 139 0 110 2 128 17 137 10 5 21 7 25 5 5 -3 8
-67 8 -143z m935 -346 c-24 -20 -25 -24 -25 -149 l0 -128 -37 6 c-42 6 -68 -7
-74 -38 -2 -11 -9 -21 -16 -23 -9 -3 -13 24 -15 104 -3 102 -4 108 -25 111
-12 2 -35 -4 -51 -12 -31 -16 8 -34 -572 261 l-95 48 -3 158 -3 158 471 -238
471 -238 -26 -20z m-818 479 c-3 -3 -12 -4 -19 -1 -8 3 -5 6 6 6 11 1 17 -2
13 -5z m-187 -125 c0 -66 -4 -109 -10 -109 -6 0 -10 45 -10 116 0 74 4 113 10
109 6 -4 10 -53 10 -116z m307 65 c-3 -3 -12 -4 -19 -1 -8 3 -5 6 6 6 11 1 17
-2 13 -5z m-564 -73 c3 -14 1 -18 -9 -14 -8 3 -14 11 -14 19 0 21 17 17 23 -5z
m53 -8 c-10 -10 -19 5 -10 18 6 11 8 11 12 0 2 -7 1 -15 -2 -18z m784 -460
l95 -48 3 -3322 c1 -1828 -1 -3323 -4 -3323 -3 0 -79 38 -167 84 -89 46 -303
155 -474 242 l-313 158 0 3323 0 3324 383 -195 c210 -107 425 -216 477 -243z
m-723 401 c-3 -3 -12 -4 -19 -1 -8 3 -5 6 6 6 11 1 17 -2 13 -5z m120 -60 c-3
-3 -12 -4 -19 -1 -8 3 -5 6 6 6 11 1 17 -2 13 -5z m108 -54 c13 -6 15 -9 5 -9
-8 0 -22 4 -30 9 -18 12 -2 12 25 0z m102 -56 c-3 -3 -12 -4 -19 -1 -8 3 -5 6
6 6 11 1 17 -2 13 -5z m60 -30 c-3 -3 -12 -4 -19 -1 -8 3 -5 6 6 6 11 1 17 -2
13 -5z m54 -32 c-7 -2 -18 1 -23 6 -8 8 -4 9 13 5 13 -4 18 -8 10 -11z m789
-32 c0 -13 -38 -32 -53 -26 -7 2 -5 5 4 5 9 1 19 8 23 16 6 17 26 21 26 5z
m-675 -20 c13 -6 15 -9 5 -9 -8 0 -22 4 -30 9 -18 12 -2 12 25 0z m663 -6665
c-2 -2 -13 -6 -25 -9 -22 -7 -23 -5 -23 48 0 31 -1 56 -3 56 -2 0 -22 -9 -45
-20 l-42 -20 0 -65 c0 -51 -3 -65 -15 -65 -11 0 -15 12 -15 50 0 28 -4 50 -10
50 -5 0 -25 -8 -45 -17 -34 -16 -35 -18 -35 -76 0 -45 -4 -63 -17 -73 -10 -7
-21 -14 -25 -14 -5 0 -8 1495 -8 3321 0 3152 1 3322 18 3335 9 7 20 14 25 14
4 0 7 -57 7 -126 0 -69 3 -124 8 -122 68 33 82 44 82 64 0 28 26 39 33 14 5
-19 6 -19 46 3 l41 22 0 120 c0 122 4 138 30 147 13 4 15 -369 18 -3315 1
-1826 1 -3321 0 -3322z m-71 6463 c-2 -35 -3 -9 -3 57 0 66 1 94 3 63 2 -32 2
-86 0 -120z m-397 102 c0 -5 -2 -10 -4 -10 -3 0 -8 5 -11 10 -3 6 -1 10 4 10
6 0 11 -4 11 -10z m60 -30 c0 -5 -4 -10 -10 -10 -5 0 -10 5 -10 10 0 6 5 10
10 10 6 0 10 -4 10 -10z m125 -9 c-3 -6 -14 -10 -23 -10 -15 1 -15 2 1 6 9 2
17 9 17 15 0 6 3 9 6 5 3 -3 3 -10 -1 -16z m-45 -3367 l0 -3325 -22 3 -23 3
-3 3323 -2 3322 25 0 25 0 0 -3326z m-817 -2949 l157 -80 0 -632 c0 -540 -2
-633 -14 -633 -23 0 -158 71 -188 98 -16 14 -28 31 -28 38 0 7 -3 14 -7 16 -5
2 -29 36 -55 75 l-48 73 0 558 c0 307 3 562 7 566 8 8 -10 16 176 -79z m322
-163 l110 -57 0 -570 0 -570 -122 -3 -123 -3 0 631 c0 497 3 630 13 630 6 -1
62 -26 122 -58z m752 -44 c-2 -13 -4 -3 -4 22 0 25 2 35 4 23 2 -13 2 -33 0
-45z m-27 2 c0 -29 4 -40 15 -40 13 0 15 -71 15 -580 l0 -580 -55 -27 -55 -27
-65 32 -65 32 0 505 0 506 35 15 c35 14 35 15 35 78 0 46 4 65 14 69 11 5 16
-4 18 -35 4 -52 26 -68 62 -45 23 16 26 24 26 77 0 33 4 60 10 60 6 0 10 -18
10 -40z m-414 -117 l154 -77 -2 -575 -3 -576 -50 -27 c-27 -15 -59 -27 -70
-27 -11 0 -58 19 -105 43 l-85 42 -3 637 c-1 350 1 637 4 637 3 0 75 -35 160
-77z m484 -493 c0 -373 -3 -570 -10 -570 -11 0 -15 1122 -3 1133 3 4 8 7 10 7
2 0 3 -256 3 -570z m-300 -151 c0 -367 -3 -568 -10 -564 -11 7 -14 1117 -3
1128 3 4 8 7 10 7 2 0 3 -257 3 -571z"/>
<path d="M1722 2564 c-25 -17 -27 -35 -9 -67 25 -45 40 -57 72 -57 27 0 34 5
39 25 8 33 -14 75 -51 97 -27 15 -32 16 -51 2z m46 -80 c17 -18 19 -24 8 -24
-17 0 -56 51 -55 72 0 8 4 6 12 -6 7 -10 22 -29 35 -42z m26 32 c20 -31 3 -44
-18 -14 -9 12 -16 26 -16 30 0 16 18 7 34 -16z"/>
<path d="M2181 2331 c-20 -13 -17 -59 6 -89 26 -36 88 -43 98 -13 9 28 -21 86
-51 100 -30 13 -35 13 -53 2z m79 -65 c-1 -21 -1 -21 -20 3 -11 12 -17 27 -14
33 9 14 34 -12 34 -36z m-50 10 c0 -7 7 -19 15 -26 9 -7 13 -15 10 -18 -7 -8
-45 29 -45 45 0 7 5 13 10 13 6 0 10 -6 10 -14z"/>
<path d="M2790 7993 c-8 -3 -25 -15 -37 -26 -22 -20 -23 -26 -23 -203 0 -101
4 -185 8 -188 5 -3 25 2 45 12 l37 16 0 198 c0 109 -3 198 -7 197 -5 0 -15 -3
-23 -6z m7 -276 c-1 -45 -3 -5 -3 88 0 94 2 130 3 82 2 -48 2 -125 0 -170z
m-27 78 c0 -97 -4 -155 -10 -155 -6 0 -10 58 -10 155 0 97 4 155 10 155 6 0
10 -58 10 -155z"/>
<path d="M2648 7914 l-38 -24 0 -190 c0 -116 4 -190 10 -190 5 0 25 8 45 17
l35 17 0 198 c0 109 -3 198 -7 197 -5 0 -25 -11 -45 -25z m8 -331 c-3 -7 -10
-13 -16 -13 -16 0 -13 303 3 319 10 10 13 -18 15 -141 1 -83 0 -158 -2 -165z"/>
<path d="M2763 7308 l-33 -20 0 -183 c0 -121 4 -186 11 -191 6 -3 26 2 45 12
l34 19 0 192 c0 211 1 207 -57 171z m34 -261 c-1 -45 -3 -5 -3 88 0 94 2 130
3 82 2 -48 2 -125 0 -170z m-27 78 c0 -97 -4 -155 -10 -155 -6 0 -10 58 -10
155 0 97 4 155 10 155 6 0 10 -58 10 -155z"/>
<path d="M2648 7249 l-38 -19 0 -190 c0 -209 -1 -206 60 -175 l30 16 0 189 c0
104 -3 191 -7 193 -5 3 -25 -4 -45 -14z m12 -179 c0 -136 -2 -160 -15 -160
-13 0 -15 24 -15 153 0 85 3 157 7 160 19 20 23 -7 23 -153z"/>
<path d="M2775 6647 l-40 -23 -3 -192 c-1 -122 1 -192 7 -192 6 0 26 8 46 17
l35 17 0 198 c0 109 -1 198 -2 198 -2 0 -21 -11 -43 -23z m22 -260 c-1 -45 -3
-5 -3 88 0 94 2 130 3 82 2 -48 2 -125 0 -170z m-27 73 c0 -100 -4 -160 -10
-160 -6 0 -10 60 -10 160 0 100 4 160 10 160 6 0 10 -60 10 -160z"/>
<path d="M2648 6583 l-38 -15 0 -194 c0 -118 4 -194 10 -194 5 0 25 8 45 17
l35 17 0 193 c0 106 -3 193 -7 192 -5 0 -25 -7 -45 -16z m10 -180 c-2 -114 -6
-157 -15 -161 -10 -3 -13 33 -13 157 0 138 2 161 15 161 13 0 15 -22 13 -157z"/>
<path d="M2767 5975 l-37 -26 0 -184 c0 -101 3 -186 8 -188 4 -3 23 2 42 12
l35 16 3 198 c1 108 -1 197 -5 197 -5 0 -25 -11 -46 -25z m30 -258 c-1 -45 -3
-5 -3 88 0 94 2 130 3 82 2 -48 2 -125 0 -170z m-27 78 c0 -97 -4 -155 -10
-155 -6 0 -10 56 -10 148 0 131 3 162 17 162 2 0 3 -70 3 -155z"/>
<path d="M2638 5912 l-28 -17 0 -187 c0 -103 3 -189 8 -191 4 -3 23 2 42 12
l35 16 3 193 c2 178 1 192 -15 191 -10 0 -30 -8 -45 -17z m18 -329 c-3 -7 -10
-13 -16 -13 -16 0 -14 317 3 323 9 3 13 -32 15 -147 1 -82 0 -156 -2 -163z"/>
<path d="M2768 5309 l-38 -19 0 -189 c0 -103 3 -190 6 -194 4 -3 24 3 45 14
l39 19 0 195 c0 107 -3 195 -7 195 -5 -1 -25 -10 -45 -21z m29 -262 c-1 -45
-3 -5 -3 88 0 94 2 130 3 82 2 -48 2 -125 0 -170z m-27 78 c0 -97 -4 -155 -10
-155 -6 0 -10 58 -10 155 0 97 4 155 10 155 6 0 10 -58 10 -155z"/>
<path d="M2648 5249 l-38 -19 0 -186 c0 -204 2 -209 59 -179 l31 16 0 194 c0
107 -3 195 -7 195 -5 -1 -25 -10 -45 -21z m10 -181 c-2 -118 -6 -162 -15 -166
-10 -3 -13 33 -13 156 0 87 3 162 7 165 19 20 23 -8 21 -155z"/>
<path d="M2775 4647 l-40 -23 -3 -184 c-1 -112 1 -187 7 -193 7 -7 22 -4 46 9
l35 19 0 197 c0 109 -1 198 -2 198 -2 0 -21 -11 -43 -23z m22 -264 c-1 -49 -3
-9 -3 87 0 96 2 136 3 88 2 -49 2 -127 0 -175z m-27 72 c0 -97 -4 -155 -10
-155 -6 0 -10 58 -10 155 0 97 4 155 10 155 6 0 10 -58 10 -155z"/>
<path d="M2648 4584 l-38 -24 0 -190 c0 -131 3 -190 11 -190 6 0 26 7 45 16
l34 16 0 199 c0 110 -3 199 -7 198 -5 0 -25 -11 -45 -25z m12 -184 c0 -136 -2
-160 -15 -160 -13 0 -15 24 -15 153 0 85 3 157 7 160 19 20 23 -7 23 -153z"/>
<path d="M2758 3972 l-28 -17 0 -187 c0 -207 -1 -204 60 -173 l30 16 0 189 c0
174 -1 190 -17 190 -10 0 -30 -8 -45 -18z m39 -255 c-1 -45 -3 -5 -3 88 0 94
2 130 3 82 2 -48 2 -125 0 -170z m-27 78 c0 -97 -4 -155 -10 -155 -6 0 -10 58
-10 155 0 97 4 155 10 155 6 0 10 -58 10 -155z"/>
<path d="M2643 3913 l-33 -17 0 -188 0 -188 23 0 c12 0 33 7 45 16 21 15 22
20 22 205 0 206 2 201 -57 172z m13 -330 c-3 -7 -10 -13 -16 -13 -16 0 -14
317 3 323 9 3 13 -32 15 -147 1 -82 0 -156 -2 -163z"/>
<path d="M2775 3314 c-16 -8 -33 -21 -37 -27 -9 -14 -11 -371 -2 -380 4 -3 24
3 45 14 l39 19 0 195 c0 107 -3 195 -7 195 -5 0 -21 -7 -38 -16z m22 -267 c-1
-45 -3 -5 -3 88 0 94 2 130 3 82 2 -48 2 -125 0 -170z m-27 28 c0 -63 -4 -105
-10 -105 -6 0 -10 42 -10 105 0 63 4 105 10 105 6 0 10 -42 10 -105z"/>
<path d="M2664 3255 c-10 -8 -27 -15 -36 -15 -17 0 -18 -16 -18 -200 0 -110 2
-200 5 -200 3 0 24 9 45 20 l40 20 0 195 c0 107 -4 195 -8 195 -5 0 -17 -7
-28 -15z m-6 -187 c-2 -118 -6 -162 -15 -166 -10 -3 -13 33 -13 156 0 87 3
162 7 165 19 20 23 -8 21 -155z"/>
<path d="M2753 2637 c-22 -22 -23 -29 -23 -204 0 -102 4 -184 9 -188 5 -3 26
2 45 12 l36 17 0 193 0 193 -22 -1 c-13 0 -33 -10 -45 -22z m44 -254 c-1 -49
-3 -9 -3 87 0 96 2 136 3 88 2 -49 2 -127 0 -175z m-27 72 c0 -97 -4 -155 -10
-155 -6 0 -10 58 -10 155 0 97 4 155 10 155 6 0 10 -58 10 -155z"/>
<path d="M2673 2599 c-6 -6 -22 -17 -35 -23 -23 -11 -23 -14 -26 -204 -3 -211
-3 -209 57 -174 l31 17 0 198 c0 108 -4 197 -8 197 -4 0 -13 -5 -19 -11z m-13
-199 c0 -136 -2 -160 -15 -160 -13 0 -15 24 -15 153 0 85 3 157 7 160 19 20
23 -7 23 -153z"/>
<path d="M2270 765 c-27 -33 29 -102 76 -93 27 5 29 49 4 81 -24 30 -61 35
-80 12z"/>
</g>
  </symbol>
</svg>