<?xml version="1.0" standalone="no"?>
<!DOCTYPE svg PUBLIC "-//W3C//DTD SVG 20010904//EN"
 "http://www.w3.org/TR/2001/REC-SVG-20010904/DTD/svg10.dtd">
<svg version="1.0" xmlns="http://www.w3.org/2000/svg"
 width="420.000000pt" height="253.000000pt" viewBox="0 0 420.000000 253.000000"
 preserveAspectRatio="xMidYMid meet">

<g transform="translate(0.000000,253.000000) scale(0.100000,-0.100000)"
fill="#000000" stroke="none">
<path d="M1280 2390 c-28 -28 -29 -151 -1 -196 22 -37 124 -98 150 -91 16 4
30 -20 85 -143 36 -82 66 -153 66 -159 0 -17 -12 -14 -93 29 -66 35 -79 39
-101 29 -32 -15 -37 -31 -26 -89 4 -25 8 -35 9 -22 2 31 18 27 36 -9 12 -22
22 -29 38 -27 31 4 32 31 4 64 -21 24 -27 26 -40 16 -12 -10 -18 -10 -31 3 -9
9 -16 20 -16 25 0 24 30 18 107 -21 89 -44 115 -45 121 -3 1 10 -29 88 -68
173 -38 85 -70 165 -70 178 0 25 -18 37 -44 31 -14 -3 -14 -6 -1 -32 9 -16 14
-31 12 -32 -8 -8 -118 59 -127 76 -6 10 -10 57 -10 104 l0 86 38 1 c29 0 33 2
17 9 -16 6 -12 9 20 12 l40 5 -47 1 c-36 2 -53 -3 -68 -18z m154 -236 c9 -22
-3 -32 -14 -14 -12 19 -12 30 -1 30 5 0 12 -7 15 -16z m61 -340 c36 -20 64
-38 62 -41 -7 -6 -137 60 -137 69 0 12 5 10 75 -28z m-55 -54 c5 7 8 2 8 -14
0 -14 -4 -26 -9 -26 -13 0 -39 42 -32 53 3 5 10 2 16 -8 7 -13 11 -14 17 -5z"/>
<path d="M1425 2390 c29 -7 29 -8 -10 -10 l-40 -3 42 -6 c54 -9 83 -35 83 -75
0 -24 7 -35 29 -48 33 -18 41 -15 41 19 0 26 3 27 31 13 13 -7 19 -21 19 -44
0 -25 7 -38 25 -50 33 -22 35 -21 35 15 0 20 4 29 13 27 7 -2 135 -70 285
-151 271 -148 272 -149 272 -181 0 -35 22 -62 55 -68 15 -2 20 3 20 19 0 37
11 36 82 -5 37 -21 109 -61 158 -87 50 -27 106 -57 125 -68 73 -41 367 -202
412 -227 42 -22 48 -29 48 -57 0 -22 8 -38 26 -52 31 -24 44 -20 44 15 0 13 2
24 5 24 7 0 50 -23 335 -180 113 -62 213 -119 223 -128 9 -8 17 -10 17 -4 0 9
-132 92 -147 92 -2 0 -35 17 -71 38 -37 21 -127 71 -200 111 -116 64 -157 91
-138 91 8 0 495 -268 533 -294 24 -15 33 -29 33 -48 0 -16 -4 -28 -10 -28 -18
0 -11 -29 9 -40 32 -17 41 -12 41 21 0 30 1 31 23 17 12 -9 24 -26 25 -39 2
-13 8 -28 13 -34 15 -15 11 -118 -7 -143 -8 -12 -20 -22 -26 -22 -9 0 -368
165 -783 360 -60 28 -130 61 -155 72 -25 11 -88 41 -140 65 -52 25 -123 58
-157 74 -35 16 -91 42 -126 58 -34 16 -105 49 -157 74 -198 93 -256 117 -284
116 -11 0 8 -11 44 -23 36 -13 99 -39 140 -58 41 -20 111 -52 155 -73 44 -21
141 -66 215 -100 74 -34 275 -128 446 -208 171 -80 331 -154 355 -165 24 -11
94 -44 154 -72 286 -135 284 -134 322 -116 37 17 54 50 52 99 -1 28 -3 25 -14
-18 l-13 -50 -1 57 c0 31 -4 63 -7 72 -3 9 -1 16 5 16 6 0 11 -10 11 -22 0
-12 3 -19 6 -16 3 4 2 27 -1 52 -9 57 -51 94 -85 76 -11 -6 -20 -18 -20 -26 0
-8 -4 -12 -10 -9 -5 3 -10 21 -10 40 0 36 8 31 -225 155 -44 24 -84 46 -90 50
-5 4 -65 38 -133 74 -121 66 -162 76 -162 40 0 -8 -4 -14 -10 -14 -5 0 -10 15
-10 34 0 40 -10 49 -140 118 -47 25 -105 57 -130 70 -25 14 -101 56 -170 93
-69 37 -131 72 -138 78 -7 5 -15 7 -18 5 -5 -6 41 -33 191 -113 39 -21 84 -46
100 -55 17 -10 57 -32 90 -50 145 -79 205 -115 196 -118 -6 -2 -26 5 -43 16
-18 11 -58 33 -88 49 -588 320 -702 384 -696 390 4 5 153 -72 204 -105 12 -8
25 -12 28 -9 3 2 -45 32 -107 66 -110 60 -149 69 -149 35 0 -8 -6 -14 -14 -14
-10 0 -16 13 -18 41 l-3 41 -165 89 c-91 50 -208 113 -260 141 -52 28 -104 57
-115 65 -27 18 -41 16 -65 -9 l-20 -22 0 37 c0 35 -26 67 -55 67 -5 0 1 -8 15
-18 17 -11 26 -28 29 -52 2 -19 8 -38 14 -42 6 -4 8 -10 4 -14 -13 -14 -37 19
-37 52 0 27 -5 37 -25 46 -13 6 -22 15 -19 19 3 5 0 9 -6 9 -7 0 -14 -9 -17
-20 -8 -32 -28 -18 -31 23 -4 47 -44 78 -99 76 -37 -1 -38 -1 -8 -9z m78 -24
c10 -8 17 -26 17 -44 0 -20 7 -36 22 -46 27 -19 17 -32 -11 -14 -13 8 -21 23
-21 40 0 36 -10 58 -25 58 -8 0 -17 5 -20 10 -9 14 17 12 38 -4z m492 -269
l280 -152 3 -37 c2 -25 11 -43 25 -53 16 -11 17 -15 6 -15 -25 0 -51 36 -47
65 3 28 -25 45 -392 242 -148 79 -186 103 -162 103 4 0 133 -69 287 -153z
m1202 -729 c16 -18 8 -24 -13 -10 -16 10 -27 50 -17 64 5 9 9 5 11 -12 2 -14
11 -33 19 -42z m724 -339 c8 -15 8 -24 0 -32 -8 -8 -11 -5 -11 11 0 12 -9 26
-20 32 -11 6 -20 15 -20 21 0 15 38 -8 51 -32z m-91 -9 c8 -5 11 -12 7 -16 -4
-4 -15 0 -24 9 -18 18 -8 23 17 7z"/>
<path d="M1790 2094 c-18 -21 3 -57 45 -77 37 -17 45 -14 45 18 0 23 -19 44
-56 64 -17 8 -25 7 -34 -5z m30 -29 c7 -14 19 -25 26 -25 7 0 16 -4 19 -10 3
-5 0 -10 -8 -10 -17 0 -67 45 -67 60 0 18 16 11 30 -15z m40 -7 c0 -13 -23 -5
-28 10 -2 7 2 10 12 6 9 -3 16 -11 16 -16z"/>
<path d="M346 1769 c-24 -19 -26 -27 -26 -91 0 -98 17 -129 94 -172 34 -19 69
-34 79 -33 13 2 33 -33 82 -141 36 -79 65 -149 65 -154 0 -6 -11 -7 -27 -3
-27 6 -27 6 -8 -9 12 -9 15 -15 7 -16 -18 0 -95 40 -89 47 3 2 15 -1 27 -7 44
-24 29 -1 -16 24 -86 48 -129 26 -115 -59 5 -28 9 -39 10 -25 1 24 2 24 34
-14 24 -28 39 -37 50 -33 39 15 2 92 -39 84 -49 -9 -71 44 -23 56 10 3 17 1
14 -4 -8 -12 133 -81 158 -77 38 5 30 43 -42 204 -39 85 -71 166 -71 179 0 15
-7 26 -20 30 -32 10 -42 -3 -25 -36 20 -37 6 -37 -55 0 -57 34 -80 78 -80 153
0 69 7 88 31 88 10 0 19 4 19 9 0 5 8 12 18 14 13 4 13 5 -4 6 -12 0 -33 -8
-48 -20z m152 -247 c6 -18 -15 -14 -22 4 -4 10 -1 14 6 12 6 -2 14 -10 16 -16z
m18 -319 c-8 -8 -36 5 -36 17 0 7 6 7 21 0 11 -7 18 -14 15 -17z m-6 -65 c0
-5 -4 -6 -10 -3 -5 3 -10 2 -10 -4 0 -5 5 -13 10 -16 13 -8 13 -25 0 -25 -5 0
-16 13 -24 29 -15 28 -14 29 9 29 14 0 25 -5 25 -10z"/>
<path d="M463 1771 c56 -12 57 -22 1 -16 l-49 5 57 -14 c72 -16 88 -30 88 -72
0 -27 6 -36 29 -48 32 -17 41 -13 41 21 0 26 7 28 33 9 10 -8 17 -26 17 -44 0
-23 7 -36 25 -48 28 -19 40 -13 40 19 0 12 5 21 10 20 6 -1 57 -27 115 -59 58
-32 139 -76 180 -98 42 -23 117 -63 168 -91 91 -49 92 -50 92 -87 0 -32 5 -40
30 -53 32 -17 55 -12 47 9 -16 41 27 23 263 -106 506 -277 544 -298 552 -298
4 0 8 -16 8 -35 0 -22 8 -41 22 -55 31 -29 48 -25 48 11 l0 30 108 -57 c59
-31 112 -60 117 -64 6 -4 42 -24 80 -45 39 -21 99 -54 135 -74 36 -20 79 -43
95 -52 24 -13 31 -24 33 -52 2 -24 11 -42 25 -52 31 -21 37 -19 37 15 0 33 3
35 31 20 11 -6 19 -21 19 -35 0 -13 5 -27 10 -30 13 -8 13 -121 0 -146 -15
-27 -38 -24 -122 15 -40 18 -98 45 -128 59 -51 23 -129 59 -310 144 -41 20
-102 48 -135 63 -33 15 -104 49 -159 74 -54 26 -101 45 -104 42 -2 -3 6 -10
19 -15 13 -5 71 -31 129 -59 58 -27 125 -59 150 -70 25 -11 171 -79 325 -151
153 -72 290 -131 303 -131 13 0 37 13 53 29 23 23 29 38 29 72 0 53 -6 48 -13
-11 -8 -64 -10 -63 -16 15 -7 75 -3 100 11 69 5 -12 6 -7 2 16 -10 60 -15 70
-42 84 -22 11 -31 12 -45 1 -9 -7 -17 -17 -17 -24 0 -6 -4 -11 -10 -11 -5 0
-10 17 -10 38 0 33 -4 41 -32 55 -18 9 -64 34 -103 55 -243 133 -317 174 -373
206 -51 28 -68 34 -83 26 -10 -6 -19 -18 -19 -27 0 -31 -18 1 -22 36 -3 35 -5
36 -303 199 -165 90 -344 188 -399 218 -54 30 -100 53 -103 50 -3 -2 6 -10 19
-17 36 -19 554 -302 638 -348 41 -23 90 -49 108 -58 27 -14 32 -22 32 -51 0
-22 7 -40 17 -48 10 -7 15 -15 11 -19 -13 -14 -50 36 -45 62 5 28 18 20 -193
135 -549 300 -621 341 -610 348 9 6 9 9 1 15 -15 8 -41 -12 -41 -32 0 -30 -25
-5 -28 28 -4 41 -15 55 -61 78 -20 9 -92 48 -161 86 -69 37 -143 78 -165 90
-22 12 -74 40 -116 63 -75 41 -109 46 -109 16 0 -8 -4 -14 -10 -14 -5 0 -10
16 -10 35 0 28 -5 37 -30 50 -34 18 -70 12 -70 -12 0 -31 -25 -5 -28 29 -4 47
-31 64 -108 72 -43 4 -49 3 -21 -3z m115 -72 c2 -20 12 -41 25 -51 28 -21 18
-33 -11 -12 -15 10 -22 25 -22 49 0 24 -6 38 -20 45 -11 6 -20 16 -20 22 0 6
9 5 23 -4 14 -10 23 -27 25 -49z m110 -25 c15 -10 22 -25 22 -49 0 -19 5 -37
10 -40 6 -3 10 -12 10 -18 -1 -26 -40 37 -40 64 0 16 -4 29 -8 29 -5 0 -17 7
-28 15 -27 21 4 20 34 -1z m392 -214 c124 -68 233 -128 243 -134 12 -8 17 -21
15 -43 -2 -23 4 -37 22 -52 14 -11 20 -20 14 -21 -23 0 -54 41 -54 73 0 30 -5
35 -72 70 -68 34 -100 51 -283 151 -168 92 -195 108 -195 117 0 6 19 -1 43
-14 23 -14 143 -80 267 -147z m1385 -760 c6 -4 44 -25 85 -47 127 -69 276
-150 299 -164 14 -9 21 -24 21 -45 0 -17 7 -37 15 -44 22 -18 18 -32 -5 -18
-13 9 -20 24 -20 45 0 18 -6 37 -12 43 -13 11 -410 231 -500 277 -27 13 -48
28 -48 34 0 8 131 -56 165 -81z m497 -272 c20 -16 33 -58 19 -58 -6 0 -11 9
-11 21 0 12 -8 23 -20 26 -11 3 -20 9 -20 14 0 13 13 11 32 -3z"/>
<path d="M1371 1683 c-1 -47 21 -77 50 -70 13 4 19 -2 21 -21 4 -31 74 -72
132 -77 19 -2 40 -6 46 -10 26 -16 130 7 187 42 92 57 109 64 175 73 l63 9
-67 -4 c-73 -5 -86 -9 -163 -60 -79 -52 -87 -52 -113 0 -21 43 -35 54 -46 37
-5 -8 20 -72 28 -72 3 0 0 14 -6 31 -14 40 -4 48 12 9 16 -40 -1 -62 -44 -58
-26 3 -32 9 -42 43 -7 25 -18 41 -29 43 -15 3 -17 -1 -11 -32 6 -31 4 -36 -11
-36 -10 0 -36 10 -58 23 -34 19 -41 29 -45 61 -5 41 -30 63 -30 27 0 -23 -15
-28 -27 -8 -4 6 -10 30 -14 52 l-6 40 -2 -42z m218 -131 c0 -24 -1 -25 -9 -7
-12 28 -12 47 0 40 6 -3 10 -18 9 -33z"/>
<path d="M844 1466 c-8 -21 13 -54 46 -71 42 -21 50 -19 50 15 0 23 -7 35 -32
50 -39 24 -57 25 -64 6z m66 -51 c14 -7 18 -15 12 -19 -14 -9 -75 51 -66 66 4
7 11 2 19 -12 7 -13 22 -28 35 -35z m10 20 c7 -8 8 -15 2 -15 -5 0 -15 7 -22
15 -7 8 -8 15 -2 15 5 0 15 -7 22 -15z"/>
<path d="M3595 1100 c-12 -19 6 -49 40 -70 39 -24 55 -20 55 16 0 37 -78 81
-95 54z m64 -50 c11 0 9 4 -5 14 -20 15 -17 30 4 17 18 -11 24 -51 8 -51 -20
0 -68 49 -60 61 4 7 13 2 23 -15 8 -14 22 -26 30 -26z"/>
<path d="M431 1065 c-1 -49 23 -89 50 -82 14 4 19 0 19 -13 0 -18 37 -50 74
-63 55 -20 157 -35 183 -27 15 5 39 12 53 14 14 3 54 25 90 48 l65 43 100 0
c110 -1 101 2 359 -119 54 -26 101 -45 104 -42 2 3 -6 10 -19 15 -13 5 -78 34
-144 66 -167 78 -221 95 -307 95 -80 0 -125 -16 -198 -69 -58 -42 -76 -40 -96
9 -11 27 -22 40 -35 40 -24 0 -24 -2 2 -51 l20 -40 -38 3 c-33 3 -38 7 -47 38
-17 62 -51 70 -41 9 7 -40 6 -41 -16 -34 -36 11 -83 36 -91 49 -4 6 -8 23 -8
37 0 15 -7 32 -15 39 -13 10 -15 9 -15 -9 0 -37 -29 -24 -35 17 -11 64 -13 68
-14 27z m224 -132 c4 -14 2 -23 -4 -23 -6 0 -11 3 -11 8 0 4 -3 18 -6 32 -8
31 11 16 21 -17z m99 -3 c7 -24 6 -24 -8 -6 -9 11 -16 27 -16 35 0 21 16 2 24
-29z"/>
<path d="M1540 815 c0 -2 21 -14 48 -26 26 -12 85 -40 132 -62 227 -106 273
-127 277 -123 3 2 -10 11 -29 20 -18 8 -120 56 -227 105 -199 93 -201 94 -201
86z"/>
<path d="M2654 476 c-8 -20 12 -53 39 -66 19 -9 20 -9 6 2 -23 19 -41 56 -30
63 5 3 12 -3 16 -14 3 -11 17 -27 32 -36 20 -14 23 -19 12 -26 -11 -7 -10 -9
4 -9 12 0 17 8 17 29 0 23 -8 34 -34 50 -39 25 -55 26 -62 7z m76 -31 c7 -8 8
-15 2 -15 -5 0 -15 7 -22 15 -7 8 -8 15 -2 15 5 0 15 -7 22 -15z"/>
</g>
</svg>
