<?xml version="1.0" standalone="no"?>
<!DOCTYPE svg PUBLIC "-//W3C//DTD SVG 20010904//EN"
 "http://www.w3.org/TR/2001/REC-SVG-20010904/DTD/svg10.dtd">
<svg version="1.0" xmlns="http://www.w3.org/2000/svg"
 width="701.000000pt" height="404.000000pt" viewBox="0 0 701.000000 404.000000"
 preserveAspectRatio="xMidYMid meet">

<g transform="translate(0.000000,404.000000) scale(0.100000,-0.100000)"
fill="#000000" stroke="none">
<path d="M5014 3999 c-3 -6 -1 -16 5 -22 8 -8 11 -8 11 1 0 20 28 14 44 -9 19
-28 11 -47 -30 -64 -46 -19 -43 -37 11 -63 25 -12 45 -18 45 -14 0 5 -17 17
-37 27 l-38 18 33 14 c18 7 35 20 38 28 11 27 -6 64 -36 80 -35 18 -37 18 -46
4z"/>
<path d="M5139 3934 c-20 -24 -6 -112 24 -141 37 -38 57 -25 57 36 0 61 -14
95 -45 109 -18 8 -26 8 -36 -4z m58 -35 c32 -62 -4 -151 -37 -90 -11 22 -14
104 -3 115 11 11 27 1 40 -25z"/>
<path d="M5249 3874 c-20 -24 -6 -112 24 -141 37 -38 57 -25 57 36 0 61 -14
95 -45 109 -18 8 -26 8 -36 -4z m58 -35 c32 -62 -4 -151 -37 -90 -11 22 -14
104 -3 115 11 11 27 1 40 -25z"/>
<path d="M5434 3779 c-3 -6 -1 -16 5 -22 8 -8 11 -8 11 1 0 20 28 14 44 -9 19
-28 11 -47 -30 -64 -46 -19 -43 -37 11 -63 25 -12 45 -18 45 -14 0 5 -17 17
-37 27 l-38 18 33 14 c18 7 35 20 38 28 11 27 -6 64 -36 80 -35 18 -37 18 -46
4z"/>
<path d="M5360 3743 c0 -7 32 -32 43 -33 17 0 5 18 -18 28 -14 6 -25 9 -25 5z"/>
<path d="M5540 3732 c0 -5 16 -16 36 -25 l35 -17 -19 -28 c-23 -32 -38 -92
-24 -92 5 0 13 12 17 27 3 15 15 39 26 54 10 15 19 31 19 36 0 5 -20 19 -45
31 -25 12 -45 18 -45 14z"/>
<path d="M5669 3644 c-20 -24 -6 -112 24 -141 37 -38 57 -25 57 36 0 61 -14
95 -45 109 -18 8 -26 8 -36 -4z m58 -35 c32 -62 -4 -151 -37 -90 -11 22 -14
104 -3 115 11 11 27 1 40 -25z"/>
<path d="M5845 3560 c-3 -5 -3 -15 1 -21 4 -8 9 -7 15 2 6 11 13 11 26 3 24
-15 30 -54 8 -54 -13 0 -12 -5 7 -30 16 -22 19 -33 11 -41 -16 -16 -44 -3 -50
21 -5 20 -23 28 -23 11 0 -14 51 -61 67 -61 20 0 28 29 16 61 -8 19 -8 29 -1
31 15 5 0 45 -25 68 -23 22 -42 26 -52 10z"/>
<path d="M5770 3513 c0 -7 32 -32 43 -33 17 0 5 18 -18 28 -14 6 -25 9 -25 5z"/>
<path d="M5960 3502 c0 -5 16 -16 36 -25 l35 -17 -19 -28 c-23 -32 -38 -92
-24 -92 5 0 13 12 17 27 3 15 15 39 26 54 10 15 19 31 19 36 0 5 -20 19 -45
31 -25 12 -45 18 -45 14z"/>
<path d="M6079 3424 c-20 -24 -6 -112 24 -141 37 -38 57 -25 57 36 0 61 -14
95 -45 109 -18 8 -26 8 -36 -4z m58 -35 c32 -62 -4 -151 -37 -90 -11 22 -14
104 -3 115 11 11 27 1 40 -25z"/>
<path d="M6282 3287 c-18 -18 -32 -36 -32 -39 0 -3 16 -15 35 -27 23 -13 35
-28 36 -43 1 -17 3 -18 6 -5 2 9 10 17 16 17 8 0 7 4 -1 12 -7 7 -12 36 -12
65 0 29 -4 53 -8 53 -4 0 -22 -15 -40 -33z m38 -32 c0 -33 -1 -34 -25 -23
l-25 11 22 24 c12 13 23 23 25 23 2 0 3 -16 3 -35z"/>
<path d="M6190 3293 c0 -7 32 -32 43 -33 17 0 5 18 -18 28 -14 6 -25 9 -25 5z"/>
<path d="M6370 3282 c0 -5 16 -16 36 -25 l35 -17 -19 -28 c-23 -32 -38 -92
-24 -92 5 0 13 12 17 27 3 15 15 39 26 54 10 15 19 31 19 36 0 5 -20 19 -45
31 -25 12 -45 18 -45 14z"/>
<path d="M2775 2230 l-2050 -1029 -3 -36 c-2 -20 3 -44 10 -52 7 -9 472 -245
1033 -525 561 -279 1041 -519 1067 -534 l47 -27 163 82 c90 46 1012 508 2051
1027 1038 520 1887 949 1887 954 0 5 -4 11 -9 14 -6 4 -5 20 0 42 8 26 7 39
-2 51 -15 18 -2112 1063 -2131 1062 -7 0 -935 -463 -2063 -1029z m2477 809
c222 -111 480 -239 573 -285 94 -45 213 -105 265 -132 52 -27 265 -133 473
-235 207 -102 377 -189 377 -194 0 -4 -920 -468 -2044 -1031 l-2045 -1023
-1043 522 c-574 286 -1046 524 -1050 527 -6 7 4057 2050 4079 2051 6 1 193
-90 415 -200z m1686 -944 c-7 -7 -4055 -2035 -4062 -2035 -3 0 -6 11 -6 25 0
14 5 25 10 25 11 0 2247 1117 3410 1704 571 288 645 323 648 305 2 -12 2 -22
0 -24z m-693 -285 c-3 -5 -12 -10 -18 -10 -7 0 -6 4 3 10 19 12 23 12 15 0z
m-129 -65 c-11 -8 -25 -15 -30 -15 -6 1 0 7 14 15 32 19 40 18 16 0z m-66 -30
c0 -6 -76 -45 -87 -45 -4 1 12 12 37 25 50 27 50 27 50 20z m-120 -60 c0 -6
-56 -35 -67 -35 -4 1 8 9 27 20 39 22 40 22 40 15z m-80 -40 c0 -6 -1257 -635
-1267 -634 -6 0 1253 636 1265 638 1 1 2 -1 2 -4z m-3010 -1510 c0 -30 -4 -30
-55 -2 -26 14 -40 29 -40 42 0 13 -8 21 -22 23 -18 3 -21 0 -17 -13 4 -11 -64
19 -187 81 -107 53 -524 261 -928 461 -544 270 -731 367 -723 375 8 8 9 15 1
25 -18 21 -42 16 -36 -7 5 -18 2 -18 -44 6 -42 21 -49 29 -49 54 l0 29 1050
-524 c975 -487 1050 -527 1050 -550z m1680 840 c-14 -8 -29 -14 -35 -14 -5 0
1 6 15 14 14 8 30 14 35 14 6 0 -1 -6 -15 -14z m-55 -24 c-19 -16 -1567 -792
-1572 -787 -4 4 1561 794 1577 795 2 1 0 -3 -5 -8z"/>
<path d="M4805 3200 c-8 -13 20 -24 41 -16 20 8 9 26 -16 26 -10 0 -22 -5 -25
-10z"/>
<path d="M4712 3148 c5 -15 37 -18 41 -3 1 6 -9 12 -22 13 -16 3 -22 -1 -19
-10z"/>
<path d="M4625 3110 c-8 -13 3 -30 20 -30 20 0 30 21 14 31 -18 11 -26 11 -34
-1z"/>
<path d="M4532 3061 c-11 -6 -11 -10 0 -19 16 -13 44 1 34 17 -8 13 -16 14
-34 2z"/>
<path d="M4437 3014 c-14 -14 -7 -25 13 -22 12 2 21 8 21 13 0 12 -24 18 -34
9z"/>
<path d="M4335 2960 c-8 -12 20 -24 35 -15 5 3 10 10 10 16 0 12 -37 12 -45
-1z"/>
<path d="M4249 2919 c-10 -6 -11 -11 -3 -19 11 -11 44 -4 44 10 0 13 -26 19
-41 9z"/>
<path d="M4146 2871 c-3 -5 1 -14 9 -21 12 -10 18 -10 30 0 13 11 13 15 3 21
-17 11 -35 11 -42 0z"/>
<path d="M4050 2815 c0 -11 7 -15 23 -13 12 2 22 8 22 13 0 6 -10 11 -22 13
-16 2 -23 -2 -23 -13z"/>
<path d="M3955 2770 c-8 -13 20 -24 41 -16 20 8 9 26 -16 26 -10 0 -22 -5 -25
-10z"/>
<path d="M3865 2730 c-4 -7 -3 -16 2 -21 12 -12 45 0 40 15 -5 15 -34 19 -42
6z"/>
<path d="M3777 2684 c-14 -14 -6 -24 19 -24 16 0 24 5 22 13 -5 14 -31 21 -41
11z"/>
<path d="M3677 2634 c-11 -11 3 -24 24 -24 12 0 19 5 17 13 -5 14 -31 21 -41
11z"/>
<path d="M3583 2578 c2 -7 12 -13 22 -13 10 0 20 6 23 13 2 7 -6 12 -23 12
-17 0 -25 -5 -22 -12z"/>
<path d="M3490 2540 c-13 -9 -13 -11 0 -20 19 -12 35 -8 35 10 0 18 -16 22
-35 10z"/>
<path d="M3397 2494 c-14 -14 -6 -24 19 -24 16 0 24 5 22 13 -5 14 -31 21 -41
11z"/>
<path d="M3297 2444 c-10 -11 3 -24 24 -24 10 0 19 7 19 15 0 15 -31 21 -43 9z"/>
<path d="M3203 2388 c2 -7 12 -13 22 -13 10 0 20 6 23 13 2 7 -6 12 -23 12
-17 0 -25 -5 -22 -12z"/>
<path d="M3112 2351 c-10 -6 -10 -10 3 -21 18 -15 42 0 31 19 -8 13 -16 14
-34 2z"/>
<path d="M3015 2299 c-4 -6 -2 -15 5 -19 17 -10 42 -1 37 14 -5 16 -34 19 -42
5z"/>
<path d="M2917 2254 c-10 -11 3 -24 24 -24 10 0 19 7 19 15 0 15 -31 21 -43 9z"/>
<path d="M2823 2198 c2 -7 12 -13 22 -13 10 0 20 6 23 13 2 7 -6 12 -23 12
-17 0 -25 -5 -22 -12z"/>
<path d="M6835 2186 c-18 -13 -18 -14 4 -21 28 -9 48 7 28 23 -10 9 -18 8 -32
-2z"/>
<path d="M2734 2159 c-11 -19 13 -34 31 -19 13 11 13 15 3 21 -18 12 -26 11
-34 -2z"/>
<path d="M6740 2140 c-13 -9 -13 -11 -1 -19 17 -11 43 -3 38 12 -5 15 -20 18
-37 7z"/>
<path d="M2637 2114 c-11 -11 3 -24 24 -24 12 0 19 5 17 13 -5 14 -31 21 -41
11z"/>
<path d="M6647 2094 c-14 -14 -6 -24 19 -24 16 0 24 5 22 13 -5 14 -31 21 -41
11z"/>
<path d="M2550 2070 c-11 -7 -12 -12 -3 -21 14 -14 46 -4 41 13 -6 16 -20 19
-38 8z"/>
<path d="M6545 2040 c-8 -13 20 -24 41 -16 20 8 9 26 -16 26 -10 0 -22 -5 -25
-10z"/>
<path d="M2455 2019 c-4 -6 -2 -15 5 -19 17 -10 42 -1 37 14 -5 16 -34 19 -42
5z"/>
<path d="M6453 1988 c2 -7 12 -13 22 -13 10 0 20 6 23 13 2 7 -6 12 -23 12
-17 0 -25 -5 -22 -12z"/>
<path d="M2357 1974 c-10 -11 3 -24 24 -24 10 0 19 7 19 15 0 15 -31 21 -43 9z"/>
<path d="M6360 1950 c-13 -9 -13 -11 0 -20 19 -12 35 -8 35 10 0 18 -16 22
-35 10z"/>
<path d="M2269 1929 c-11 -6 -11 -11 -2 -20 12 -12 43 -6 43 10 0 14 -25 20
-41 10z"/>
<path d="M6267 1904 c-14 -14 -6 -24 19 -24 16 0 24 5 22 13 -5 14 -31 21 -41
11z"/>
<path d="M2171 1876 c-9 -10 -8 -15 4 -20 8 -3 22 -3 30 0 12 5 13 10 4 20 -6
8 -15 14 -19 14 -4 0 -13 -6 -19 -14z"/>
<path d="M6165 1850 c-8 -13 20 -24 41 -16 20 8 9 26 -16 26 -10 0 -22 -5 -25
-10z"/>
<path d="M2075 1829 c-4 -6 -2 -15 5 -19 17 -10 42 -1 37 14 -5 16 -34 19 -42
5z"/>
<path d="M6073 1798 c2 -7 12 -13 22 -13 10 0 20 6 23 13 2 7 -6 12 -23 12
-17 0 -25 -5 -22 -12z"/>
<path d="M1977 1784 c-10 -11 3 -24 24 -24 10 0 19 7 19 15 0 15 -31 21 -43 9z"/>
<path d="M5985 1760 c-12 -19 5 -31 27 -19 17 9 18 13 7 20 -18 11 -26 11 -34
-1z"/>
<path d="M1883 1728 c2 -7 12 -13 22 -13 10 0 20 6 23 13 2 7 -6 12 -23 12
-17 0 -25 -5 -22 -12z"/>
<path d="M5887 1714 c-11 -11 3 -24 24 -24 12 0 19 5 17 13 -5 14 -31 21 -41
11z"/>
<path d="M1795 1690 c-7 -11 2 -30 13 -30 4 0 14 5 22 10 13 9 13 11 0 20 -19
12 -27 12 -35 0z"/>
<path d="M5790 1655 c0 -11 7 -15 23 -13 12 2 22 8 22 13 0 6 -10 11 -22 13
-16 2 -23 -2 -23 -13z"/>
<path d="M1697 1644 c-14 -14 -6 -24 19 -24 16 0 24 5 22 13 -5 14 -31 21 -41
11z"/>
<path d="M5700 1620 c-11 -7 -12 -12 -3 -21 14 -14 46 -4 41 13 -6 16 -20 19
-38 8z"/>
<path d="M1595 1590 c-8 -13 20 -24 41 -16 8 3 12 10 9 16 -8 13 -42 13 -50 0z"/>
<path d="M5607 1573 c-13 -12 -7 -23 12 -23 26 0 35 16 15 24 -19 7 -19 7 -27
-1z"/>
<path d="M1503 1538 c2 -7 12 -13 22 -13 10 0 20 6 23 13 2 7 -6 12 -23 12
-17 0 -25 -5 -22 -12z"/>
<path d="M5507 1524 c-11 -11 3 -24 24 -24 12 0 19 5 17 13 -5 14 -31 21 -41
11z"/>
<path d="M1415 1500 c-7 -11 2 -30 13 -30 4 0 14 5 22 10 13 9 13 11 0 20 -19
12 -27 12 -35 0z"/>
<path d="M5413 1468 c2 -7 12 -13 22 -13 10 0 20 6 23 13 2 7 -6 12 -23 12
-17 0 -25 -5 -22 -12z"/>
<path d="M1317 1454 c-11 -11 3 -24 24 -24 12 0 19 5 17 13 -5 14 -31 21 -41
11z"/>
<path d="M5310 1421 c0 -12 29 -23 41 -15 18 10 9 24 -16 24 -14 0 -25 -4 -25
-9z"/>
<path d="M1220 1395 c0 -11 7 -15 23 -13 12 2 22 8 22 13 0 6 -10 11 -22 13
-16 2 -23 -2 -23 -13z"/>
<path d="M5227 1384 c-14 -14 -6 -24 19 -24 16 0 24 5 22 13 -5 14 -31 21 -41
11z"/>
<path d="M1130 1355 c-10 -12 -9 -16 5 -21 19 -8 40 9 31 25 -10 15 -21 14
-36 -4z"/>
<path d="M5127 1334 c-10 -11 3 -24 24 -24 10 0 19 7 19 15 0 15 -31 21 -43 9z"/>
<path d="M1035 1309 c-4 -6 -2 -15 5 -19 17 -10 42 -1 37 14 -5 16 -34 19 -42
5z"/>
<path d="M5035 1280 c-8 -12 20 -24 35 -15 5 3 10 10 10 16 0 12 -37 12 -45
-1z"/>
<path d="M937 1264 c-10 -11 3 -24 24 -24 10 0 19 7 19 15 0 15 -31 21 -43 9z"/>
<path d="M4930 1231 c0 -12 29 -23 41 -15 18 10 9 24 -16 24 -14 0 -25 -4 -25
-9z"/>
<path d="M843 1208 c2 -7 12 -13 22 -13 10 0 20 6 23 13 2 7 -6 12 -23 12 -17
0 -25 -5 -22 -12z"/>
<path d="M4847 1194 c-14 -14 -6 -24 19 -24 16 0 24 5 22 13 -5 14 -31 21 -41
11z"/>
<path d="M4750 1135 c0 -11 7 -15 23 -13 12 2 22 8 22 13 0 6 -10 11 -22 13
-16 2 -23 -2 -23 -13z"/>
<path d="M4655 1090 c-8 -12 20 -24 35 -15 5 3 10 10 10 16 0 12 -37 12 -45
-1z"/>
<path d="M4566 1051 c-3 -5 0 -13 7 -19 15 -13 42 1 33 17 -9 13 -33 15 -40 2z"/>
<path d="M4470 995 c0 -11 7 -15 23 -13 12 2 22 8 22 13 0 6 -10 11 -22 13
-16 2 -23 -2 -23 -13z"/>
<path d="M4380 955 c-10 -12 -9 -16 3 -21 17 -6 37 2 37 16 0 15 -29 19 -40 5z"/>
<path d="M4285 909 c-4 -6 -2 -15 5 -19 17 -10 42 -1 37 14 -5 16 -34 19 -42
5z"/>
<path d="M4190 855 c0 -11 7 -15 23 -13 12 2 22 8 22 13 0 6 -10 11 -22 13
-16 2 -23 -2 -23 -13z"/>
<path d="M4093 808 c2 -7 12 -13 22 -13 10 0 20 6 23 13 2 7 -6 12 -23 12 -17
0 -25 -5 -22 -12z"/>
<path d="M4004 769 c-8 -14 11 -33 25 -25 6 4 11 11 11 16 0 13 -29 20 -36 9z"/>
<path d="M3905 719 c-4 -6 -2 -15 5 -19 17 -10 42 -1 37 14 -5 16 -34 19 -42
5z"/>
<path d="M3817 674 c-14 -14 -7 -25 13 -22 12 2 21 8 21 13 0 12 -24 18 -34 9z"/>
<path d="M3715 620 c-8 -12 20 -24 35 -15 5 3 10 10 10 16 0 12 -37 12 -45 -1z"/>
<path d="M3625 580 c-7 -11 2 -30 13 -30 4 0 14 5 22 10 13 9 13 11 0 20 -19
12 -27 12 -35 0z"/>
<path d="M3527 534 c-11 -11 3 -24 24 -24 12 0 19 5 17 13 -5 14 -31 21 -41
11z"/>
<path d="M3437 484 c-14 -14 -7 -25 13 -22 12 2 21 8 21 13 0 12 -24 18 -34 9z"/>
<path d="M3337 434 c-10 -11 3 -24 24 -24 10 0 19 7 19 15 0 15 -31 21 -43 9z"/>
<path d="M3249 389 c-11 -6 -11 -11 -2 -20 12 -12 43 -6 43 10 0 14 -25 20
-41 10z"/>
<path d="M3152 343 c-10 -4 -10 -8 -1 -19 8 -10 16 -11 31 -3 17 9 18 13 7 20
-15 10 -18 10 -37 2z"/>
<path d="M3057 294 c-14 -14 -6 -24 19 -24 16 0 24 5 22 13 -5 14 -31 21 -41
11z"/>
<path d="M2955 240 c-8 -13 20 -24 41 -16 20 8 9 26 -16 26 -10 0 -22 -5 -25
-10z"/>
<path d="M2869 199 c-10 -6 -11 -11 -3 -19 11 -11 44 -4 44 10 0 13 -26 19
-41 9z"/>
<path d="M6499 3204 c-20 -24 -6 -112 24 -141 37 -38 57 -25 57 36 0 61 -14
95 -45 109 -18 8 -26 8 -36 -4z m58 -35 c32 -62 -4 -151 -37 -90 -11 22 -14
104 -3 115 11 11 27 1 40 -25z"/>
<path d="M6680 3090 c0 -16 0 -33 -1 -37 0 -5 10 -10 23 -13 30 -8 57 -55 41
-71 -16 -16 -44 -4 -50 21 -5 20 -23 28 -23 11 0 -13 51 -61 65 -61 21 0 37
28 30 52 -9 29 -44 68 -62 68 -15 0 -16 9 -5 27 6 10 12 10 28 -2 22 -16 34
-19 34 -7 0 7 -63 42 -75 42 -3 0 -5 -13 -5 -30z"/>
<path d="M6610 3073 c0 -7 32 -32 43 -33 17 0 5 18 -18 28 -14 6 -25 9 -25 5z"/>
<path d="M6790 3062 c0 -5 16 -16 36 -25 l35 -17 -19 -28 c-23 -32 -38 -92
-24 -92 5 0 13 12 17 27 3 15 15 39 26 54 10 15 19 31 19 36 0 5 -20 19 -45
31 -25 12 -45 18 -45 14z"/>
<path d="M6919 2974 c-20 -24 -6 -112 24 -141 37 -38 57 -25 57 36 0 61 -14
95 -45 109 -18 8 -26 8 -36 -4z m58 -35 c32 -62 -4 -151 -37 -90 -11 22 -14
104 -3 115 11 11 27 1 40 -25z"/>
<path d="M2759 2815 c-3 -38 -5 -71 -4 -73 5 -6 75 32 75 40 0 5 -13 2 -30 -7
l-29 -15 -3 62 -3 63 -6 -70z"/>
</g>
</svg>
