<?xml version="1.0" standalone="no"?>
<!DOCTYPE svg PUBLIC "-//W3C//DTD SVG 20010904//EN"
 "http://www.w3.org/TR/2001/REC-SVG-20010904/DTD/svg10.dtd">
<svg version="1.0" xmlns="http://www.w3.org/2000/svg"
 width="500.000000pt" height="370.000000pt" viewBox="0 0 500.000000 370.000000"
 preserveAspectRatio="xMidYMid meet">

<g transform="translate(0.000000,370.000000) scale(0.100000,-0.100000)"
fill="#000000" stroke="none">
<path d="M4400 3199 c-190 -111 -466 -271 -615 -357 -479 -276 -1725 -996
-2285 -1320 -300 -174 -705 -407 -900 -520 -412 -236 -430 -247 -430 -267 0
-9 11 -20 25 -27 13 -6 22 -15 18 -21 -3 -5 0 -8 7 -5 25 8 20 23 -12 41 l-32
18 79 46 c44 25 249 143 455 263 206 119 508 294 670 387 162 94 453 262 645
373 193 111 658 380 1035 597 377 218 782 452 900 521 118 69 347 201 508 293
l294 169 41 -21 c33 -17 44 -19 60 -10 10 7 21 10 24 7 3 -2 -6 -11 -19 -19
-21 -13 -947 -549 -1563 -904 -143 -83 -458 -265 -700 -405 -242 -140 -759
-439 -1150 -665 -390 -226 -827 -478 -970 -561 -160 -92 -264 -147 -270 -141
-15 15 -25 10 -25 -11 0 -22 -20 -26 -38 -8 -19 19 -34 -4 -30 -48 2 -33 8
-41 35 -54 l33 -15 0 -87 c0 -80 -8 -105 -25 -78 -3 5 -15 10 -26 10 -16 0
-19 -7 -19 -45 0 -31 5 -47 17 -54 13 -7 16 -20 14 -55 -2 -41 0 -46 18 -46
12 0 29 -5 39 -11 14 -8 79 25 357 187 187 108 504 291 705 407 201 115 626
361 945 545 319 184 940 543 1380 797 440 254 917 529 1060 612 l260 149 3
252 2 252 -25 6 c-14 3 -31 1 -38 -4 -10 -8 -22 -6 -45 8 -18 11 -40 20 -50
20 -9 -1 -172 -91 -362 -201z m510 -83 l0 -234 -212 -123 c-117 -67 -573 -330
-1013 -584 -440 -254 -933 -539 -1095 -632 -162 -94 -673 -388 -1135 -655
-462 -267 -912 -527 -1000 -577 -88 -51 -175 -102 -192 -113 l-33 -20 0 235 0
234 198 113 c108 63 463 267 787 455 325 188 696 402 825 477 287 164 1370
791 2230 1289 349 202 636 368 638 368 1 1 2 -104 2 -233z m-4690 -2707 c0
-138 -4 -229 -10 -229 -5 0 -10 28 -12 62 -2 38 -8 63 -15 66 -7 2 -13 -4 -13
-13 0 -13 -4 -14 -20 -5 -14 8 -20 21 -20 46 l0 36 35 -22 35 -22 0 126 c0
121 -8 155 -28 119 -14 -25 -42 1 -42 38 0 33 7 36 36 14 26 -20 34 -19 34 6
0 11 5 17 10 14 6 -4 10 -93 10 -236z m-30 -194 c0 -8 -4 -17 -10 -20 -6 -4
-10 5 -10 20 0 15 4 24 10 20 6 -3 10 -12 10 -20z"/>
<path d="M4707 3343 c-14 -13 -6 -23 18 -23 16 0 25 6 25 15 0 15 -31 21 -43
8z"/>
<path d="M250 766 c0 -16 19 -25 38 -19 22 8 13 33 -13 33 -15 0 -25 -6 -25
-14z"/>
</g>
</svg>
