<?xml version="1.0" standalone="no"?>
<!DOCTYPE svg PUBLIC "-//W3C//DTD SVG 20010904//EN"
 "http://www.w3.org/TR/2001/REC-SVG-20010904/DTD/svg10.dtd">
<svg version="1.0" xmlns="http://www.w3.org/2000/svg"
 width="365.000000pt" height="980.000000pt" viewBox="0 0 365.000000 980.000000"
 preserveAspectRatio="xMidYMid meet">

<g transform="translate(0.000000,980.000000) scale(0.100000,-0.100000)"
fill="#000000" stroke="none">
<path d="M752 9614 c-20 -13 -22 -24 -22 -95 l0 -80 -40 22 c-28 16 -40 29
-40 45 0 30 -13 37 -44 23 l-26 -12 2 -4516 3 -4515 284 -164 284 -164 34 16
33 16 0 80 0 80 40 -20 c30 -15 40 -26 40 -45 0 -33 16 -40 45 -21 l25 16 0
3519 0 3519 51 17 c28 9 48 19 46 21 -2 2 -23 -3 -47 -11 -23 -8 -44 -15 -46
-15 -2 0 -5 444 -6 987 l-3 988 -280 162 c-154 89 -287 163 -295 163 -9 0 -26
-7 -38 -16z m38 -115 c0 -68 -3 -90 -12 -87 -9 3 -14 30 -16 78 -3 77 1 100
18 100 6 0 10 -35 10 -91z m54 70 c19 -11 41 -17 47 -13 7 4 9 3 5 -4 -4 -6
44 -39 118 -81 125 -72 143 -80 130 -59 -4 7 -3 8 5 4 6 -4 9 -11 6 -16 -3 -4
32 -29 77 -55 99 -57 95 -54 81 -63 -7 -5 -13 -41 -15 -92 l-3 -85 -28 3 c-21
3 -29 -2 -36 -20 -8 -18 -10 -7 -10 45 -1 72 -12 88 -48 69 -14 -8 -54 11
-193 92 l-175 102 -3 97 c-1 53 -1 97 2 97 3 0 21 -9 40 -21z m-228 -68 c0
-11 -5 -17 -13 -14 -17 6 -17 20 0 26 6 3 12 6 12 6 1 1 1 -7 1 -18z m229
-166 c132 -75 252 -145 267 -156 15 -10 34 -19 43 -19 13 0 15 -99 13 -952
l-3 -951 -73 -25 c-40 -13 -72 -26 -69 -28 2 -2 36 7 75 20 l72 23 0 -3533 c0
-2896 -2 -3534 -13 -3534 -11 0 -137 70 -477 267 l-85 49 -3 4493 c-1 2471 1
4490 5 4488 5 -2 116 -66 248 -142z m-85 69 c0 -2 -9 0 -20 6 -11 6 -20 13
-20 16 0 2 9 0 20 -6 11 -6 20 -13 20 -16z m600 -114 c0 -4 -6 -10 -13 -13 -7
-3 -13 3 -13 13 0 10 6 16 13 13 7 -3 13 -9 13 -13z m-2 -997 l-3 -968 -53
-19 c-29 -10 -51 -20 -49 -22 2 -3 23 3 47 11 23 8 46 15 51 15 5 0 9 -1513 9
-3509 0 -3106 -2 -3510 -15 -3521 -13 -11 -15 -3 -15 64 0 83 -12 97 -47 53
-10 -12 -25 -21 -34 -19 -27 5 -38 -21 -41 -103 -2 -52 -7 -80 -15 -83 -10 -3
-13 707 -13 3528 l0 3531 31 11 c16 6 28 12 26 14 -2 3 -16 0 -31 -5 l-26 -11
2 957 c2 754 6 957 16 961 9 3 12 -16 12 -72 0 -42 3 -76 6 -76 16 0 44 23 44
36 0 11 6 14 16 10 8 -3 24 -1 35 4 16 9 19 22 19 95 0 69 3 85 15 85 13 0 15
-112 13 -967z m-61 -7959 c-2 -3 -11 -2 -20 2 -15 5 -15 8 1 29 l17 23 3 -25
c2 -14 2 -27 -1 -29z"/>
<path d="M900 7165 c-52 -18 -90 -34 -84 -34 12 -1 185 56 192 64 10 10 -14 3
-108 -30z"/>
<path d="M1285 8894 c-13 -13 -16 -37 -14 -126 1 -114 10 -136 44 -108 22 18
22 250 1 250 -8 0 -22 -7 -31 -16z m12 -156 c-2 -29 -3 -8 -3 47 0 55 1 79 3
53 2 -26 2 -71 0 -100z"/>
<path d="M1222 8858 c-12 -12 -18 -248 -6 -248 3 0 14 5 25 10 17 10 19 22 19
130 0 122 -6 140 -38 108z m5 -160 c-2 -29 -3 -8 -3 47 0 55 1 79 3 53 2 -26
2 -71 0 -100z"/>
<path d="M1292 8474 c-22 -15 -23 -21 -21 -130 1 -63 5 -117 9 -119 4 -2 16 3
28 11 20 14 22 23 22 135 0 65 -3 119 -8 119 -4 0 -18 -7 -30 -16z m5 -156
c-2 -29 -3 -8 -3 47 0 55 1 79 3 53 2 -26 2 -71 0 -100z"/>
<path d="M1228 8439 c-16 -9 -18 -26 -18 -134 0 -69 3 -125 8 -125 4 0 15 7
25 14 14 11 17 31 17 135 0 66 -3 121 -7 121 -5 0 -16 -5 -25 -11z m-1 -161
c-2 -29 -3 -8 -3 47 0 55 1 79 3 53 2 -26 2 -71 0 -100z"/>
<path d="M1292 8051 c-22 -16 -23 -23 -21 -130 1 -61 6 -114 11 -117 4 -3 17
0 28 6 18 10 20 21 20 130 0 65 -4 121 -8 124 -4 2 -18 -3 -30 -13z m5 -163
c-2 -29 -3 -8 -3 47 0 55 1 79 3 53 2 -26 2 -71 0 -100z"/>
<path d="M1228 8016 c-15 -11 -18 -31 -18 -135 0 -66 3 -121 6 -121 3 0 14 5
25 10 17 10 19 22 19 135 0 69 -3 125 -7 125 -5 0 -16 -7 -25 -14z m-1 -168
c-2 -29 -3 -6 -3 52 0 58 1 81 3 53 2 -29 2 -77 0 -105z"/>
<path d="M1285 7614 c-13 -13 -16 -37 -14 -124 2 -124 6 -136 37 -114 21 14
22 23 22 135 0 96 -3 119 -14 119 -8 0 -22 -7 -31 -16z m12 -156 c-2 -29 -3
-8 -3 47 0 55 1 79 3 53 2 -26 2 -71 0 -100z"/>
<path d="M1222 7578 c-18 -18 -17 -248 1 -248 31 0 37 25 37 142 0 120 -6 138
-38 106z m5 -160 c-2 -29 -3 -8 -3 47 0 55 1 79 3 53 2 -26 2 -71 0 -100z"/>
<path d="M1291 7194 c-21 -15 -22 -21 -20 -128 1 -61 4 -114 6 -118 2 -4 15
-2 28 4 25 11 25 13 25 135 0 67 -3 123 -8 123 -4 0 -18 -7 -31 -16z m6 -156
c-2 -29 -3 -8 -3 47 0 55 1 79 3 53 2 -26 2 -71 0 -100z"/>
<path d="M1228 7159 c-16 -9 -18 -26 -18 -134 0 -69 3 -125 8 -125 4 0 15 7
25 14 14 11 17 31 17 135 0 66 -3 121 -7 121 -5 0 -16 -5 -25 -11z m-1 -171
c-2 -29 -3 -6 -3 52 0 58 1 81 3 53 2 -29 2 -77 0 -105z"/>
<path d="M1292 6771 c-22 -16 -23 -23 -21 -130 1 -61 6 -114 11 -117 4 -3 17
0 28 6 18 10 20 21 20 130 0 65 -4 121 -8 124 -4 2 -18 -3 -30 -13z m5 -163
c-2 -29 -3 -8 -3 47 0 55 1 79 3 53 2 -26 2 -71 0 -100z"/>
<path d="M1228 6736 c-15 -11 -18 -31 -18 -135 0 -66 3 -121 6 -121 3 0 14 5
25 10 17 10 19 22 19 135 0 69 -3 125 -7 125 -5 0 -16 -7 -25 -14z m-1 -168
c-2 -29 -3 -6 -3 52 0 58 1 81 3 53 2 -29 2 -77 0 -105z"/>
<path d="M1286 6361 c-14 -15 -17 -38 -15 -130 1 -61 4 -113 8 -116 4 -2 17 3
29 11 20 14 22 23 22 135 0 126 -7 141 -44 100z m11 -153 c-2 -29 -3 -8 -3 47
0 55 1 79 3 53 2 -26 2 -71 0 -100z"/>
<path d="M1228 6329 c-16 -9 -18 -26 -18 -129 0 -66 4 -120 9 -120 38 0 41 10
41 136 0 68 -3 124 -7 124 -5 0 -16 -5 -25 -11z m-1 -161 c-2 -29 -3 -8 -3 47
0 55 1 79 3 53 2 -26 2 -71 0 -100z"/>
<path d="M1291 5944 c-21 -15 -22 -22 -20 -130 1 -63 6 -117 10 -120 5 -2 17
1 29 8 18 12 20 23 20 130 0 64 -4 119 -8 122 -5 3 -19 -2 -31 -10z m6 -166
c-2 -29 -3 -6 -3 52 0 58 1 81 3 53 2 -29 2 -77 0 -105z"/>
<path d="M1228 5909 c-16 -9 -18 -26 -18 -134 0 -69 3 -125 6 -125 3 0 14 5
25 10 17 10 19 22 19 135 0 69 -3 125 -7 125 -5 0 -16 -5 -25 -11z m-1 -171
c-2 -29 -3 -6 -3 52 0 58 1 81 3 53 2 -29 2 -77 0 -105z"/>
<path d="M1287 5519 c-16 -9 -18 -24 -16 -125 1 -63 6 -117 10 -120 5 -3 18 0
29 6 18 10 20 21 20 130 0 125 -3 132 -43 109z m10 -161 c-2 -29 -3 -8 -3 47
0 55 1 79 3 53 2 -26 2 -71 0 -100z"/>
<path d="M1223 5483 c-10 -3 -13 -39 -13 -129 0 -68 3 -124 6 -124 3 0 14 5
25 10 17 10 19 22 19 130 0 122 -2 128 -37 113z m4 -165 c-2 -29 -3 -8 -3 47
0 55 1 79 3 53 2 -26 2 -71 0 -100z"/>
<path d="M1286 5091 c-15 -16 -17 -37 -15 -130 1 -62 5 -114 9 -116 4 -2 16 3
28 11 20 14 22 23 22 135 0 126 -7 141 -44 100z m11 -153 c-2 -29 -3 -8 -3 47
0 55 1 79 3 53 2 -26 2 -71 0 -100z"/>
<path d="M1222 5058 c-18 -18 -17 -248 1 -248 31 0 37 25 37 142 0 120 -6 138
-38 106z m5 -160 c-2 -29 -3 -8 -3 47 0 55 1 79 3 53 2 -26 2 -71 0 -100z"/>
<path d="M1292 4674 c-22 -15 -23 -21 -21 -130 1 -63 6 -117 10 -120 5 -2 17
1 29 8 18 12 20 23 20 135 0 68 -3 123 -8 123 -4 0 -18 -7 -30 -16z m5 -166
c-2 -29 -3 -6 -3 52 0 58 1 81 3 53 2 -29 2 -77 0 -105z"/>
<path d="M1228 4639 c-16 -9 -18 -26 -18 -134 0 -69 3 -125 8 -125 4 0 15 7
25 14 14 11 17 31 17 135 0 66 -3 121 -7 121 -5 0 -16 -5 -25 -11z m-1 -171
c-2 -29 -3 -6 -3 52 0 58 1 81 3 53 2 -29 2 -77 0 -105z"/>
<path d="M1287 4249 c-16 -9 -18 -24 -16 -125 1 -63 6 -117 10 -120 5 -3 18 0
29 6 18 10 20 21 20 130 0 125 -3 132 -43 109z m10 -161 c-2 -29 -3 -8 -3 47
0 55 1 79 3 53 2 -26 2 -71 0 -100z"/>
<path d="M1233 4217 c-22 -10 -23 -15 -23 -134 0 -67 4 -123 8 -123 5 0 16 6
25 13 15 11 17 28 15 133 l-3 121 -22 -10z m-6 -169 c-2 -29 -3 -8 -3 47 0 55
1 79 3 53 2 -26 2 -71 0 -100z"/>
<path d="M1292 3814 c-22 -15 -23 -21 -21 -130 1 -63 6 -117 11 -120 5 -3 18
2 29 12 17 15 19 31 19 136 0 65 -3 118 -8 118 -4 0 -18 -7 -30 -16z m5 -156
c-2 -29 -3 -8 -3 47 0 55 1 79 3 53 2 -26 2 -71 0 -100z"/>
<path d="M1228 3779 c-16 -9 -18 -26 -18 -134 0 -69 3 -125 8 -125 4 0 15 7
25 14 14 11 17 31 17 135 0 66 -3 121 -7 121 -5 0 -16 -5 -25 -11z m-1 -171
c-2 -29 -3 -6 -3 52 0 58 1 81 3 53 2 -29 2 -77 0 -105z"/>
<path d="M1292 3391 c-22 -16 -23 -23 -21 -130 1 -61 6 -114 11 -117 4 -3 17
0 28 6 18 10 20 21 20 130 0 65 -4 121 -8 124 -4 2 -18 -3 -30 -13z m5 -163
c-2 -29 -3 -8 -3 47 0 55 1 79 3 53 2 -26 2 -71 0 -100z"/>
<path d="M1228 3356 c-15 -11 -18 -31 -18 -135 0 -66 3 -121 6 -121 3 0 14 5
25 10 17 10 19 22 19 135 0 69 -3 125 -7 125 -5 0 -16 -7 -25 -14z m-1 -168
c-2 -29 -3 -6 -3 52 0 58 1 81 3 53 2 -29 2 -77 0 -105z"/>
<path d="M1286 2961 c-14 -15 -17 -38 -15 -130 1 -61 4 -113 8 -116 4 -2 17 3
29 11 20 14 22 23 22 135 0 126 -7 141 -44 100z m11 -153 c-2 -29 -3 -8 -3 47
0 55 1 79 3 53 2 -26 2 -71 0 -100z"/>
<path d="M1222 2928 c-18 -18 -17 -248 1 -248 31 0 37 25 37 142 0 120 -6 138
-38 106z m5 -160 c-2 -29 -3 -8 -3 47 0 55 1 79 3 53 2 -26 2 -71 0 -100z"/>
<path d="M1292 2541 c-22 -16 -23 -23 -21 -130 1 -61 6 -114 11 -117 4 -3 17
0 28 6 18 10 20 21 20 130 0 65 -4 121 -8 124 -4 2 -18 -3 -30 -13z m5 -163
c-2 -29 -3 -8 -3 47 0 55 1 79 3 53 2 -26 2 -71 0 -100z"/>
<path d="M1228 2506 c-15 -11 -18 -31 -18 -135 0 -66 3 -121 6 -121 3 0 14 5
25 10 17 10 19 22 19 135 0 69 -3 125 -7 125 -5 0 -16 -7 -25 -14z m-1 -168
c-2 -29 -3 -6 -3 52 0 58 1 81 3 53 2 -29 2 -77 0 -105z"/>
<path d="M1286 2111 c-14 -15 -17 -38 -15 -130 1 -61 4 -113 8 -116 4 -2 17 3
29 11 20 14 22 23 22 135 0 126 -7 141 -44 100z m11 -153 c-2 -29 -3 -8 -3 47
0 55 1 79 3 53 2 -26 2 -71 0 -100z"/>
<path d="M1222 2078 c-18 -18 -17 -248 1 -248 31 0 37 25 37 142 0 120 -6 138
-38 106z m5 -160 c-2 -29 -3 -8 -3 47 0 55 1 79 3 53 2 -26 2 -71 0 -100z"/>
<path d="M1291 1694 c-21 -15 -22 -22 -20 -130 1 -63 6 -117 10 -120 5 -2 17
1 29 8 18 12 20 23 20 130 0 64 -4 119 -8 122 -5 3 -19 -2 -31 -10z m6 -166
c-2 -29 -3 -6 -3 52 0 58 1 81 3 53 2 -29 2 -77 0 -105z"/>
<path d="M1228 1659 c-16 -9 -18 -26 -18 -134 0 -69 3 -125 8 -125 4 0 15 7
25 14 14 11 17 31 17 135 0 66 -3 121 -7 121 -5 0 -16 -5 -25 -11z m-1 -171
c-2 -29 -3 -6 -3 52 0 58 1 81 3 53 2 -29 2 -77 0 -105z"/>
<path d="M1291 1254 c-21 -15 -22 -21 -20 -128 1 -61 4 -114 6 -118 2 -4 15
-2 28 4 25 11 25 13 25 135 0 67 -3 123 -8 123 -4 0 -18 -7 -31 -16z m6 -156
c-2 -29 -3 -8 -3 47 0 55 1 79 3 53 2 -26 2 -71 0 -100z"/>
<path d="M1228 1219 c-16 -9 -18 -26 -18 -134 0 -69 3 -125 8 -125 4 0 15 7
25 14 14 11 17 31 17 135 0 66 -3 121 -7 121 -5 0 -16 -5 -25 -11z m-1 -171
c-2 -29 -3 -6 -3 52 0 58 1 81 3 53 2 -29 2 -77 0 -105z"/>
<path d="M1292 831 c-22 -16 -23 -23 -21 -130 1 -61 6 -114 11 -117 4 -3 17 0
28 6 18 10 20 21 20 130 0 65 -4 121 -8 124 -4 2 -18 -3 -30 -13z m5 -163 c-2
-29 -3 -8 -3 47 0 55 1 79 3 53 2 -26 2 -71 0 -100z"/>
<path d="M1228 796 c-15 -11 -18 -31 -18 -135 0 -66 3 -121 6 -121 3 0 14 5
25 10 17 10 19 22 19 135 0 69 -3 125 -7 125 -5 0 -16 -7 -25 -14z m-1 -168
c-2 -29 -3 -6 -3 52 0 58 1 81 3 53 2 -29 2 -77 0 -105z"/>
<path d="M3155 8128 c-23 -55 -23 -159 0 -215 20 -51 40 -58 28 -10 -4 17 -8
70 -8 117 0 47 4 100 8 118 12 47 -7 40 -28 -10z"/>
<path d="M3248 8135 c-16 -18 -28 -40 -28 -49 0 -15 2 -15 25 0 l25 16 0 -81
c0 -65 3 -81 15 -81 12 0 15 19 15 115 0 128 -6 137 -52 80z"/>
<path d="M3355 8148 c14 -46 17 -178 6 -224 -20 -80 8 -70 30 11 16 58 13 144
-6 193 -18 43 -43 60 -30 20z"/>
<path d="M2947 7878 c-49 -16 -86 -32 -84 -34 4 -4 177 53 185 61 10 9 -13 3
-101 -27z"/>
<path d="M2732 7803 c-57 -19 -102 -37 -99 -39 4 -4 207 62 215 71 10 10 -13
3 -116 -32z"/>
<path d="M2502 7723 c-57 -19 -102 -37 -99 -39 4 -4 207 62 215 71 10 10 -13
3 -116 -32z"/>
<path d="M2272 7643 c-57 -19 -102 -37 -99 -39 4 -4 207 62 215 71 10 10 -13
3 -116 -32z"/>
<path d="M2042 7563 c-57 -19 -102 -37 -99 -39 4 -4 207 62 215 71 10 10 -13
3 -116 -32z"/>
<path d="M1812 7483 c-57 -19 -102 -37 -99 -39 4 -4 207 62 215 71 10 10 -13
3 -116 -32z"/>
<path d="M1582 7403 c-57 -19 -102 -37 -99 -39 4 -4 207 62 215 71 10 10 -13
3 -116 -32z"/>
</g>
</svg>
