<?xml version="1.0" standalone="no"?>
<!DOCTYPE svg PUBLIC "-//W3C//DTD SVG 20010904//EN"
 "http://www.w3.org/TR/2001/REC-SVG-20010904/DTD/svg10.dtd">
<svg version="1.0" xmlns="http://www.w3.org/2000/svg"
 width="685.000000pt" height="534.000000pt" viewBox="0 0 685.000000 534.000000"
 preserveAspectRatio="xMidYMid meet">

<g transform="translate(0.000000,534.000000) scale(0.100000,-0.100000)"
fill="#000000" stroke="none">
<path d="M6157 5082 c-15 -17 -17 -62 -17 -443 l0 -424 -926 -530 c-509 -291
-937 -534 -952 -540 -15 -5 -31 -15 -37 -21 -14 -15 -1080 -624 -1093 -624 -6
0 -12 -4 -14 -8 -4 -10 -1092 -632 -1106 -632 -6 0 -12 -4 -14 -8 -4 -11 -481
-282 -496 -282 -6 0 -12 -3 -12 -8 0 -4 -21 -19 -47 -32 -27 -14 -50 -27 -53
-30 -12 -13 -82 -50 -95 -50 -7 0 -15 -4 -17 -9 -4 -12 -369 -221 -385 -221
-6 0 -13 -4 -15 -8 -5 -13 -74 -52 -92 -52 -9 0 -16 -4 -16 -9 0 -8 -120 -81
-134 -81 -3 0 -6 124 -6 275 0 193 -3 275 -11 275 -6 0 -25 10 -41 22 l-31 21
-19 -26 c-16 -22 -23 -25 -39 -16 -25 13 -59 67 -59 94 -1 27 -65 58 -92 44
-17 -9 -18 -36 -16 -666 l3 -657 34 -23 c19 -13 41 -21 48 -19 9 4 13 -4 13
-24 0 -80 69 -144 99 -92 9 15 10 15 11 -5 0 -39 52 -25 100 26 14 14 257 159
540 321 283 161 517 297 520 300 3 4 13 9 22 13 33 12 473 269 476 278 2 5 9
9 17 9 17 0 589 327 593 340 2 5 10 10 18 10 14 0 483 265 494 279 3 3 18 12
33 19 54 24 2182 1245 2193 1258 6 8 16 14 23 14 6 0 197 106 424 236 292 168
420 236 440 235 15 -1 40 5 55 13 24 12 29 24 40 84 8 52 9 78 1 102 -8 20 -9
78 -5 168 4 75 6 152 6 170 -2 58 -4 296 -3 352 1 30 1 116 1 190 -1 74 1 160
3 190 6 104 -53 174 -98 116 -14 -17 -24 -22 -34 -15 -10 6 -20 2 -35 -16 -13
-17 -26 -24 -37 -19 -20 7 -57 65 -57 87 0 14 -64 67 -81 67 -3 0 -13 -8 -22
-18z m39 -30 c11 -9 29 -36 39 -60 19 -44 60 -82 88 -82 9 0 22 9 30 21 13 17
19 19 36 10 21 -12 21 -16 21 -431 0 -287 -3 -420 -10 -420 -25 0 -70 32 -82
57 -11 22 -20 28 -48 29 -36 0 -72 15 -102 42 -17 14 -18 47 -18 427 0 226 3
415 7 418 10 10 16 8 39 -11z m58 -49 c9 -18 14 -33 12 -33 -6 0 -36 55 -36
66 0 11 5 3 24 -33z m197 -37 c-27 -12 -38 -1 -21 19 10 12 16 13 27 3 13 -11
12 -14 -6 -22z m49 -664 c0 -636 0 -647 -20 -660 -20 -12 -20 -10 -20 642 0
660 0 662 33 665 4 1 7 -290 7 -647z m-50 -28 c0 -566 -2 -644 -15 -644 -13 0
-15 79 -15 650 0 573 2 649 15 644 13 -5 15 -87 15 -650z m-178 -135 c96 -54
107 -63 91 -73 -10 -7 -375 -216 -811 -466 -436 -249 -790 -455 -787 -458 4
-4 1524 859 1613 916 12 8 22 10 22 5 0 -5 -357 -214 -794 -464 -437 -250
-791 -455 -786 -457 4 -2 354 194 777 436 422 241 778 444 791 451 21 11 22
10 22 -22 l0 -33 -716 -409 c-394 -226 -728 -414 -742 -420 -15 -5 -29 -13
-32 -17 -10 -13 -1092 -628 -1105 -628 -7 0 -15 -4 -17 -10 -3 -9 -1007 -585
-1078 -619 -19 -9 -37 -19 -40 -22 -11 -13 -483 -279 -495 -279 -7 0 -15 -4
-17 -9 -1 -6 -132 -83 -289 -173 -165 -94 -285 -168 -283 -176 1 -7 0 -8 -3
-2 -5 12 -33 14 -33 3 0 -11 -100 -66 -100 -56 0 4 -4 2 -9 -6 -5 -7 -89 -59
-188 -115 -104 -58 -179 -106 -177 -114 1 -7 0 -8 -3 -2 -5 12 -33 14 -33 2 0
-4 -16 -16 -35 -26 -19 -11 -35 -25 -35 -32 0 -7 -4 -16 -10 -19 -6 -3 -7 1
-4 9 4 11 0 16 -10 16 -9 0 -16 -4 -16 -9 0 -7 -264 -164 -302 -179 -4 -2 -8
10 -8 26 0 27 8 35 103 88 56 31 104 60 107 63 3 3 26 17 53 30 46 23 57 36
37 43 -5 2 74 50 175 108 102 58 185 108 185 113 0 10 -28 9 -32 -2 -4 -12
-369 -221 -385 -221 -7 0 -13 -3 -13 -8 0 -4 -16 -16 -35 -26 -25 -13 -32 -22
-23 -27 7 -4 10 -10 8 -12 -18 -16 -172 -98 -176 -94 -3 3 29 24 70 47 73 40
93 60 61 60 -8 0 -15 -4 -15 -9 0 -8 -102 -71 -115 -71 -3 0 -5 56 -5 124 l0
124 93 53 c50 29 94 55 97 58 3 3 26 17 53 30 26 13 47 28 47 32 0 5 6 9 14 9
19 0 386 210 386 221 0 5 7 9 16 9 15 0 81 35 94 49 3 4 26 16 53 28 26 13 47
27 47 33 0 5 7 10 15 10 19 0 489 268 493 281 2 5 10 9 17 9 17 0 1099 618
1103 631 2 5 10 9 17 9 17 0 1099 618 1103 631 2 5 9 9 17 9 7 0 428 238 936
529 508 291 926 530 928 530 2 1 53 -27 113 -60z m138 -368 l0 -130 -439 -250
c-241 -138 -443 -251 -449 -251 -6 0 -12 -4 -14 -9 -3 -8 -2157 -1242 -2206
-1264 -15 -6 -29 -14 -32 -18 -11 -14 -480 -279 -494 -279 -8 0 -16 -5 -18
-10 -4 -13 -576 -340 -593 -340 -8 0 -15 -4 -17 -9 -4 -12 -473 -281 -489
-281 -7 0 -17 -6 -23 -14 -10 -13 -989 -576 -1001 -576 -3 0 -5 58 -5 129 l0
129 216 123 c119 67 222 128 229 136 8 7 18 13 24 13 13 0 85 42 89 52 2 4 8
8 14 8 17 0 488 272 488 281 0 5 6 9 14 9 18 0 590 327 594 340 2 5 10 10 18
10 18 0 488 268 492 281 2 5 10 9 17 9 14 0 1097 617 1105 629 3 5 12 10 20
12 16 4 1092 618 1100 628 3 3 30 18 60 34 30 15 332 187 670 381 338 195 618
354 623 355 4 0 7 -57 7 -128z m-6029 -2053 c11 -11 19 -29 19 -39 0 -10 13
-33 29 -52 29 -32 29 -34 10 -45 -15 -10 -19 -24 -19 -71 0 -91 61 -164 97
-115 11 15 13 -1 12 -107 -1 -68 -4 -113 -6 -100 -7 36 -55 83 -77 75 -13 -5
-17 -14 -12 -35 3 -16 1 -31 -4 -34 -6 -3 -10 -31 -10 -62 0 -59 18 -101 53
-123 18 -11 23 -10 39 10 18 22 18 19 17 -101 -1 -68 -4 -113 -8 -99 -5 19
-14 26 -41 28 -45 5 -60 -17 -60 -87 0 -90 60 -162 95 -114 13 16 14 3 15
-102 0 -103 -2 -116 -13 -95 -19 38 -56 37 -98 -3 -32 -32 -36 -33 -57 -19
l-22 14 0 649 c0 477 3 649 11 649 7 0 20 -10 30 -22z m58 -68 l23 -35 -26 30
c-14 17 -26 34 -26 39 0 11 0 11 29 -34z m126 -39 c3 -5 -3 -12 -14 -16 -12
-3 -22 -17 -24 -33 -4 -26 -4 -26 -6 4 -1 40 28 70 44 45z m-75 -72 c0 -19 -5
-29 -15 -29 -24 0 -19 -51 6 -57 12 -4 18 -11 15 -20 -3 -8 -6 -22 -6 -31 0
-14 -4 -13 -22 5 -16 17 -23 38 -26 82 -5 74 0 91 27 84 15 -4 21 -13 21 -34z
m110 -602 c0 -487 -3 -646 -12 -655 -37 -37 -37 -32 -37 637 0 694 -2 653 42
660 4 0 7 -288 7 -642z m-60 523 c0 -16 -4 -30 -9 -30 -4 0 -8 13 -7 30 1 39
16 39 16 0z m-80 -225 c0 -8 -2 -15 -4 -15 -2 0 -6 7 -10 15 -3 8 -1 15 4 15
6 0 10 -7 10 -15z m31 -73 c5 -26 4 -32 -9 -30 -24 4 -27 -33 -5 -51 14 -12
18 -23 14 -40 l-7 -25 -22 24 c-18 19 -22 36 -22 85 0 34 3 65 7 69 15 15 38
-1 44 -32z m49 -77 c0 -19 -4 -35 -8 -35 -5 0 -8 16 -8 35 1 46 16 46 16 0z
m370 -165 c0 -11 -80 -54 -87 -46 -3 3 11 13 31 22 20 10 36 21 36 26 0 4 5 8
10 8 6 0 10 -4 10 -10z m-434 -98 c6 -4 14 -21 17 -38 5 -28 4 -31 -13 -27
-16 4 -20 0 -20 -18 0 -13 9 -30 19 -36 13 -8 18 -19 14 -33 -15 -55 -53 6
-53 86 0 71 8 85 36 66z m64 -107 c0 -19 -4 -35 -8 -35 -4 0 -8 16 -8 35 0 19
4 35 8 35 4 0 8 -16 8 -35z m-63 -267 c6 -7 12 -25 15 -39 4 -22 1 -25 -14
-21 -25 6 -25 -39 1 -55 13 -8 18 -19 14 -33 -15 -55 -53 6 -53 86 0 72 13 93
37 62z m63 -103 c0 -19 -4 -35 -8 -35 -4 0 -8 16 -8 35 0 19 4 35 8 35 4 0 8
-16 8 -35z"/>
<path d="M6265 4849 c-12 -18 4 -57 26 -64 36 -12 45 25 16 63 -12 15 -33 16
-42 1z"/>
<path d="M6260 4574 c0 -27 20 -54 40 -54 26 0 32 13 20 44 -11 30 -60 38 -60
10z"/>
<path d="M4714 3127 c-6 -7 -250 -149 -543 -316 -343 -196 -527 -307 -519
-312 7 -4 10 -10 8 -12 -18 -16 -1101 -629 -1105 -625 -3 3 238 144 535 314
297 169 540 312 540 316 0 4 -7 8 -15 8 -8 0 -15 -4 -15 -8 0 -5 -243 -148
-540 -317 -323 -185 -535 -312 -528 -317 7 -4 10 -9 8 -11 -3 -3 -110 -65
-239 -138 -128 -73 -229 -135 -224 -136 11 -4 486 265 491 278 2 5 8 9 14 9
14 0 1102 622 1106 632 2 4 8 8 14 8 17 0 1098 621 1098 631 0 11 -17 12 -22
1 -4 -11 -1098 -635 -1104 -630 -2 3 239 144 536 314 297 170 540 312 540 317
0 11 -24 8 -36 -6z"/>
<path d="M2480 1851 c0 -9 -471 -281 -488 -281 -6 0 -12 -4 -14 -8 -1 -4 -132
-82 -290 -173 -160 -91 -281 -167 -275 -171 13 -8 12 -9 -33 -37 -19 -11 -29
-21 -21 -21 7 0 30 10 50 22 48 29 47 28 33 37 -7 4 101 71 276 171 158 90
290 168 294 174 4 6 10 7 15 3 9 -10 31 3 -295 -183 -150 -86 -271 -158 -268
-161 3 -3 133 67 288 156 338 192 316 179 301 189 -7 4 79 59 223 141 129 73
234 137 234 142 0 5 -7 9 -15 9 -8 0 -15 -4 -15 -9z"/>
<path d="M1370 1212 c0 -5 -16 -16 -36 -26 -20 -9 -34 -19 -31 -22 7 -8 87 35
87 46 0 6 -4 10 -10 10 -5 0 -10 -4 -10 -8z"/>
<path d="M1318 1152 c-1 -5 -85 -55 -186 -112 -101 -58 -179 -106 -174 -108
12 -4 382 208 382 219 0 11 -17 12 -22 1z"/>
<path d="M434 575 c-9 -21 24 -67 44 -63 24 5 27 36 6 59 -21 23 -42 25 -50 4z
m29 -25 c3 -11 3 -20 1 -20 -2 0 -8 9 -14 20 -6 11 -7 20 -2 20 6 0 12 -9 15
-20z"/>
</g>
</svg>
