<?xml version="1.0" standalone="no"?>
<!DOCTYPE svg PUBLIC "-//W3C//DTD SVG 20010904//EN"
 "http://www.w3.org/TR/2001/REC-SVG-20010904/DTD/svg10.dtd">
<svg version="1.0" xmlns="http://www.w3.org/2000/svg"
 width="535.000000pt" height="1166.000000pt" viewBox="0 0 535.000000 1166.000000"
 preserveAspectRatio="xMidYMid meet">

<g transform="translate(0.000000,1166.000000) scale(0.100000,-0.100000)"
fill="#000000" stroke="none">
<path d="M290 10582 l-65 -38 -5 -3549 -5 -3549 -64 -36 c-35 -20 -68 -46 -72
-58 -9 -23 -14 -19 248 -171 l73 -42 129 75 130 74 493 -284 c271 -156 500
-288 508 -293 8 -5 144 -85 303 -176 l287 -167 0 -98 c0 -90 -2 -99 -20 -105
-24 -7 -42 -37 -32 -52 4 -5 17 -15 30 -22 18 -10 20 -15 12 -31 -14 -27 -14
-27 33 -55 34 -19 57 -25 105 -25 57 0 68 4 181 70 l120 70 250 -144 c138 -79
253 -141 256 -137 2 5 -105 70 -238 147 -344 196 -409 235 -404 240 2 3 21 -5
41 -17 20 -12 39 -19 42 -16 3 3 -13 15 -35 28 -23 12 -41 26 -41 30 0 5 144
-75 321 -176 177 -102 325 -185 330 -185 39 0 -36 50 -321 214 -181 104 -328
191 -326 193 2 2 152 -81 332 -185 181 -105 331 -188 334 -185 3 3 -3 10 -12
16 -9 7 -25 18 -35 25 -10 7 9 -1 42 -19 63 -33 104 -63 48 -35 -18 9 -33 13
-33 8 0 -5 135 -86 300 -181 262 -150 303 -170 315 -157 13 12 -24 36 -288
188 -166 96 -309 178 -317 182 -8 3 -148 84 -310 179 l-295 173 -3 361 -2 361
-31 11 c-22 8 -31 7 -34 -2 -3 -7 -6 -165 -8 -352 l-2 -340 -3 353 c-1 226 -6
352 -12 352 -5 0 -10 -8 -10 -17 0 -9 -3 -13 -7 -10 -3 4 -12 2 -20 -4 -10 -9
-13 -6 -13 15 0 14 -4 26 -10 26 -7 0 -10 -173 -10 -500 0 -275 -3 -500 -6
-500 -3 0 -14 5 -25 10 -14 8 -18 17 -13 35 5 19 2 26 -12 31 -11 3 -27 10
-36 15 -13 6 -20 4 -27 -9 -5 -9 -13 -14 -17 -10 -4 4 -2 14 4 21 9 10 8 17 0
25 -18 18 -28 15 -28 -8 0 -18 -3 -19 -20 -10 -20 10 -20 21 -20 455 0 285 -4
445 -10 445 -6 0 -11 -99 -12 -264 l-3 -265 -242 141 c-134 77 -248 138 -254
136 -6 -2 104 -70 245 -152 141 -81 256 -150 256 -152 0 -6 -16 3 -260 144
-118 68 -226 130 -240 136 -14 6 -27 13 -30 17 -3 3 -287 170 -633 369 -345
200 -626 365 -624 366 3 3 281 -156 1127 -646 74 -43 139 -76 144 -73 5 3 -2
12 -15 19 -209 112 -1215 706 -1217 718 -5 22 -8 23 550 -33 271 -28 637 -64
813 -81 176 -17 335 -33 353 -36 l32 -5 0 -164 c0 -103 4 -165 10 -165 7 0 10
1050 10 3130 0 1722 3 3130 6 3130 3 0 48 -25 100 -55 l94 -56 0 -3069 0
-3070 30 0 c17 0 30 -4 30 -10 0 -5 4 -10 10 -10 6 0 11 64 13 158 l3 157 2
-157 c1 -97 6 -158 12 -158 6 0 11 26 11 58 1 31 4 47 6 34 2 -12 11 -22 19
-22 9 0 14 -11 14 -31 0 -16 -4 -28 -9 -25 -5 3 -14 0 -20 -8 -9 -11 -6 -15
14 -18 l25 -5 0 158 c0 134 2 159 15 159 8 0 81 -7 162 -15 138 -14 438 -43
668 -65 55 -5 147 -14 205 -20 281 -27 523 -50 595 -56 44 -4 90 -11 103 -15
l22 -9 -2 -642 -1 -643 21 -3 22 -3 0 3095 c0 1703 3 3096 8 3096 4 0 15 -7
25 -14 16 -13 17 -171 17 -3090 0 -3069 0 -3076 20 -3076 20 0 20 7 20 3068 0
2373 3 3071 12 3080 39 39 38 162 38 -3564 0 -3395 -1 -3577 -17 -3590 -10 -7
-21 -14 -25 -14 -5 0 -8 225 -8 499 0 446 -2 500 -16 505 -9 3 -18 6 -20 6 -2
0 -4 -215 -4 -477 0 -353 -3 -474 -11 -466 -6 6 -18 9 -25 6 -12 -4 -14 69
-14 462 l0 466 -22 -3 -22 -3 3 -282 c1 -156 0 -287 -3 -292 -3 -5 -122 58
-263 140 -225 129 -260 146 -272 134 -8 -8 -13 -16 -10 -18 2 -2 124 -72 272
-157 147 -84 267 -156 267 -160 0 -5 -261 143 -581 327 -394 228 -584 332
-591 325 -12 -12 -29 -2 311 -196 151 -87 280 -155 287 -152 8 3 14 -1 14 -8
0 -7 124 -84 275 -171 240 -137 300 -175 282 -175 -4 0 -485 275 -545 312 -17
11 -32 15 -32 10 0 -6 131 -85 290 -177 160 -92 290 -169 290 -171 0 -7 -18 3
-313 173 -148 85 -274 152 -280 150 -6 -2 47 -37 118 -78 503 -289 480 -275
480 -303 0 -23 -13 -35 -85 -79 -55 -34 -86 -60 -88 -72 -2 -16 29 -38 159
-113 l162 -93 118 68 c65 37 129 76 141 85 22 16 22 17 3 38 -10 11 -43 34
-72 51 l-53 30 0 424 c0 272 -4 426 -10 430 -7 4 -10 -151 -10 -459 0 -450 -1
-466 -19 -476 -11 -5 -22 -10 -25 -10 -3 0 -6 213 -6 474 0 370 -3 475 -13
479 -9 4 -9 6 1 6 9 1 12 628 12 3101 0 3054 0 3099 19 3110 11 5 22 10 25 10
3 0 6 -1399 6 -3110 0 -2067 3 -3110 10 -3110 7 0 10 1048 10 3125 l0 3125
-39 20 c-22 11 -42 24 -46 30 -8 14 -41 13 -65 -2 -16 -10 -25 -9 -51 6 -28
17 -33 17 -43 4 -6 -8 -17 -13 -23 -11 -15 5 -16 -1 -13 -84 1 -37 -3 -63 -9
-63 -9 0 -1645 936 -1723 986 l-38 24 0 138 0 137 -98 57 c-121 71 -126 73
-145 54 -9 -9 -21 -16 -27 -16 -6 0 -13 -7 -16 -15 -4 -8 -12 -15 -20 -15 -12
0 -38 -11 -64 -28 -2 -2 -7 -23 -10 -48 l-5 -44 -270 156 c-148 86 -405 234
-570 329 -165 95 -435 251 -600 347 l-300 174 -3 110 c-1 60 -7 113 -12 118
-6 6 -10 21 -10 36 0 20 -10 30 -53 53 -29 15 -57 27 -62 27 -6 0 -39 -17 -75
-38z m78 -39 c-3 -41 -6 -48 -25 -51 -21 -3 -23 1 -23 37 0 28 5 43 18 50 29
17 33 13 30 -36z m58 22 c18 -14 18 -16 2 -26 -10 -5 -18 -17 -18 -25 0 -8 -4
-12 -10 -9 -12 7 -14 75 -2 75 5 0 17 -7 28 -15z m-136 -30 c0 -8 -7 -15 -15
-15 -26 0 -18 20 13 29 1 1 2 -6 2 -14z m10 -3616 c0 -2846 -3 -3559 -12
-3552 -7 4 -17 8 -23 8 -10 0 -20 7086 -10 7113 3 10 10 10 25 2 20 -11 20
-12 20 -3571z m160 3559 c0 -6 -6 -5 -15 2 -8 7 -15 14 -15 16 0 2 7 1 15 -2
8 -4 15 -11 15 -16z m-40 -39 c0 -19 -5 -29 -15 -29 -15 0 -22 50 -9 63 12 12
24 -4 24 -34z m-70 -3740 c8 37 30 38 30 2 0 -24 -4 -31 -20 -31 -18 0 -20 -6
-19 -77 1 -43 4 -68 6 -56 2 12 11 24 19 27 10 4 14 -3 14 -24 0 -23 -4 -30
-20 -30 -20 0 -20 -7 -20 -1605 0 -1063 -3 -1605 -10 -1605 -12 0 -14 7142 -2
7154 4 4 9 -844 12 -1886 3 -1041 7 -1882 10 -1869z m30 3691 c0 -20 -5 -30
-15 -30 -15 0 -21 40 -8 53 14 15 23 6 23 -23z m35 -83 c0 -79 -19 -77 -23 2
-2 48 0 62 10 59 9 -3 13 -24 13 -61z m380 -219 c462 -269 460 -268 973 -564
266 -153 479 -280 472 -282 -8 -3 -7 -8 2 -20 18 -21 36 -31 -487 270 -957
552 -1278 739 -1290 750 -16 17 25 -6 360 -200 523 -302 858 -494 874 -500 44
-15 -29 31 -299 185 -531 305 -925 535 -935 545 -15 16 2 6 330 -184z m-415
142 c0 -20 -5 -30 -15 -30 -15 0 -21 40 -8 53 14 15 23 6 23 -23z m38 -83 c2
-46 0 -57 -13 -57 -12 0 -15 13 -15 61 0 81 24 77 28 -4z m392 -142 c179 -103
487 -281 685 -394 644 -370 755 -435 755 -443 0 -4 -71 34 -157 84 -87 50
-340 195 -563 323 -968 555 -1116 642 -1060 623 9 -3 162 -90 340 -193z m-45
-8 c143 -82 316 -182 385 -222 69 -40 232 -134 363 -209 611 -351 713 -410
727 -424 13 -13 12 -13 -10 -2 -21 11 -588 337 -1025 590 -546 316 -731 424
-740 432 -16 16 22 -5 300 -165z m48 -61 c155 -90 325 -188 377 -218 52 -31
312 -181 578 -334 l482 -278 0 -608 c0 -586 -1 -608 -19 -608 -18 0 -692 66
-1372 135 -191 19 -350 35 -353 35 -3 0 -6 462 -6 1026 0 929 1 1026 16 1020
8 -3 142 -80 297 -170z m-433 134 c0 -20 -5 -30 -15 -30 -15 0 -21 40 -8 53
14 15 23 6 23 -23z m38 -83 c2 -46 0 -57 -13 -57 -12 0 -15 13 -15 61 0 81 24
77 28 -4z m-38 -77 c0 -20 -5 -30 -15 -30 -15 0 -21 40 -8 53 14 15 23 6 23
-23z m38 -83 c2 -46 0 -57 -13 -57 -12 0 -15 13 -15 61 0 81 24 77 28 -4z
m-38 -77 c0 -20 -5 -30 -15 -30 -15 0 -21 40 -8 53 14 15 23 6 23 -23z m38
-83 c2 -46 0 -57 -13 -57 -12 0 -15 13 -15 61 0 81 24 77 28 -4z m-38 -77 c0
-20 -5 -30 -15 -30 -29 0 -18 50 13 59 1 1 2 -12 2 -29z m38 -83 c2 -46 0 -57
-13 -57 -12 0 -15 13 -15 61 0 81 24 77 28 -4z m-38 -77 c0 -20 -5 -30 -15
-30 -29 0 -18 50 13 59 1 1 2 -12 2 -29z m38 -88 c2 -52 1 -61 -13 -56 -20 8
-23 128 -2 122 7 -3 13 -28 15 -66z m2099 17 c46 -28 83 -53 81 -55 -3 -2 -26
-5 -54 -7 -43 -3 -49 -6 -46 -24 4 -30 -12 -36 -47 -16 -30 17 -31 21 -31 86
0 37 3 67 6 67 3 0 44 -23 91 -51z m-150 -31 c-2 -13 -4 -5 -4 17 -1 22 1 32
4 23 2 -10 2 -28 0 -40z m30 -15 c-3 -10 -5 -4 -5 12 0 17 2 24 5 18 2 -7 2
-21 0 -30z m-2017 -43 c0 -20 -5 -30 -15 -30 -29 0 -18 50 13 59 1 1 2 -12 2
-29z m2177 -137 c-2 -27 -3 -5 -3 47 0 52 1 74 3 48 2 -27 2 -69 0 -95z m51
95 c7 1 12 -10 12 -27 0 -20 -6 -30 -20 -34 -18 -5 -20 0 -19 51 1 42 3 50 8
32 4 -14 13 -24 19 -22z m-2190 -41 c2 -46 0 -57 -13 -57 -12 0 -15 13 -15 61
0 81 24 77 28 -4z m2112 -36 c0 -20 -6 -30 -20 -34 -17 -4 -20 0 -20 23 0 19
6 30 18 33 9 3 18 5 20 6 1 0 2 -12 2 -28z m-2150 -41 c0 -20 -5 -30 -15 -30
-29 0 -18 50 13 59 1 1 2 -12 2 -29z m40 -91 c0 -81 -24 -77 -28 4 -2 46 0 57
13 57 12 0 15 -13 15 -61z m3082 -494 c488 -280 885 -511 883 -513 -3 -3 -176
95 -1158 660 -191 110 -350 198 -353 196 -3 -3 337 -203 756 -444 418 -241
760 -442 760 -447 0 -5 -15 0 -32 11 -18 11 -429 248 -913 527 -484 279 -884
512 -890 518 -7 7 -4 8 8 3 9 -3 25 -8 35 -11 15 -5 15 -5 -1 7 -98 69 -118
80 905 -507z m-972 466 c0 -20 -6 -30 -20 -34 -17 -4 -20 0 -20 23 0 19 6 30
18 33 9 3 18 5 20 6 1 0 2 -12 2 -28z m916 -506 c992 -572 947 -546 940 -552
-3 -3 -1194 677 -1714 979 -57 33 -105 58 -108 55 -3 -2 127 -81 288 -174 161
-93 573 -330 915 -528 343 -197 621 -360 619 -362 -2 -2 -416 233 -920 523
-578 332 -915 532 -912 539 2 7 -1 18 -7 25 -9 10 -9 12 4 8 8 -3 411 -234
895 -513z m-3066 465 c0 -20 -5 -30 -15 -30 -29 0 -18 50 13 59 1 1 2 -12 2
-29z m2177 -822 c-1 -150 -2 -30 -2 267 0 297 1 420 2 273 2 -147 2 -390 0
-540z m-2137 731 c0 -81 -24 -77 -28 4 -2 46 0 57 13 57 12 0 15 -13 15 -61z
m2188 39 c18 -18 14 -45 -8 -51 -17 -4 -20 0 -20 29 0 36 8 42 28 22z m917
-526 l870 -500 1 -96 c0 -90 -1 -96 -20 -96 -12 0 -264 25 -561 55 -750 75
-726 73 -958 95 -115 11 -212 22 -218 25 -5 4 -9 210 -9 517 0 404 3 509 13
505 6 -3 404 -230 882 -505z m-995 459 c0 -20 -6 -30 -20 -34 -17 -4 -20 0
-20 23 0 19 6 30 18 33 9 3 18 5 20 6 1 0 2 -12 2 -28z m-2162 -72 c-9 -6 -14
-1 -16 18 -2 14 2 30 10 34 9 6 14 1 16 -18 2 -14 -2 -30 -10 -34z m2238 -16
c22 -8 17 -50 -6 -56 -18 -5 -20 -1 -19 51 1 32 4 47 6 34 3 -13 11 -26 19
-29z m-2186 -45 c0 -43 -3 -59 -12 -56 -8 3 -14 28 -16 66 -2 52 -1 61 13 56
11 -5 15 -21 15 -66z m2110 -27 c0 -20 -6 -30 -20 -34 -17 -4 -20 0 -20 23 0
19 6 30 18 33 9 3 18 5 20 6 1 0 2 -12 2 -28z m-2150 -44 c0 -23 -5 -34 -15
-34 -10 0 -15 10 -15 28 0 23 6 31 28 38 1 1 2 -14 2 -32z m2228 -39 c7 1 12
-10 12 -27 0 -20 -6 -30 -20 -34 -18 -5 -20 0 -19 51 1 42 3 50 8 32 4 -14 13
-24 19 -22z m-2188 -48 c0 -47 -3 -60 -15 -60 -12 0 -15 13 -15 60 0 47 3 60
15 60 12 0 15 -13 15 -60z m2110 -28 c0 -16 -8 -32 -20 -40 -19 -11 -20 -10
-20 22 0 24 5 36 18 39 9 3 18 5 20 6 1 0 2 -11 2 -27z m-2162 -73 c-9 -6 -14
-1 -16 18 -2 14 2 30 10 34 9 6 14 1 16 -18 2 -14 -2 -30 -10 -34z m2240 -11
c7 1 12 -10 12 -27 0 -20 -6 -30 -20 -34 -18 -5 -20 0 -19 51 1 42 3 50 8 32
4 -14 13 -24 19 -22z m-2188 -49 c0 -46 -3 -59 -15 -59 -12 0 -15 14 -15 65 0
53 3 63 15 59 11 -5 15 -22 15 -65z m2110 -36 c0 -20 -3 -33 -7 -30 -3 4 -12
2 -20 -4 -10 -9 -13 -5 -13 24 0 25 5 37 18 40 9 3 18 5 20 6 1 0 2 -15 2 -36z
m-2162 -64 c-9 -6 -14 -1 -16 18 -2 14 2 30 10 34 9 6 14 1 16 -18 2 -14 -2
-30 -10 -34z m2240 -11 c7 1 12 -10 12 -27 0 -20 -6 -30 -20 -34 -18 -5 -20 0
-19 51 1 42 3 50 8 32 4 -14 13 -24 19 -22z m-2188 -49 c0 -46 -3 -59 -15 -59
-12 0 -15 14 -15 65 0 53 3 63 15 59 11 -5 15 -22 15 -65z m2110 -27 c0 -16
-8 -32 -20 -40 -19 -11 -20 -10 -20 22 0 24 5 36 18 39 9 3 18 5 20 6 1 0 2
-11 2 -27z m-2162 -73 c-9 -6 -14 -1 -16 18 -2 14 2 30 10 34 9 6 14 1 16 -18
2 -14 -2 -30 -10 -34z m4119 10 c1 -24 0 -26 -4 -9 -3 14 -10 31 -16 39 -10
11 -9 13 3 9 9 -3 16 -18 17 -39z m128 15 c17 -13 18 -16 5 -24 -26 -16 -40
-11 -40 15 0 29 7 30 35 9z m-2009 -44 c8 0 14 -10 14 -25 0 -15 -6 -25 -14
-25 -8 0 -17 -6 -19 -12 -3 -7 -5 16 -5 52 1 36 3 53 5 38 2 -16 11 -28 19
-28z m1834 40 c0 -5 -4 -10 -10 -10 -5 0 -10 5 -10 10 0 6 5 10 10 10 6 0 10
-4 10 -10z m80 -31 c0 -24 -4 -38 -10 -34 -5 3 -10 22 -10 41 0 19 5 34 10 34
6 0 10 -18 10 -41z m-4100 -55 c0 -41 -4 -54 -15 -54 -12 0 -15 14 -15 66 0
58 2 65 15 54 10 -8 15 -31 15 -66z m4130 42 c0 -8 -4 -18 -10 -21 -5 -3 -10
3 -10 14 0 12 5 21 10 21 6 0 10 -6 10 -14z m-2020 -64 c0 -16 -8 -32 -20 -40
-19 -11 -20 -10 -20 22 0 24 5 36 18 39 9 3 18 5 20 6 1 0 2 -11 2 -27z
m-2150 -46 c0 -13 -7 -26 -15 -30 -11 -4 -15 2 -15 24 0 20 5 30 15 30 9 0 15
-9 15 -24z m545 -36 c1041 -103 1311 -130 1318 -130 4 0 7 -7 7 -15 0 -8 -8
-15 -19 -15 -10 0 -196 18 -412 39 -217 22 -611 61 -876 87 -434 43 -483 50
-483 65 0 14 7 17 33 13 17 -2 212 -22 432 -44z m1681 -10 c21 0 17 -43 -6
-58 -19 -12 -20 -10 -19 50 1 35 4 51 6 36 2 -16 11 -28 19 -28z m-2186 -46
c0 -41 -4 -54 -15 -54 -12 0 -15 14 -15 66 0 58 2 65 15 54 10 -8 15 -31 15
-66z m1000 -78 l825 -81 3 -437 2 -437 -157 91 c-278 160 -790 456 -1078 623
-154 89 -333 193 -397 230 -83 47 -118 73 -118 86 0 16 6 17 48 13 26 -3 418
-43 872 -88z m1110 56 c0 -16 -8 -32 -20 -40 -19 -11 -20 -10 -20 22 0 24 5
36 18 39 9 3 18 5 20 6 1 0 2 -11 2 -27z m-1773 -168 c656 -380 863 -499 1158
-669 171 -98 317 -185 325 -193 8 -8 0 -6 -20 5 -19 12 -111 65 -205 119 -406
233 -1549 896 -1554 900 -21 19 50 -20 296 -162z m-377 122 c0 -13 -7 -26 -15
-30 -11 -4 -15 2 -15 24 0 20 5 30 15 30 9 0 15 -9 15 -24z m420 -176 c173
-101 432 -250 575 -333 143 -83 373 -215 510 -295 138 -79 274 -158 302 -174
29 -16 55 -34 58 -39 6 -8 -125 67 -880 503 -662 382 -900 521 -905 526 -15
16 54 -22 340 -188z m-382 87 c2 -46 0 -57 -13 -57 -12 0 -15 13 -15 61 0 81
24 77 28 -4z m527 -217 c231 -133 530 -307 665 -385 135 -78 334 -193 443
-255 177 -103 231 -140 180 -124 -16 5 -15 3 1 -10 54 -44 -16 -7 -299 157
-170 98 -425 245 -565 326 -655 378 -908 526 -905 530 2 2 115 -61 252 -140
136 -79 403 -233 593 -342 640 -369 711 -409 716 -404 3 3 -77 52 -178 110
-192 110 -602 347 -1095 633 -161 93 -293 173 -293 177 0 5 15 0 33 -11 17
-11 221 -128 452 -262z m1725 255 c36 -3 130 -12 210 -20 80 -8 186 -17 235
-20 50 -3 122 -10 160 -15 39 -6 304 -33 590 -60 286 -28 524 -55 529 -60 21
-21 -11 -27 -89 -19 -44 5 -260 27 -480 49 -220 22 -456 47 -525 55 -69 7
-159 17 -200 20 -207 18 -540 54 -550 60 -19 11 1 26 28 21 15 -3 56 -8 92
-11z m-140 -68 c0 -12 -9 -28 -20 -35 -19 -11 -20 -10 -20 23 0 28 4 35 20 35
14 0 20 -7 20 -23z m-1680 -197 c129 -76 357 -207 505 -293 597 -344 880 -508
887 -515 5 -5 7 -198 6 -430 l-3 -421 -195 206 c-107 113 -235 249 -284 302
-49 53 -219 231 -376 396 -503 525 -890 937 -890 947 0 11 17 1 350 -192z
m-43 -167 c186 -197 433 -457 548 -577 116 -121 246 -258 289 -305 43 -47 120
-129 170 -181 284 -296 438 -461 434 -465 -3 -3 -137 135 -299 307 -162 172
-402 425 -534 563 -132 138 -312 327 -400 420 -87 94 -234 249 -326 345 -174
183 -234 250 -226 250 3 0 157 -161 344 -357z m1750 -410 c-1 -142 -2 -26 -2
257 0 283 1 399 2 258 2 -142 2 -374 0 -515z m-2177 733 c0 -13 -7 -26 -15
-30 -11 -4 -15 2 -15 24 0 20 5 30 15 30 9 0 15 -9 15 -24z m2509 4 c113 -10
253 -23 311 -29 58 -5 222 -21 365 -36 143 -14 388 -38 545 -53 l285 -27 1
-948 c0 -521 -4 -947 -8 -947 -8 0 -710 403 -863 495 -38 23 -99 58 -135 78
-36 19 -220 125 -410 235 l-345 200 -3 526 -2 526 27 0 c14 0 119 -9 232 -20z
m-283 -50 c21 0 17 -43 -6 -58 -19 -12 -20 -10 -19 45 1 32 4 48 6 36 2 -13
11 -23 19 -23z m-2188 -43 c2 -46 0 -57 -13 -57 -12 0 -15 13 -15 61 0 81 24
77 28 -4z m377 -307 c154 -162 308 -326 344 -365 37 -38 170 -178 296 -310
127 -132 260 -271 296 -310 58 -63 363 -387 478 -507 25 -26 42 -50 40 -53 -3
-3 -138 135 -300 307 -162 172 -427 452 -590 623 -574 601 -899 948 -899 959
0 6 13 -3 29 -19 15 -17 153 -163 306 -325z m1735 277 c0 -12 -9 -28 -20 -35
-19 -11 -20 -10 -20 23 0 28 4 35 20 35 14 0 20 -7 20 -23z m-2150 -41 c0 -13
-7 -26 -15 -30 -11 -4 -15 2 -15 24 0 20 5 30 15 30 9 0 15 -9 15 -24z m511
-411 c155 -165 400 -424 544 -575 144 -151 386 -406 538 -567 l277 -292 0
-1050 0 -1051 -32 0 c-29 0 -267 23 -938 90 -162 16 -389 39 -505 50 -116 11
-225 23 -243 26 l-32 5 0 1887 0 1887 54 -55 c29 -30 181 -190 337 -355z
m1715 365 c21 0 17 -43 -6 -58 -19 -12 -20 -10 -19 45 1 32 4 48 6 36 2 -13
11 -23 19 -23z m-2188 -43 c2 -46 0 -57 -13 -57 -12 0 -15 13 -15 61 0 81 24
77 28 -4z m2112 -30 c0 -12 -9 -28 -20 -35 -19 -11 -20 -10 -20 23 0 28 4 35
20 35 14 0 20 -7 20 -23z m-2150 -47 c0 -20 -5 -30 -15 -30 -15 0 -21 40 -8
53 14 15 23 6 23 -23z m2226 -40 c21 0 17 -43 -6 -58 -19 -12 -20 -10 -19 45
1 32 4 48 6 36 2 -13 11 -23 19 -23z m-2188 -43 c2 -46 0 -57 -13 -57 -12 0
-15 13 -15 61 0 81 24 77 28 -4z m2112 -30 c0 -12 -9 -28 -20 -35 -19 -11 -20
-10 -20 23 0 28 4 35 20 35 14 0 20 -7 20 -23z m-2150 -47 c0 -20 -5 -30 -15
-30 -29 0 -18 50 13 59 1 1 2 -12 2 -29z m2226 -40 c8 0 14 -10 14 -25 0 -15
-6 -25 -14 -25 -8 0 -17 -6 -19 -12 -3 -7 -5 14 -5 47 0 33 3 50 5 38 2 -13
11 -23 19 -23z m-2188 -43 c2 -46 0 -57 -13 -57 -12 0 -15 13 -15 61 0 81 24
77 28 -4z m2112 -36 c0 -20 -6 -30 -20 -34 -17 -4 -20 0 -20 27 0 25 4 32 20
33 16 1 20 -4 20 -26z m-2150 -41 c0 -20 -5 -30 -15 -30 -15 0 -21 40 -8 53
14 15 23 6 23 -23z m2226 -40 c8 0 14 -10 14 -25 0 -15 -6 -25 -14 -25 -8 0
-17 -6 -19 -12 -3 -7 -5 14 -5 47 0 33 3 50 5 38 2 -13 11 -23 19 -23z m-2188
-43 c2 -46 0 -57 -13 -57 -12 0 -15 13 -15 61 0 81 24 77 28 -4z m2112 -36 c0
-20 -6 -30 -20 -34 -17 -4 -20 0 -20 27 0 25 4 32 20 33 16 1 20 -4 20 -26z
m-2150 -41 c0 -20 -5 -30 -15 -30 -15 0 -21 40 -8 53 14 15 23 6 23 -23z
m2226 -40 c21 0 17 -43 -6 -58 -19 -12 -20 -10 -19 45 1 32 4 48 6 36 2 -13
11 -23 19 -23z m-2188 -43 c2 -46 0 -57 -13 -57 -12 0 -15 13 -15 61 0 81 24
77 28 -4z m2112 -38 c0 -18 -6 -28 -20 -32 -17 -4 -20 0 -20 27 0 25 4 32 20
32 15 0 20 -7 20 -27z m57 -61 c-3 -8 -6 -5 -6 6 -1 11 2 17 5 13 3 -3 4 -12
1 -19z m-2169 -61 c2 -46 0 -57 -13 -57 -12 0 -15 13 -15 61 0 81 24 77 28 -4z
m2380 -93 c130 -75 242 -141 247 -147 13 -13 25 -20 -223 122 -247 142 -280
161 -269 161 4 0 115 -61 245 -136z m-55 2 c89 -51 315 -181 502 -288 712
-408 1130 -650 1139 -659 6 -5 7 -9 3 -9 -8 0 -718 408 -862 495 -38 23 -97
57 -130 75 -96 53 -839 482 -845 488 -15 16 49 -18 193 -102z m-213 53 c0 -18
-6 -28 -20 -32 -17 -4 -20 0 -20 27 0 25 4 32 20 32 15 0 20 -7 20 -27z m440
-229 c223 -128 493 -283 600 -345 107 -62 338 -195 513 -295 175 -100 316
-185 313 -187 -3 -3 -191 102 -418 233 -927 534 -1230 706 -1234 701 -4 -4
484 -290 670 -393 28 -15 73 -40 100 -57 28 -17 233 -135 456 -264 223 -129
410 -239 415 -245 7 -7 7 -9 0 -6 -20 11 -636 365 -805 463 -96 56 -370 213
-608 349 -238 137 -431 250 -428 253 2 3 14 -1 26 -7 12 -6 24 -9 27 -6 3 3
-6 11 -21 17 -14 7 -26 16 -26 21 0 5 3 7 8 5 4 -3 189 -109 412 -237z m-2552
107 c2 -46 0 -57 -13 -57 -12 0 -15 13 -15 61 0 81 24 77 28 -4z m2139 -689
c-1 -139 -2 -26 -2 252 0 278 1 391 2 253 2 -139 2 -367 0 -505z m47 726 c23
-9 20 -51 -4 -57 -17 -4 -20 0 -20 29 0 37 0 37 24 28z m413 -235 c202 -117
467 -269 588 -339 121 -70 348 -201 505 -291 l285 -164 1 -938 c0 -516 -3
-936 -6 -935 -4 2 -148 152 -320 333 -173 182 -390 411 -484 510 -319 335
-599 630 -680 715 -44 47 -124 130 -178 186 l-98 101 0 517 c0 303 4 516 9
516 5 0 175 -95 378 -211z m-487 157 c0 -16 -3 -26 -7 -23 -3 4 -12 2 -20 -4
-10 -9 -13 -5 -13 23 0 27 4 34 20 34 15 0 20 -7 20 -30z m-2150 -36 c0 -20
-5 -30 -15 -30 -29 0 -18 50 13 59 1 1 2 -12 2 -29z m2226 -40 c23 0 18 -57
-6 -63 -18 -5 -20 -1 -19 51 1 32 4 47 6 35 2 -13 11 -23 19 -23z m514 -6 c0
-2 -13 2 -30 11 -16 9 -30 18 -30 21 0 2 14 -2 30 -11 17 -9 30 -18 30 -21z
m-2702 -37 c2 -46 0 -57 -13 -57 -12 0 -15 13 -15 61 0 81 24 77 28 -4z m2772
-3 c0 -2 -13 2 -30 11 -16 9 -30 18 -30 21 0 2 14 -2 30 -11 17 -9 30 -18 30
-21z m-660 -33 c0 -20 -6 -30 -20 -34 -17 -4 -20 0 -20 27 0 25 4 32 20 33 16
1 20 -4 20 -26z m710 3 c0 -2 -9 0 -20 6 -11 6 -20 13 -20 16 0 2 9 0 20 -6
11 -6 20 -13 20 -16z m70 -40 c0 -2 -13 2 -30 11 -16 9 -30 18 -30 21 0 2 14
-2 30 -11 17 -9 30 -18 30 -21z m-2930 -4 c0 -20 -5 -30 -15 -30 -29 0 -18 50
13 59 1 1 2 -12 2 -29z m2226 -40 c9 0 14 -11 14 -32 0 -17 -3 -28 -7 -25 -3
4 -12 2 -20 -4 -11 -9 -13 -1 -12 47 1 33 4 49 6 37 2 -13 11 -23 19 -23z
m774 4 c0 -2 -13 2 -30 11 -16 9 -30 18 -30 21 0 2 14 -2 30 -11 17 -9 30 -18
30 -21z m-2962 -47 c2 -46 0 -57 -13 -57 -12 0 -15 13 -15 61 0 81 24 77 28
-4z m3052 -3 c0 -2 -13 2 -30 11 -16 9 -30 18 -30 21 0 2 14 -2 30 -11 17 -9
30 -18 30 -21z m-940 -33 c0 -20 -6 -30 -20 -34 -17 -4 -20 0 -20 23 0 19 6
30 18 33 9 3 18 5 20 6 1 0 2 -12 2 -28z m1010 -7 c0 -2 -13 2 -30 11 -16 9
-30 18 -30 21 0 2 14 -2 30 -11 17 -9 30 -18 30 -21z m-3160 -34 c0 -20 -5
-30 -15 -30 -29 0 -18 50 13 59 1 1 2 -12 2 -29z m2226 -40 c9 0 14 -11 14
-32 0 -17 -3 -28 -7 -25 -3 4 -12 2 -20 -4 -11 -9 -13 -1 -12 47 1 33 4 49 6
37 2 -13 11 -23 19 -23z m1034 14 c0 -2 -9 0 -20 6 -11 6 -20 13 -20 16 0 2 9
0 20 -6 11 -6 20 -13 20 -16z m-3222 -63 c2 -48 0 -62 -10 -59 -8 3 -14 27
-16 67 -2 48 0 62 10 59 8 -3 14 -27 16 -67z m2112 -30 c0 -20 -6 -30 -20 -34
-17 -4 -20 0 -20 23 0 19 6 30 18 33 9 3 18 5 20 6 1 0 2 -12 2 -28z m-2150
-41 c0 -20 -5 -30 -15 -30 -29 0 -18 50 13 59 1 1 2 -12 2 -29z m2226 -40 c23
0 18 -57 -6 -63 -18 -5 -20 -1 -19 51 1 32 4 47 6 35 2 -13 11 -23 19 -23z
m-2188 -49 c2 -48 0 -62 -10 -59 -8 3 -14 27 -16 67 -2 48 0 62 10 59 8 -3 14
-27 16 -67z m2112 -30 c0 -20 -6 -30 -20 -34 -17 -4 -20 0 -20 23 0 19 6 30
18 33 9 3 18 5 20 6 1 0 2 -12 2 -28z m-2150 -41 c0 -20 -5 -30 -15 -30 -29 0
-18 50 13 59 1 1 2 -12 2 -29z m2228 -42 c7 1 12 -10 12 -27 0 -20 -6 -30 -20
-34 -18 -5 -20 0 -19 51 1 42 3 50 8 32 4 -14 13 -24 19 -22z m-2190 -47 c2
-48 0 -62 -10 -59 -8 3 -14 27 -16 67 -2 48 0 62 10 59 8 -3 14 -27 16 -67z
m2112 -30 c0 -20 -6 -30 -20 -34 -17 -4 -20 0 -20 23 0 19 6 30 18 33 9 3 18
5 20 6 1 0 2 -12 2 -28z m-2150 -41 c0 -20 -5 -30 -15 -30 -29 0 -18 50 13 59
1 1 2 -12 2 -29z m2228 -42 c7 1 12 -11 12 -29 0 -24 -4 -30 -17 -27 -14 2
-18 14 -20 53 -1 36 0 43 6 25 4 -14 13 -24 19 -22z m-2188 -50 c0 -43 -3 -59
-12 -56 -8 3 -14 28 -16 66 -2 52 -1 61 13 56 11 -5 15 -21 15 -66z m2142 3
c2 -5 78 -87 169 -182 91 -96 428 -451 749 -789 321 -338 658 -693 748 -788
91 -95 163 -174 160 -177 -4 -4 -71 66 -477 495 -91 96 -220 231 -287 300 -66
69 -194 204 -285 300 -90 96 -216 229 -279 295 -115 120 -437 461 -494 523
-16 17 -25 32 -19 32 6 0 13 -4 15 -9z m-32 -30 c0 -20 -6 -30 -20 -34 -17 -4
-20 0 -20 23 0 19 6 30 18 33 9 3 18 5 20 6 1 0 2 -12 2 -28z m-2150 -41 c0
-20 -5 -30 -15 -30 -29 0 -18 50 13 59 1 1 2 -12 2 -29z m2216 -52 c21 -24
117 -126 214 -228 97 -102 268 -282 380 -401 277 -290 675 -710 968 -1018 133
-140 240 -257 237 -260 -3 -3 -23 13 -44 34 -47 49 -771 812 -901 950 -152
162 -626 661 -740 780 -154 161 -175 185 -163 185 6 0 28 -19 49 -42z m-2176
-40 c0 -43 -3 -59 -12 -56 -8 3 -14 28 -16 66 -2 52 -1 61 13 56 11 -5 15 -21
15 -66z m2110 -27 c0 -20 -6 -30 -20 -34 -17 -4 -20 0 -20 23 0 19 6 30 18 33
9 3 18 5 20 6 1 0 2 -12 2 -28z m27 -1324 c-1 -248 -2 -45 -2 453 0 498 1 701
2 452 2 -248 2 -656 0 -905z m-2177 1283 c0 -20 -5 -30 -15 -30 -29 0 -18 50
13 59 1 1 2 -12 2 -29z m2226 -40 c23 0 18 -57 -6 -63 -18 -5 -20 -1 -19 51 1
32 4 47 6 35 2 -13 11 -23 19 -23z m-2186 -52 c0 -43 -3 -59 -12 -56 -8 3 -14
28 -16 66 -2 52 -1 61 13 56 11 -5 15 -21 15 -66z m2746 -478 c884 -931 1033
-1088 1147 -1206 46 -47 80 -91 82 -107 5 -25 3 -27 -28 -27 -18 0 -255 22
-527 49 -272 28 -639 64 -815 81 -176 16 -337 33 -357 36 l-38 6 0 860 c0 519
4 858 9 856 5 -1 242 -248 527 -548z m-636 451 c0 -20 -6 -30 -20 -34 -17 -4
-20 0 -20 23 0 19 6 30 18 33 9 3 18 5 20 6 1 0 2 -12 2 -28z m-2162 -72 c-9
-6 -14 -1 -16 18 -2 14 2 30 10 34 9 6 14 1 16 -18 2 -14 -2 -30 -10 -34z
m2238 -19 c23 0 18 -47 -6 -53 -18 -5 -20 -1 -19 51 1 32 4 45 6 30 2 -16 11
-28 19 -28z m-2186 -42 c0 -43 -3 -59 -12 -56 -8 3 -14 28 -16 66 -2 52 -1 61
13 56 11 -5 15 -21 15 -66z m2098 -59 c-22 -14 -28 -10 -28 20 0 20 6 31 18
33 21 4 30 -41 10 -53z m-2138 -13 c0 -13 -7 -26 -15 -30 -11 -4 -15 2 -15 24
0 20 5 30 15 30 9 0 15 -9 15 -24z m2226 -46 c23 0 18 -47 -6 -53 -18 -5 -20
-1 -19 51 1 32 4 45 6 30 2 -16 11 -28 19 -28z m-2186 -41 c0 -46 -3 -59 -15
-59 -12 0 -15 14 -15 65 0 53 3 63 15 59 11 -5 15 -22 15 -65z m2098 -60 c-22
-14 -28 -10 -28 20 0 20 6 31 18 33 21 4 30 -41 10 -53z m-2138 -13 c0 -13 -7
-26 -15 -30 -11 -4 -15 2 -15 24 0 20 5 30 15 30 9 0 15 -9 15 -24z m2226 -42
c10 4 14 -3 14 -23 0 -20 -6 -30 -20 -34 -18 -5 -20 -1 -19 51 1 32 4 44 6 29
3 -20 9 -27 19 -23z m-2186 -45 c0 -46 -3 -59 -15 -59 -12 0 -15 14 -15 65 0
53 3 63 15 59 11 -5 15 -22 15 -65z m2110 -33 c0 -20 -16 -36 -36 -36 -2 0 -4
14 -4 30 0 23 4 30 20 30 14 0 20 -7 20 -24z m-2150 -40 c0 -13 -7 -26 -15
-30 -11 -4 -15 2 -15 24 0 20 5 30 15 30 9 0 15 -9 15 -24z m2226 -42 c10 4
14 -3 14 -24 0 -19 -5 -30 -14 -30 -8 0 -17 -6 -19 -12 -3 -7 -5 14 -5 47 0
33 3 50 5 37 3 -15 10 -22 19 -18z m-2188 -47 c2 -46 0 -57 -13 -57 -12 0 -15
13 -15 61 0 81 24 77 28 -4z m2112 -31 c0 -20 -16 -36 -36 -36 -2 0 -4 14 -4
30 0 23 4 30 20 30 14 0 20 -7 20 -24z m-2150 -40 c0 -13 -7 -26 -15 -30 -11
-4 -15 2 -15 24 0 20 5 30 15 30 9 0 15 -9 15 -24z m2230 -41 c6 4 10 -6 10
-22 0 -17 -8 -33 -20 -41 -19 -12 -20 -10 -19 45 0 46 2 53 10 35 5 -13 13
-20 19 -17z m-2192 -48 c2 -46 0 -57 -13 -57 -12 0 -15 13 -15 61 0 81 24 77
28 -4z m2112 -25 c0 -16 -8 -32 -20 -40 -19 -11 -20 -10 -20 22 0 24 5 36 18
39 9 3 18 5 20 6 1 0 2 -11 2 -27z m-2150 -52 c0 -20 -5 -30 -15 -30 -15 0
-21 40 -8 53 14 15 23 6 23 -23z m2230 -40 c5 0 10 -11 10 -25 0 -15 -6 -25
-14 -25 -8 0 -17 -6 -19 -12 -3 -7 -5 14 -6 47 0 46 2 55 9 38 5 -13 14 -23
20 -23z m-2192 -43 c2 -46 0 -57 -13 -57 -12 0 -15 13 -15 61 0 81 24 77 28
-4z m2112 -25 c0 -16 -8 -32 -20 -40 -19 -11 -20 -10 -20 22 0 24 5 36 18 39
9 3 18 5 20 6 1 0 2 -11 2 -27z m-2150 -52 c0 -20 -5 -30 -15 -30 -15 0 -21
40 -8 53 14 15 23 6 23 -23z m2230 -40 c5 0 10 -11 10 -25 0 -15 -6 -25 -14
-25 -8 0 -17 -6 -19 -12 -3 -7 -5 14 -6 47 0 46 2 55 9 38 5 -13 14 -23 20
-23z m-2192 -43 c2 -46 0 -57 -13 -57 -12 0 -15 13 -15 61 0 81 24 77 28 -4z
m2112 -36 c0 -20 -6 -30 -20 -34 -17 -4 -20 0 -20 27 0 25 4 32 20 33 16 1 20
-4 20 -26z m-2150 -41 c0 -20 -5 -30 -15 -30 -15 0 -21 40 -8 53 14 15 23 6
23 -23z m2230 -40 c5 0 10 -11 10 -25 0 -15 -6 -25 -14 -25 -8 0 -17 -6 -19
-12 -3 -7 -5 14 -6 47 0 46 2 55 9 38 5 -13 14 -23 20 -23z m-2192 -43 c2 -46
0 -57 -13 -57 -12 0 -15 13 -15 61 0 81 24 77 28 -4z m2112 -36 c0 -20 -6 -30
-20 -34 -17 -4 -20 0 -20 27 0 25 4 32 20 33 16 1 20 -4 20 -26z m-2150 -41
c0 -20 -5 -30 -15 -30 -15 0 -21 40 -8 53 14 15 23 6 23 -23z m2230 -40 c5 0
10 -11 10 -25 0 -15 -6 -25 -14 -25 -8 0 -17 -6 -19 -12 -3 -7 -5 14 -6 47 0
46 2 55 9 38 5 -13 14 -23 20 -23z m-2192 -43 c2 -46 0 -57 -13 -57 -12 0 -15
13 -15 61 0 81 24 77 28 -4z m2112 -31 c0 -25 -5 -35 -20 -39 -17 -4 -20 0
-20 30 0 19 4 32 9 28 5 -3 12 -1 16 5 11 18 15 11 15 -24z m-2150 -44 c0 -19
-5 -29 -15 -29 -15 0 -21 37 -8 50 14 14 23 6 23 -21z m420 -22 c162 -16 437
-43 610 -60 173 -17 424 -42 557 -55 134 -14 252 -25 263 -25 11 0 20 -7 20
-15 0 -18 -34 -19 -163 -5 -105 12 -1604 160 -1618 160 -5 0 -9 7 -9 15 0 20
-5 20 340 -15z m1806 -20 c23 0 18 -57 -6 -63 -18 -5 -20 -1 -19 51 1 32 4 47
6 35 2 -13 11 -23 19 -23z m-2188 -43 c2 -46 0 -57 -13 -57 -12 0 -15 13 -15
61 0 81 24 77 28 -4z m2112 -34 c0 -20 -3 -33 -7 -30 -3 4 -12 2 -20 -4 -10
-9 -13 -4 -13 25 0 21 4 35 9 31 5 -3 12 -1 16 5 11 18 15 11 15 -27z m-2150
-41 c0 -19 -5 -29 -15 -29 -15 0 -21 37 -8 50 14 14 23 6 23 -21z m971 -493
c486 -281 889 -515 894 -521 12 -13 -38 15 -315 176 -142 82 -218 121 -225
115 -13 -14 -18 -11 283 -184 144 -82 261 -154 262 -158 0 -4 -9 -3 -21 3 -11
7 -23 9 -26 6 -3 -3 6 -11 21 -17 14 -7 26 -16 26 -21 0 -5 -3 -7 -7 -5 -18
10 -531 307 -569 328 -369 211 -1213 703 -1210 706 2 2 174 -95 382 -215 582
-335 635 -365 640 -359 3 2 -224 136 -503 297 -279 161 -512 298 -518 303 -26
26 67 -26 614 -342 322 -187 593 -341 601 -343 65 -14 -65 68 -598 376 -583
336 -633 366 -620 366 3 0 403 -230 889 -511z m-933 408 c2 -46 0 -57 -13 -57
-12 0 -15 13 -15 61 0 81 24 77 28 -4z m2382 24 c52 -6 239 -24 415 -41 176
-17 363 -35 415 -40 52 -5 241 -23 420 -40 179 -17 331 -33 338 -35 24 -8 12
-25 -18 -25 -17 0 -302 27 -633 60 -331 33 -721 71 -867 85 -310 29 -330 32
-330 47 0 11 62 9 260 -11z m-2580 -55 c0 -36 4 -46 20 -51 15 -5 19 -12 15
-26 -7 -22 23 -39 35 -19 5 9 13 9 27 2 15 -8 25 -7 43 5 21 15 25 14 53 -2
25 -15 32 -16 41 -4 6 8 18 14 26 14 11 0 16 13 18 43 l3 42 30 -17 c16 -9 29
-23 29 -30 0 -7 9 -18 19 -25 17 -11 12 -16 -56 -56 -69 -40 -76 -42 -92 -28
-23 21 -48 20 -59 -1 -9 -15 -25 -8 -133 54 -68 40 -125 76 -127 81 -2 8 84
61 101 62 4 0 7 -20 7 -44z m2310 -3 c0 -20 -3 -33 -7 -30 -3 4 -12 2 -20 -4
-10 -9 -13 -4 -13 25 0 21 4 35 9 31 5 -3 12 -1 16 5 11 18 15 11 15 -27z
m-2150 -32 c0 -10 -7 -24 -15 -31 -13 -10 -15 -9 -15 12 0 14 3 28 7 31 12 13
23 7 23 -12z m-80 -21 c0 -5 -2 -10 -4 -10 -3 0 -8 5 -11 10 -3 6 -1 10 4 10
6 0 11 -4 11 -10z m2306 -30 c9 0 14 -11 14 -32 0 -17 -3 -28 -7 -25 -3 4 -12
2 -20 -4 -11 -9 -13 -1 -12 47 1 33 4 49 6 37 2 -13 11 -23 19 -23z m-76 -82
c0 -17 -3 -28 -7 -25 -3 4 -12 2 -20 -4 -10 -9 -13 -5 -13 23 0 27 4 34 20 35
16 1 20 -4 20 -29z m76 -238 c9 0 14 -11 14 -32 0 -17 -3 -28 -7 -25 -3 4 -12
2 -20 -4 -11 -9 -13 -1 -12 47 1 33 4 49 6 37 2 -13 11 -23 19 -23z m-76 -82
c0 -17 -3 -28 -7 -25 -3 4 -12 2 -20 -4 -10 -9 -13 -5 -13 23 0 27 4 34 20 35
16 1 20 -4 20 -29z m76 -78 c9 0 14 -11 14 -32 0 -17 -3 -28 -7 -25 -3 4 -12
2 -20 -4 -11 -9 -13 -1 -12 47 1 33 4 49 6 37 2 -13 11 -23 19 -23z m-76 -79
c0 -20 -6 -30 -20 -34 -17 -4 -20 0 -20 29 0 27 4 34 20 34 15 0 20 -7 20 -29z
m76 -81 c9 0 14 -11 14 -32 0 -17 -3 -28 -7 -25 -3 4 -12 2 -20 -4 -11 -9 -13
-1 -12 47 1 33 4 49 6 37 2 -13 11 -23 19 -23z m-76 -81 c0 -18 -6 -28 -20
-32 -17 -4 -20 0 -20 27 0 25 4 32 20 32 15 0 20 -7 20 -27z m76 -79 c21 0 17
-43 -6 -58 -19 -12 -20 -10 -19 45 1 32 4 48 6 36 2 -13 11 -23 19 -23z m-76
-81 c0 -18 -6 -28 -20 -32 -17 -4 -20 0 -20 27 0 25 4 32 20 32 15 0 20 -7 20
-27z m57 -61 c-3 -8 -6 -5 -6 6 -1 11 2 17 5 13 3 -3 4 -12 1 -19z m190 -144
c120 -70 223 -131 228 -137 11 -12 15 -14 -250 138 -182 104 -216 125 -203
125 4 0 105 -57 225 -126z m-247 45 c0 -18 -6 -28 -20 -32 -17 -4 -20 0 -20
27 0 25 4 32 20 32 15 0 20 -7 20 -27z m27 -121 c-2 -13 -4 -3 -4 22 0 25 2
35 4 23 2 -13 2 -33 0 -45z m51 30 c17 -17 15 -26 -8 -38 -18 -10 -20 -8 -20
20 0 32 8 38 28 18z m-222 -77 c34 -21 39 -28 29 -38 -10 -9 -17 -9 -31 2 -11
8 -26 15 -35 15 -9 0 -20 7 -23 16 -4 10 -14 14 -26 11 -12 -3 -20 0 -20 8 0
7 -14 18 -31 26 -29 12 -30 13 -13 26 18 13 31 8 150 -66z m9 29 c3 -5 1 -10
-4 -10 -6 0 -11 5 -11 10 0 6 2 10 4 10 3 0 8 -4 11 -10z m135 -10 c0 -17 -19
-40 -32 -40 -4 0 -8 13 -8 28 0 21 5 28 20 28 12 0 20 -7 20 -16z m550 -76 c0
-2 -13 2 -30 11 -16 9 -30 18 -30 21 0 2 14 -2 30 -11 17 -9 30 -18 30 -21z
m-707 -11 c-7 -2 -21 -2 -30 0 -10 3 -4 5 12 5 17 0 24 -2 18 -5z m777 -29 c0
-2 -13 2 -30 11 -16 9 -30 18 -30 21 0 2 14 -2 30 -11 17 -9 30 -18 30 -21z
m190 -110 c0 -2 -9 0 -20 6 -11 6 -20 13 -20 16 0 2 9 0 20 -6 11 -6 20 -13
20 -16z m70 -40 c0 -2 -9 0 -20 6 -11 6 -20 13 -20 16 0 2 9 0 20 -6 11 -6 20
-13 20 -16z m50 -30 c0 -2 -9 0 -20 6 -11 6 -20 13 -20 16 0 2 9 0 20 -6 11
-6 20 -13 20 -16z m70 -40 c0 -2 -9 0 -20 6 -11 6 -20 13 -20 16 0 2 9 0 20
-6 11 -6 20 -13 20 -16z m70 -40 c0 -2 -9 0 -20 6 -11 6 -20 13 -20 16 0 2 9
0 20 -6 11 -6 20 -13 20 -16z m795 -701 c0 -16 3 -48 7 -72 12 -69 2 -76 -62
-39 -50 28 -53 32 -32 39 26 10 28 24 6 37 -12 7 -8 13 23 35 49 33 59 33 58
0z m373 -78 c11 -10 4 -18 -40 -43 -43 -25 -54 -28 -56 -16 -3 10 -13 14 -35
12 -37 -4 -47 -25 -16 -36 20 -8 19 -10 -24 -35 -25 -15 -49 -27 -52 -27 -4 0
-37 17 -73 37 -60 34 -64 38 -42 44 14 3 37 0 52 -8 36 -18 55 -16 86 6 15 10
46 28 70 40 36 18 42 26 42 52 l0 31 38 -23 c20 -12 43 -28 50 -34z m-278 -45
c0 -5 -2 -10 -4 -10 -3 0 -8 5 -11 10 -3 6 -1 10 4 10 6 0 11 -4 11 -10z"/>
<path d="M1716 9532 c21 -20 506 -294 510 -289 3 2 -109 70 -249 151 -226 130
-292 165 -261 138z"/>
<path d="M2610 9016 c0 -7 251 -148 256 -143 5 5 -237 147 -250 147 -3 0 -6
-2 -6 -4z"/>
<path d="M2030 6866 c0 -7 181 -108 186 -103 3 3 -35 28 -84 56 -84 48 -102
56 -102 47z"/>
<path d="M2600 6536 c0 -8 131 -78 136 -73 3 3 -24 21 -60 41 -62 35 -76 41
-76 32z"/>
<path d="M1490 2846 c0 -3 60 -39 173 -103 4 -2 7 -1 7 4 0 4 -38 29 -84 56
-80 45 -96 52 -96 43z"/>
<path d="M1680 2736 c0 -8 511 -299 516 -294 4 5 -497 298 -509 298 -4 0 -7
-2 -7 -4z"/>
<path d="M2354 9207 c-7 -20 3 -37 22 -37 18 0 18 24 -1 40 -12 10 -16 9 -21
-3z"/>
<path d="M2352 9034 c2 -11 11 -20 22 -22 13 -3 17 1 14 14 -2 11 -11 20 -22
22 -13 3 -17 -1 -14 -14z"/>
<path d="M2352 8874 c2 -11 11 -20 22 -22 13 -3 17 1 14 14 -2 11 -11 20 -22
22 -13 3 -17 -1 -14 -14z"/>
<path d="M2352 8714 c2 -11 11 -20 22 -22 13 -3 17 1 14 14 -2 11 -11 20 -22
22 -13 3 -17 -1 -14 -14z"/>
<path d="M2352 8554 c2 -11 11 -20 22 -22 13 -3 17 1 14 14 -2 11 -11 20 -22
22 -13 3 -17 -1 -14 -14z"/>
<path d="M2352 8394 c2 -11 11 -20 22 -22 13 -3 17 1 14 14 -2 11 -11 20 -22
22 -13 3 -17 -1 -14 -14z"/>
<path d="M2350 8236 c0 -7 7 -19 15 -26 12 -10 16 -9 21 3 3 9 3 21 -1 27 -9
15 -35 12 -35 -4z"/>
<path d="M2350 8076 c0 -7 7 -19 15 -26 12 -10 16 -9 21 3 3 9 3 21 -1 27 -9
15 -35 12 -35 -4z"/>
<path d="M2352 7908 c2 -12 10 -23 18 -23 22 0 19 39 -3 43 -15 3 -18 -1 -15
-20z"/>
<path d="M2350 7758 c0 -7 5 -20 10 -28 12 -19 35 2 27 24 -7 19 -37 21 -37 4z"/>
<path d="M2350 7598 c0 -7 5 -20 10 -28 12 -19 35 2 27 24 -7 19 -37 21 -37 4z"/>
<path d="M2350 7431 c0 -21 26 -36 36 -20 9 15 -3 39 -21 39 -8 0 -15 -9 -15
-19z"/>
<path d="M2350 7271 c0 -21 26 -36 36 -20 9 15 -3 39 -21 39 -8 0 -15 -9 -15
-19z"/>
<path d="M2353 7114 c-7 -18 17 -38 30 -25 9 9 -1 41 -14 41 -5 0 -12 -7 -16
-16z"/>
<path d="M2353 6954 c-8 -21 13 -42 28 -27 13 13 5 43 -11 43 -6 0 -13 -7 -17
-16z"/>
<path d="M2354 6796 c-9 -24 12 -44 28 -28 10 10 8 16 -5 29 -15 15 -17 15
-23 -1z"/>
<path d="M2354 6636 c-9 -24 12 -44 28 -28 10 10 8 16 -5 29 -15 15 -17 15
-23 -1z"/>
<path d="M2354 6477 c-7 -20 3 -37 22 -37 18 0 18 24 -1 40 -12 10 -16 9 -21
-3z"/>
<path d="M2354 6316 c-9 -24 12 -44 28 -28 10 10 8 16 -5 29 -15 15 -17 15
-23 -1z"/>
<path d="M2354 6157 c-7 -20 3 -37 22 -37 18 0 18 24 -1 40 -12 10 -16 9 -21
-3z"/>
<path d="M2352 5984 c2 -11 11 -20 22 -22 13 -3 17 1 14 14 -2 11 -11 20 -22
22 -13 3 -17 -1 -14 -14z"/>
<path d="M2352 5824 c2 -11 11 -20 22 -22 13 -3 17 1 14 14 -2 11 -11 20 -22
22 -13 3 -17 -1 -14 -14z"/>
<path d="M2352 5664 c2 -11 11 -20 22 -22 13 -3 17 1 14 14 -2 11 -11 20 -22
22 -13 3 -17 -1 -14 -14z"/>
<path d="M2352 5504 c2 -11 11 -20 22 -22 13 -3 17 1 14 14 -2 11 -11 20 -22
22 -13 3 -17 -1 -14 -14z"/>
<path d="M2352 5344 c2 -11 11 -20 22 -22 13 -3 17 1 14 14 -2 11 -11 20 -22
22 -13 3 -17 -1 -14 -14z"/>
<path d="M2354 5197 c-7 -20 3 -37 22 -37 18 0 18 24 -1 40 -12 10 -16 9 -21
-3z"/>
<path d="M2354 5037 c-7 -20 3 -37 22 -37 18 0 18 24 -1 40 -12 10 -16 9 -21
-3z"/>
<path d="M2352 4864 c2 -11 11 -20 22 -22 13 -3 17 1 14 14 -2 11 -11 20 -22
22 -13 3 -17 -1 -14 -14z"/>
<path d="M2350 4706 c0 -7 7 -19 15 -26 12 -10 16 -9 21 3 3 9 3 21 -1 27 -9
15 -35 12 -35 -4z"/>
<path d="M2350 4546 c0 -7 7 -19 15 -26 12 -10 16 -9 21 3 3 9 3 21 -1 27 -9
15 -35 12 -35 -4z"/>
<path d="M2350 4388 c0 -7 5 -20 10 -28 12 -19 35 2 27 24 -7 19 -37 21 -37 4z"/>
<path d="M2350 4226 c0 -7 7 -19 15 -26 12 -10 16 -9 21 3 3 9 3 21 -1 27 -9
15 -35 12 -35 -4z"/>
<path d="M2350 4066 c0 -7 7 -19 15 -26 12 -10 16 -9 21 3 3 9 3 21 -1 27 -9
15 -35 12 -35 -4z"/>
<path d="M2355 3910 c-10 -16 16 -43 28 -31 11 11 2 41 -12 41 -5 0 -13 -5
-16 -10z"/>
<path d="M2355 3750 c-10 -16 16 -43 28 -31 11 11 2 41 -12 41 -5 0 -13 -5
-16 -10z"/>
<path d="M2356 3591 c-9 -14 5 -42 18 -38 15 5 14 39 -1 44 -6 2 -14 0 -17 -6z"/>
<path d="M2353 3424 c-8 -21 13 -42 28 -27 13 13 5 43 -11 43 -6 0 -13 -7 -17
-16z"/>
<path d="M2352 3258 c2 -12 9 -23 15 -26 19 -6 29 28 12 39 -23 14 -31 10 -27
-13z"/>
<path d="M2350 3100 c0 -14 7 -20 21 -20 15 0 19 4 15 16 -3 9 -6 18 -6 20 0
2 -7 4 -15 4 -8 0 -15 -9 -15 -20z"/>
<path d="M2350 2940 c0 -11 7 -23 15 -27 21 -8 28 1 20 26 -8 27 -35 27 -35 1z"/>
<path d="M2354 2786 c-9 -24 12 -44 28 -28 10 10 8 16 -5 29 -15 15 -17 15
-23 -1z"/>
<path d="M2354 2626 c-9 -24 12 -44 28 -28 10 10 8 16 -5 29 -15 15 -17 15
-23 -1z"/>
<path d="M2354 2466 c-9 -24 12 -44 28 -28 10 10 8 16 -5 29 -15 15 -17 15
-23 -1z"/>
<path d="M2354 2306 c-9 -24 12 -44 28 -28 10 10 8 16 -5 29 -15 15 -17 15
-23 -1z"/>
<path d="M2635 2183 c6 -6 136 -83 290 -171 154 -88 413 -237 575 -331 162
-93 297 -168 299 -165 2 2 2 6 0 8 -4 4 -468 271 -569 328 -25 14 -163 94
-308 177 -253 146 -309 176 -287 154z"/>
<path d="M3197 1833 c-3 -5 106 -72 241 -150 333 -191 342 -196 342 -185 0 5
-120 78 -267 163 -148 84 -278 159 -290 166 -11 8 -23 10 -26 6z"/>
</g>
</svg>
