<?xml version="1.0" standalone="no"?>
<!DOCTYPE svg PUBLIC "-//W3C//DTD SVG 20010904//EN"
 "http://www.w3.org/TR/2001/REC-SVG-20010904/DTD/svg10.dtd">
<svg version="1.0" xmlns="http://www.w3.org/2000/svg"
 width="414.000000pt" height="147.000000pt" viewBox="0 0 414.000000 147.000000"
 preserveAspectRatio="xMidYMid meet">

<g transform="translate(0.000000,147.000000) scale(0.100000,-0.100000)"
fill="#000000" stroke="none">
<path d="M810 1323 c0 -5 -9 -14 -19 -19 -16 -7 50 -50 371 -236 216 -126 393
-226 395 -224 2 1 -162 99 -364 216 -203 117 -374 218 -381 223 -9 7 -9 13 -1
24 7 7 9 16 5 20 -3 3 -6 2 -6 -4z"/>
<path d="M390 1115 c-15 -18 -8 -51 11 -46 8 2 22 4 32 5 9 0 17 8 17 18 0 17
-1 18 -25 2 -30 -20 -44 -11 -27 16 14 23 10 26 -8 5z"/>
<path d="M1155 871 c11 -5 98 -23 193 -41 94 -18 172 -36 172 -40 0 -5 -21
-20 -47 -36 -179 -103 -234 -137 -229 -141 2 -3 55 25 116 61 61 36 114 66
117 66 3 0 17 9 33 20 32 23 44 17 28 -14 -10 -19 -10 -20 5 -7 10 7 17 22 17
33 0 14 5 18 18 14 45 -13 1964 -387 1968 -383 4 4 -446 94 -1596 319 -201 40
-367 73 -369 75 -2 1 7 12 20 24 l24 21 -36 -21 -36 -21 -198 40 c-197 40
-238 46 -200 31z"/>
<path d="M797 813 c-4 -3 -7 -13 -7 -22 1 -13 3 -13 11 2 11 19 8 33 -4 20z"/>
<path d="M815 732 c17 -11 32 -18 34 -16 7 6 -24 29 -44 32 -15 2 -12 -2 10
-16z"/>
<path d="M1210 649 c0 -5 5 -7 10 -4 6 3 10 8 10 11 0 2 -4 4 -10 4 -5 0 -10
-5 -10 -11z"/>
<path d="M1185 629 c-4 -6 -5 -12 -2 -15 2 -3 7 2 10 11 7 17 1 20 -8 4z"/>
<path d="M1204 565 c-10 -32 -10 -35 3 -22 8 8 13 24 11 37 -2 17 -5 15 -14
-15z"/>
<path d="M3722 548 c-5 -7 -18 -37 -27 -66 -31 -93 -2 -292 42 -292 10 0 12 6
7 23 -28 88 -32 207 -9 283 8 27 15 52 15 57 0 11 -16 8 -28 -5z"/>
<path d="M3947 513 c21 -65 21 -224 0 -280 -14 -37 -14 -43 -2 -43 39 0 75
155 57 243 -15 74 -38 127 -56 127 -12 0 -12 -6 1 -47z"/>
<path d="M3788 533 c-8 -10 -18 -28 -21 -40 -4 -19 -1 -23 19 -23 15 0 24 6
24 15 0 22 27 30 46 14 22 -18 11 -50 -41 -117 -24 -31 -47 -69 -50 -84 l-7
-28 76 0 c74 0 76 1 76 25 0 23 -4 25 -40 25 -39 0 -52 12 -29 26 6 3 24 27
40 52 34 54 38 103 9 132 -25 25 -81 27 -102 3z"/>
</g>
</svg>
