<?xml version="1.0" standalone="no"?>
<!DOCTYPE svg PUBLIC "-//W3C//DTD SVG 20010904//EN"
 "http://www.w3.org/TR/2001/REC-SVG-20010904/DTD/svg10.dtd">
<svg version="1.0" xmlns="http://www.w3.org/2000/svg"
 width="520.000000pt" height="334.000000pt" viewBox="0 0 520.000000 334.000000"
 preserveAspectRatio="xMidYMid meet">

<g transform="translate(0.000000,334.000000) scale(0.100000,-0.100000)"
fill="#000000" stroke="none">
<path d="M3995 2858 c-209 -121 -1075 -622 -1925 -1113 -850 -491 -1620 -936
-1713 -990 l-167 -97 0 -38 c0 -47 12 -56 45 -34 36 24 53 12 57 -38 l3 -43
163 -94 c131 -75 166 -91 173 -80 5 8 7 22 5 31 -6 25 13 22 57 -7 31 -21 37
-32 37 -60 0 -19 3 -35 8 -35 7 0 179 99 1992 1147 514 297 1201 694 1525 881
325 188 609 352 633 366 39 24 42 28 42 70 l0 45 -132 79 c-211 125 -403 232
-413 231 -6 0 -181 -99 -390 -221z m628 73 c122 -70 237 -137 255 -148 l33
-21 -113 -65 c-62 -36 -354 -204 -648 -374 -294 -170 -1001 -579 -1570 -908
-569 -329 -1217 -703 -1439 -832 l-403 -233 -147 82 c-176 98 -359 207 -366
218 -5 8 110 75 2170 1266 693 400 1422 821 1620 936 198 114 366 208 373 208
8 0 113 -58 235 -129z m295 -212 c-3 -30 -25 -44 -578 -364 -535 -308 -2015
-1164 -3118 -1802 -260 -150 -475 -273 -477 -273 -3 0 -5 13 -5 29 0 27 22 41
467 299 258 148 711 411 1008 582 297 172 961 556 1475 853 514 297 998 577
1075 623 77 45 144 83 148 83 5 1 7 -13 5 -30z m-4682 -2100 c3 -6 0 -15 -7
-20 -22 -14 -29 -11 -29 11 0 21 24 27 36 9z m234 -135 c139 -80 150 -88 150
-115 0 -16 -2 -29 -4 -29 -2 0 -36 18 -74 40 -61 35 -69 43 -64 65 3 17 -1 27
-12 31 -24 9 -32 -4 -17 -27 11 -19 -27 -1 -127 60 -15 9 -24 61 -10 61 5 0
76 -39 158 -86z"/>
</g>
</svg>
