<?xml version="1.0" standalone="no"?>
<!DOCTYPE svg PUBLIC "-//W3C//DTD SVG 20010904//EN"
 "http://www.w3.org/TR/2001/REC-SVG-20010904/DTD/svg10.dtd">
<svg version="1.0" xmlns="http://www.w3.org/2000/svg"
 width="1004.000000pt" height="543.000000pt" viewBox="0 0 1004.000000 543.000000"
 preserveAspectRatio="xMidYMid meet">

<g transform="translate(0.000000,543.000000) scale(0.100000,-0.100000)"
fill="#000000" stroke="none">
<path d="M4166 5208 c-55 -87 -67 -253 -28 -370 13 -36 29 -72 37 -78 28 -23
33 0 13 62 -36 110 -28 272 18 393 10 24 -24 18 -40 -7z"/>
<path d="M4450 5217 c0 -8 7 -34 16 -58 33 -93 28 -249 -12 -386 -5 -17 -2
-23 10 -23 39 0 81 158 73 274 -5 92 -42 199 -70 204 -10 2 -17 -3 -17 -11z"/>
<path d="M4260 5124 c-15 -102 -7 -119 40 -91 51 31 78 3 71 -73 -5 -52 -54
-70 -71 -25 -10 26 -17 29 -44 19 -23 -9 -20 -28 9 -62 65 -78 165 -21 165 95
0 69 -57 128 -105 109 -11 -4 -15 2 -15 24 0 30 1 30 55 30 54 0 55 0 55 30
l0 30 -74 0 -74 0 -12 -86z"/>
<path d="M4668 5003 c23 -2 59 -2 80 0 20 2 1 4 -43 4 -44 0 -61 -2 -37 -4z"/>
<path d="M6887 4981 c-69 -41 -71 -49 -3 -13 69 37 95 39 127 12 29 -23 8 -27
-26 -4 -14 9 -32 13 -42 10 -15 -6 -12 -11 16 -29 43 -27 21 -37 -26 -12 -24
13 -37 15 -44 8 -8 -8 -4 -15 12 -24 23 -12 23 -11 9 6 -14 17 -14 18 7 6 14
-7 20 -17 17 -26 -8 -19 -18 -19 -55 1 -17 8 -38 13 -47 9 -13 -5 -10 -10 16
-27 22 -14 30 -24 23 -31 -6 -6 -20 -2 -41 13 -19 13 -37 19 -48 15 -15 -6
-13 -10 13 -30 39 -32 25 -43 -19 -15 -33 20 -56 20 -56 0 0 -9 35 -23 60 -24
11 -1 17 -17 21 -56 l6 -55 1 53 c1 36 7 54 17 58 22 9 18 22 -12 38 -33 18
-25 21 12 4 23 -11 25 -16 25 -85 0 -45 -4 -73 -11 -73 -5 0 -7 -4 -4 -10 3
-5 13 -10 21 -10 11 0 14 18 14 85 0 72 2 85 17 85 14 0 14 2 -2 20 -19 21 -7
28 13 8 15 -15 16 -148 2 -148 -5 0 -10 -9 -10 -20 0 -11 5 -20 11 -20 6 0 9
-9 6 -20 -7 -29 19 -47 41 -28 9 8 35 25 58 37 l41 23 79 -47 c92 -55 134 -77
134 -72 0 7 -208 127 -219 127 -7 0 -11 39 -11 115 0 70 4 115 10 115 20 0 9
19 -24 39 -44 28 -71 26 -129 -8z m131 -135 c2 -66 -1 -96 -8 -91 -5 3 -10 -1
-10 -9 0 -9 5 -16 12 -16 6 0 3 -9 -7 -20 -10 -11 -22 -20 -27 -20 -4 0 -8 50
-8 110 0 89 3 112 15 116 16 6 21 34 7 34 -5 0 -17 7 -28 16 -13 11 -8 10 16
-3 l35 -19 3 -98z m-58 0 c0 -41 -4 -78 -10 -81 -14 -9 -12 -63 2 -67 8 -3 5
-12 -10 -28 l-22 -24 0 117 c0 97 3 119 16 124 8 3 13 12 10 19 -3 8 -1 14 4
14 6 0 10 -33 10 -74z m-195 -6 c3 -6 -1 -7 -9 -4 -18 7 -21 14 -7 14 6 0 13
-4 16 -10z"/>
<path d="M4918 4993 c72 -2 192 -2 265 0 72 1 13 3 -133 3 -146 0 -205 -2
-132 -3z"/>
<path d="M5448 4983 c72 -2 192 -2 265 0 72 1 13 3 -133 3 -146 0 -205 -2
-132 -3z"/>
<path d="M5890 4973 c106 -7 430 -7 430 0 0 4 -107 6 -237 5 -131 -1 -218 -3
-193 -5z"/>
<path d="M6718 4883 c-53 -32 -96 -59 -94 -61 4 -3 172 94 191 110 20 18 -4 5
-97 -49z"/>
<path d="M6676 4833 c-12 -12 -6 -22 11 -16 11 4 14 3 9 -5 -5 -8 -2 -10 8 -6
11 4 14 0 11 -15 -2 -13 3 -25 15 -31 27 -14 30 -13 30 15 0 39 18 29 23 -12
3 -35 4 -34 5 10 2 44 -9 60 -23 37 -4 -6 -21 -2 -44 10 -21 10 -41 16 -45 13z
m71 -48 c9 -24 -1 -27 -15 -5 -8 13 -8 20 -2 20 6 0 13 -7 17 -15z"/>
<path d="M6553 4789 c-35 -22 -46 -37 -15 -20 22 13 58 40 52 41 -3 0 -20 -10
-37 -21z"/>
<path d="M6564 4768 c-9 -14 23 -38 42 -31 10 3 12 0 8 -10 -3 -8 0 -18 7 -23
9 -5 10 -2 6 9 -3 10 -2 17 3 17 6 0 10 -33 10 -75 0 -43 -4 -75 -10 -75 -5 0
-10 -9 -10 -21 0 -11 5 -17 10 -14 6 4 10 -5 10 -19 0 -14 -4 -26 -10 -26 -5
0 -10 -7 -10 -15 0 -8 -4 -15 -10 -15 -6 0 -10 46 -10 118 l0 119 -40 18 c-31
14 -43 16 -52 7 -12 -12 -2 -16 27 -13 6 0 11 -8 12 -19 2 -23 -14 -25 -41 -5
-23 17 -56 20 -56 5 0 -6 11 -16 25 -22 14 -6 25 -15 25 -20 0 -13 -29 -9 -55
8 -26 17 -61 12 -49 -7 4 -8 9 -7 15 2 6 11 11 11 20 2 18 -18 20 -43 3 -43
-8 0 -28 7 -45 15 -43 23 -59 7 -23 -22 23 -18 25 -23 11 -23 -10 0 -29 7 -42
16 -23 15 -45 12 -45 -5 0 -4 12 -13 26 -19 14 -7 23 -8 19 -2 -9 15 11 12 24
-4 8 -9 11 -40 8 -83 l-3 -68 -2 73 c-2 71 -3 72 -26 66 -14 -3 -38 2 -61 15
l-37 20 50 25 c28 14 54 31 58 37 3 6 -4 5 -17 -3 -13 -8 -77 -45 -141 -82
-65 -37 -118 -70 -118 -72 0 -3 13 2 30 11 36 19 46 19 31 2 -8 -11 -5 -16 15
-26 18 -8 23 -8 18 0 -4 7 -1 10 7 7 18 -6 27 -254 10 -271 -8 -8 -11 23 -11
109 l0 120 -35 17 c-40 19 -65 22 -65 7 0 -10 13 -14 35 -11 6 0 11 -8 12 -19
2 -23 -14 -25 -41 -5 -23 17 -56 20 -56 4 0 -6 6 -9 13 -6 6 2 24 -2 40 -10
26 -13 27 -17 27 -88 0 -43 -4 -75 -10 -75 -5 0 -10 -9 -10 -21 0 -11 5 -17
10 -14 6 4 10 -7 10 -24 0 -17 -4 -31 -9 -31 -5 0 -12 -7 -15 -16 -3 -8 -2
-13 2 -11 9 6 264 153 320 184 l42 25 0 124 c0 108 2 124 16 124 14 0 15 2 3
17 -12 14 -12 16 1 11 18 -6 28 -148 10 -148 -5 0 -10 -9 -10 -20 0 -11 5 -20
10 -20 6 0 10 -11 10 -25 0 -14 -4 -25 -9 -25 -5 0 -11 -7 -15 -15 -6 -18 3
-14 94 40 30 18 102 60 160 94 l105 61 -3 49 c-3 31 -9 52 -18 55 -11 4 -14
-7 -14 -54 0 -91 -20 -85 -22 7 -1 43 -3 61 -5 41 -2 -21 -8 -38 -14 -38 -5 0
-9 -9 -9 -21 0 -11 5 -17 10 -14 6 3 10 -3 10 -14 0 -22 -28 -61 -43 -61 -5 0
-7 47 -5 105 1 58 0 105 -4 105 -5 0 -8 -29 -8 -65 0 -37 -4 -65 -10 -65 -5 0
-10 -9 -10 -21 0 -11 5 -17 10 -14 15 9 12 -37 -4 -57 -7 -10 -16 -18 -20 -18
-4 0 -5 53 -4 118 2 87 6 116 16 115 14 -3 16 13 3 21 -5 4 -11 0 -14 -6 -3
-10 -15 -7 -45 9 -29 16 -43 20 -48 11z m12 -179 c0 -63 -3 -122 -8 -131 -20
-41 -28 -13 -28 97 0 98 2 115 18 124 15 9 15 12 2 22 -13 9 -13 10 0 6 12 -3
15 -25 16 -118z m-46 4 c0 -42 -4 -73 -10 -73 -5 0 -10 -9 -10 -20 0 -11 5
-20 10 -20 6 0 10 -9 10 -20 0 -11 -4 -20 -10 -20 -5 0 -10 -6 -10 -14 0 -8
-4 -18 -10 -21 -6 -4 -10 37 -10 114 0 101 2 121 15 121 23 0 18 16 -12 40
l-28 21 33 -17 c32 -18 32 -19 32 -91z m267 10 c-3 -10 -5 -4 -5 12 0 17 2 24
5 18 2 -7 2 -21 0 -30z m-402 15 c25 -11 25 -12 23 -130 -2 -101 -5 -121 -20
-135 -18 -16 -19 -13 -16 108 2 93 6 123 16 122 22 -5 12 16 -15 31 -33 18
-25 21 12 4z m-157 -40 c-2 -7 3 -12 10 -10 7 1 26 -5 42 -13 29 -15 30 -19
30 -80 0 -36 -6 -75 -12 -86 -10 -17 -10 -23 0 -26 6 -3 12 -13 12 -24 0 -19
-28 -59 -42 -59 -5 0 -8 49 -8 109 0 84 3 113 15 125 20 19 19 23 -7 37 -21
11 -22 11 -9 -5 22 -27 5 -30 -33 -6 -34 21 -56 20 -56 -1 0 -6 6 -9 13 -6 6
2 24 -2 40 -10 26 -13 27 -17 27 -88 0 -43 -4 -75 -10 -75 -5 0 -10 -7 -10
-15 0 -8 5 -15 10 -15 14 0 12 -42 -4 -62 -7 -10 -16 -18 -20 -18 -4 0 -5 53
-4 118 2 87 6 116 16 115 24 -5 12 24 -15 36 -26 10 -27 10 -9 -4 11 -8 17
-18 14 -21 -9 -8 -38 3 -67 25 l-24 18 44 27 c49 29 60 32 57 14z m112 -142
c0 -66 -4 -117 -10 -121 -6 -4 -10 37 -10 114 0 74 4 121 10 121 6 0 10 -45
10 -114z m-141 -33 c-2 -79 -6 -70 -11 25 -2 28 0 52 5 52 4 0 6 -35 6 -77z
m-63 -64 c0 -63 -3 -122 -8 -131 -20 -40 -28 -14 -28 91 0 89 3 113 17 126 14
14 14 18 2 27 -12 8 -12 9 1 5 12 -3 15 -25 16 -118z m221 14 c-3 -10 -5 -4
-5 12 0 17 2 24 5 18 2 -7 2 -21 0 -30z m-160 -90 c-3 -10 -5 -4 -5 12 0 17 2
24 5 18 2 -7 2 -21 0 -30z"/>
<path d="M6478 4744 c-38 -20 -36 -28 2 -9 17 9 30 18 30 20 0 7 -1 6 -32 -11z"/>
<path d="M2876 4708 c-55 -87 -67 -253 -28 -370 13 -36 29 -72 37 -78 28 -23
33 0 13 62 -36 110 -28 272 18 393 10 24 -24 18 -40 -7z"/>
<path d="M3160 4717 c0 -8 7 -34 16 -58 33 -93 28 -249 -12 -386 -5 -17 -2
-23 10 -23 39 0 81 158 73 274 -5 92 -42 199 -70 204 -10 2 -17 -3 -17 -11z"/>
<path d="M2976 4698 c-34 -30 -39 -72 -9 -76 14 -2 23 3 28 16 8 28 31 34 50
15 22 -21 15 -56 -12 -68 -32 -14 -30 -51 2 -59 16 -4 27 -16 31 -33 16 -63
-42 -114 -68 -59 -7 17 -19 26 -35 26 -27 0 -30 -18 -8 -59 16 -33 33 -41 81
-41 41 0 69 25 82 74 12 42 6 74 -19 102 -17 18 -17 22 -4 40 23 31 19 87 -10
118 -30 33 -74 34 -109 4z"/>
<path d="M6398 4699 c-21 -11 -38 -22 -38 -24 0 -3 18 4 40 15 22 11 40 23 40
25 0 7 0 7 -42 -16z"/>
<path d="M6843 4638 c2 -7 0 -21 -5 -31 -9 -17 -8 -17 21 -2 17 8 31 18 31 21
0 3 -4 3 -9 0 -5 -3 -11 1 -15 9 -7 18 -30 20 -23 3z"/>
<path d="M7270 4586 c0 -2 19 -15 43 -29 23 -13 59 -34 80 -46 20 -13 37 -21
37 -18 0 2 -26 20 -57 39 -71 43 -103 60 -103 54z"/>
<path d="M6018 4479 c-21 -11 -38 -22 -38 -24 0 -3 18 4 40 15 22 11 40 23 40
25 0 7 0 7 -42 -16z"/>
<path d="M7460 4475 c0 -2 18 -14 40 -25 22 -11 40 -18 40 -15 0 2 -18 14 -40
25 -22 11 -40 18 -40 15z"/>
<path d="M5785 4345 c-341 -198 -375 -218 -375 -222 0 -2 14 4 31 12 29 15 32
15 45 -2 8 -12 13 -13 14 -5 0 7 5 10 10 7 6 -4 7 -11 4 -17 -4 -6 -2 -8 4 -5
13 9 42 -2 42 -15 0 -6 -6 -6 -14 1 -11 9 -15 9 -18 -1 -4 -10 -14 -8 -45 6
-53 24 -78 11 -33 -17 20 -13 28 -23 21 -30 -6 -6 -20 -2 -41 13 -34 24 -71
21 -50 -5 7 -8 17 -15 22 -15 6 0 4 8 -3 17 -9 11 -3 10 19 -6 31 -22 32 -24
32 -97 0 -43 -4 -74 -10 -74 -5 0 -10 -7 -10 -15 0 -8 5 -15 10 -15 18 0 11
-46 -10 -65 -20 -18 -20 -17 -20 98 0 97 3 117 16 125 9 5 14 14 10 21 -11 16
-26 13 -20 -4 8 -20 -5 -19 -44 5 -31 19 -52 19 -52 0 0 -4 7 -11 16 -14 9 -4
13 -2 8 5 -4 7 -1 10 6 7 15 -5 22 -36 10 -43 -5 -3 -23 3 -41 14 -17 11 -38
17 -45 14 -20 -8 -6 -23 14 -16 9 3 14 2 9 -2 -4 -5 2 -18 13 -30 18 -20 21
-35 21 -129 0 -107 -4 -126 -22 -126 -6 0 -9 44 -7 119 l3 118 -39 23 c-30 17
-41 19 -50 10 -8 -9 -8 -14 0 -17 6 -2 20 -10 30 -18 32 -23 5 -31 -34 -9 -35
20 -62 22 -62 5 0 -4 12 -13 26 -19 18 -9 23 -9 18 -1 -4 7 -1 10 7 7 8 -3 13
-12 11 -22 -2 -9 2 -16 8 -16 6 0 8 5 5 10 -3 6 -1 10 4 10 7 0 11 -29 11 -75
0 -43 -4 -75 -10 -75 -5 0 -10 -9 -10 -21 0 -11 5 -17 10 -14 6 3 10 -3 10
-14 0 -22 -28 -61 -43 -61 -5 0 -7 54 -5 120 l3 119 -35 15 c-19 8 -42 16 -50
19 -9 2 8 17 43 36 31 18 57 35 57 38 0 5 -11 -1 -220 -121 -129 -74 -207
-127 -108 -73 l48 25 31 -29 c35 -32 17 -41 -26 -13 -17 11 -29 13 -41 6 -16
-9 -15 -11 6 -22 18 -9 21 -9 15 0 -5 8 -3 11 6 8 8 -3 13 -10 12 -16 -1 -5 5
-9 15 -8 14 1 17 -10 20 -71 2 -46 -1 -73 -8 -73 -5 0 -10 -12 -10 -26 0 -14
4 -23 10 -19 18 11 10 -36 -10 -57 l-20 -22 0 122 c0 102 2 122 15 122 8 0 15
5 15 10 0 6 -10 8 -24 4 -14 -3 -37 1 -55 11 -44 22 -62 8 -26 -21 40 -31 26
-40 -19 -13 -29 17 -40 19 -49 10 -9 -10 -8 -15 6 -22 9 -6 26 -20 37 -31 11
-12 20 -17 20 -12 0 6 -6 16 -12 23 -11 11 -10 13 2 9 11 -3 16 -24 18 -82 2
-52 -1 -76 -8 -71 -6 4 -10 -4 -10 -20 0 -15 4 -24 10 -20 6 4 10 -5 10 -19 0
-14 -4 -26 -10 -26 -5 0 -10 -7 -10 -15 0 -8 -4 -15 -10 -15 -6 0 -10 46 -10
118 l0 117 -38 22 c-27 15 -42 19 -53 11 -9 -6 -10 -11 -3 -14 24 -10 49 -33
42 -39 -3 -4 -20 1 -37 9 -35 19 -61 21 -61 5 0 -6 6 -9 13 -6 6 2 24 -2 40
-10 26 -13 27 -17 27 -88 0 -41 -4 -75 -8 -75 -5 0 -9 -7 -9 -15 0 -8 4 -15 9
-15 13 0 9 -43 -6 -62 -7 -10 -16 -18 -20 -18 -3 0 -6 52 -6 115 0 94 3 117
15 121 22 9 18 19 -12 33 -26 10 -27 10 -9 -4 29 -22 10 -32 -23 -12 -32 19
-61 22 -61 7 0 -5 10 -15 23 -21 21 -11 21 -11 7 6 -14 17 -14 17 18 1 l32
-17 -2 -77 -1 -77 -7 60 -7 60 -1 -78 c-1 -50 2 -76 8 -72 6 4 10 -5 10 -19 0
-14 -4 -26 -10 -26 -5 0 -10 -7 -10 -15 0 -8 -4 -15 -10 -15 -6 0 -10 45 -10
115 0 96 3 115 15 115 17 0 20 16 5 25 -5 3 -10 1 -10 -4 0 -14 -37 -14 -45
-1 -3 5 -20 13 -38 18 l-31 8 74 42 c41 22 84 48 95 57 22 18 15 14 -150 -80
-55 -31 -104 -61 -110 -67 -5 -6 11 1 37 16 47 26 48 26 66 8 11 -11 26 -22
33 -24 8 -3 11 -9 6 -13 -4 -5 -23 -1 -43 8 -19 10 -40 15 -45 11 -15 -9 0
-24 18 -17 11 4 14 3 9 -5 -4 -7 -2 -10 7 -6 8 3 20 -3 28 -13 13 -16 12 -17
-3 -4 -12 9 -18 10 -18 2 0 -16 -27 -14 -55 5 -14 9 -32 13 -42 9 -17 -6 -17
-7 1 -21 27 -19 45 -18 20 2 -18 15 -18 15 0 6 23 -12 30 -42 10 -42 -8 0 -28
7 -45 15 -34 18 -62 9 -35 -11 10 -7 24 -10 31 -8 10 4 12 -1 8 -15 -7 -26 -8
-26 -49 0 -31 19 -54 19 -54 0 0 -4 11 -14 25 -21 15 -8 22 -17 17 -22 -5 -5
-24 0 -43 11 -25 15 -38 17 -49 10 -10 -7 -11 -12 -4 -15 24 -10 49 -33 42
-39 -6 -6 -88 31 -88 40 0 2 45 29 100 60 55 32 100 59 100 62 0 5 -68 -32
-192 -105 -77 -44 -106 -67 -48 -37 36 19 41 19 34 0 -6 -14 5 -19 31 -16 6 0
11 -8 12 -19 2 -25 -8 -25 -48 -1 -17 11 -38 17 -45 14 -20 -8 -6 -23 14 -16
9 3 14 2 9 -2 -4 -5 0 -17 10 -27 22 -25 -1 -24 -42 0 -30 19 -55 19 -55 0 0
-6 6 -8 13 -5 8 3 20 1 28 -5 11 -8 9 -8 -6 -4 -20 6 -20 6 -1 -9 29 -22 9
-32 -25 -12 -36 20 -63 22 -56 5 2 -7 12 -12 22 -10 9 2 14 -1 11 -6 -3 -5 1
-15 9 -22 17 -14 20 -70 4 -70 -7 0 -10 12 -7 30 3 21 0 30 -9 30 -8 0 -25 8
-39 17 -21 14 -29 14 -46 4 -11 -7 -23 -10 -26 -7 -7 7 -12 4 86 61 45 26 82
50 82 52 0 5 -43 -18 -114 -61 -33 -20 -66 -36 -73 -36 -19 0 -167 88 -191
113 -11 12 -136 173 -277 357 -141 184 -262 337 -268 339 -6 2 18 -34 54 -80
203 -260 460 -601 457 -604 -2 -2 -39 18 -83 44 -44 26 -129 76 -190 111 -60
35 -152 88 -203 118 -51 30 -95 52 -97 50 -3 -2 100 -65 228 -139 308 -178
338 -195 364 -213 21 -16 183 -221 183 -233 0 -8 33 -32 44 -33 6 0 -2 12 -16
28 -37 40 -158 199 -158 207 0 4 12 -1 28 -11 28 -19 161 -95 297 -172 44 -24
94 -53 110 -64 17 -10 100 -59 185 -107 85 -49 174 -100 197 -114 32 -20 55
-48 105 -134 74 -125 93 -167 84 -188 -3 -8 -1 -15 3 -15 5 0 7 -19 5 -42 -4
-43 -4 -43 6 -8 14 57 -5 114 -87 251 l-75 127 -92 52 c-175 99 -281 161 -289
169 -5 5 31 31 80 58 111 63 241 138 413 238 74 43 157 91 184 106 l49 27 -2
120 c-2 106 0 121 15 130 15 9 16 13 5 26 -7 9 -9 16 -4 16 23 0 28 -24 22
-102 -4 -46 -4 -95 -2 -109 3 -15 -1 -37 -7 -50 l-13 -22 39 23 c22 13 82 48
134 77 52 30 140 81 195 112 l100 58 3 119 c2 127 7 153 22 138 5 -5 11 -55
12 -111 2 -76 -1 -105 -12 -119 -16 -19 31 5 180 92 l75 44 -3 123 -3 124 -37
21 c-49 27 -77 14 -35 -16 38 -27 22 -40 -19 -15 -32 19 -58 20 -58 3 0 -4 7
-11 16 -14 9 -4 13 -2 8 5 -4 7 -1 10 6 7 15 -5 24 -48 11 -48 -6 0 -25 9 -45
20 -45 27 -60 8 -20 -26 23 -18 25 -23 11 -24 -10 0 -29 7 -42 16 -14 9 -32
13 -42 9 -16 -5 -14 -8 10 -23 15 -9 27 -20 27 -24 0 -13 -25 -9 -46 7 -10 8
-28 15 -38 15 -29 0 -18 8 167 114 175 101 204 116 194 100 -3 -6 8 -18 26
-28 24 -13 27 -13 13 -2 -11 9 -16 16 -10 16 5 0 20 -9 34 -20 14 -11 18 -18
9 -14 -10 3 -20 1 -24 -5 -4 -7 -20 -4 -46 9 -51 26 -73 15 -34 -16 40 -31 25
-42 -21 -15 -27 16 -40 19 -48 11 -8 -8 -6 -14 6 -21 9 -5 24 -17 33 -25 9 -9
19 -13 23 -10 3 4 0 12 -8 17 -13 9 -13 10 0 6 20 -5 26 -122 8 -156 -10 -19
-10 -25 0 -28 14 -5 17 -53 2 -53 -5 0 -10 -7 -10 -16 0 -13 7 -11 43 9 23 13
78 45 123 71 l81 46 2 122 c2 125 5 143 23 132 6 -4 9 -1 6 6 -2 7 -15 20 -29
29 l-24 15 19 -22 c17 -20 17 -22 2 -22 -9 0 -28 7 -41 16 -14 9 -33 13 -42
10 -15 -6 -13 -10 11 -26 16 -10 35 -16 42 -13 8 3 14 1 14 -4 0 -15 -50 -14
-81 2 -16 9 -34 13 -39 10 -16 -10 -1 -25 17 -18 12 5 14 3 8 -7 -5 -9 -4 -11
4 -6 6 4 19 2 27 -5 12 -9 14 -34 13 -118 -3 -105 -10 -141 -30 -141 -6 0 -9
44 -7 118 2 87 6 116 16 115 14 -3 16 13 2 22 -5 3 -10 1 -10 -4 0 -16 -21
-13 -63 8 l-37 19 55 31 c30 17 55 33 55 36 0 8 6 11 -185 -100z m235 49 c0
-2 -9 0 -20 6 -11 6 -20 13 -20 16 0 2 9 0 20 -6 11 -6 20 -13 20 -16z m16
-146 c-5 -132 -3 -118 -18 -118 -8 0 -12 12 -11 32 1 18 2 70 2 116 1 67 4 82
17 82 13 0 14 -15 10 -112z m-172 51 c23 -18 26 -27 26 -85 0 -36 -4 -64 -10
-64 -5 0 -10 -9 -10 -20 0 -11 5 -20 10 -20 16 0 12 -38 -7 -60 -10 -11 -21
-20 -25 -20 -5 0 -8 52 -8 115 0 98 2 115 17 124 10 5 16 11 13 14 -3 2 -16
11 -30 20 -13 9 -20 17 -14 17 6 0 23 -9 38 -21z m56 -113 c0 -66 -4 -117 -10
-121 -6 -4 -10 37 -10 114 0 74 4 121 10 121 6 0 10 -45 10 -114z m-125 94 c3
-5 2 -10 -4 -10 -5 0 -13 5 -16 10 -3 6 -2 10 4 10 5 0 13 -4 16 -10z m-50
-32 c25 -11 25 -12 24 -130 -2 -80 -7 -124 -15 -136 -11 -14 -13 3 -14 106 0
75 4 122 10 122 20 0 10 20 -17 34 -33 18 -25 21 12 4z m-29 -124 c1 -78 1
-78 -6 -19 -6 52 -7 45 -8 -52 -1 -70 -6 -113 -12 -113 -7 0 -10 42 -8 118 2
87 6 116 16 115 14 -3 16 23 2 30 -6 3 -5 4 2 3 9 -2 13 -26 14 -82z m-63 48
c13 -12 17 -31 17 -84 0 -39 -4 -68 -10 -68 -5 0 -10 -9 -10 -21 0 -11 5 -17
10 -14 6 4 10 -5 10 -19 0 -14 -4 -26 -10 -26 -5 0 -10 -7 -10 -15 0 -8 -4
-15 -10 -15 -6 0 -10 45 -10 115 0 96 3 115 15 115 22 0 18 11 -12 38 -16 13
-21 20 -13 16 8 -4 23 -14 33 -22z m-35 -110 c2 -45 -1 -72 -8 -72 -5 0 -10
-9 -10 -21 0 -11 5 -17 10 -14 6 3 10 -3 10 -14 0 -21 -28 -61 -43 -61 -4 0
-6 53 -5 118 3 110 4 117 23 114 16 -2 13 4 -15 29 l-35 32 35 -20 c34 -19 35
-20 38 -91z m-115 0 c-2 -6 -3 -57 -4 -114 -1 -57 -6 -111 -11 -120 -20 -41
-28 -13 -28 97 0 94 3 117 15 121 16 6 21 34 7 34 -5 0 -17 7 -28 16 -12 10
-6 8 16 -4 19 -10 34 -24 33 -30z m-105 -120 c2 -45 -1 -72 -8 -72 -5 0 -10
-12 -10 -26 0 -14 4 -23 10 -19 18 11 10 -36 -10 -57 l-20 -22 0 122 c0 102 2
122 15 122 17 0 20 16 5 23 -6 3 -5 4 2 3 9 -2 14 -26 16 -74z m319 41 c-3
-10 -5 -4 -5 12 0 17 2 24 5 18 2 -7 2 -21 0 -30z m-387 7 c8 -5 12 -11 10
-14 -3 -2 -14 2 -24 10 -22 15 -10 19 14 4z m-62 -26 c20 -14 22 -23 20 -92
l-2 -77 -3 72 c-3 64 -7 75 -30 93 -30 23 -18 27 15 4z m-168 -45 c0 -6 6 -9
13 -6 6 2 25 -2 40 -10 l28 -14 -2 -117 c-2 -110 -9 -142 -31 -142 -5 0 -7 52
-6 118 2 87 6 116 16 115 6 -2 12 4 12 12 0 18 -17 20 -23 3 -3 -10 -12 -9
-35 5 -34 19 -62 22 -62 7 0 -6 11 -16 25 -22 25 -11 34 -28 15 -28 -6 0 -25
7 -41 16 -32 16 -77 11 -50 -6 8 -4 21 -6 30 -2 9 3 13 2 9 -3 -4 -4 -3 -14 3
-22 16 -18 -20 -18 -46 1 -11 7 -29 15 -40 18 -15 2 -1 14 55 45 80 46 90 49
90 32z m170 -109 c0 -73 -4 -120 -10 -120 -6 0 -10 44 -10 113 0 100 4 127 17
127 2 0 3 -54 3 -120z m-140 -27 c0 -42 -4 -73 -10 -73 -5 0 -10 -9 -10 -20 0
-11 5 -20 10 -20 6 0 10 -9 10 -20 0 -11 -4 -20 -9 -20 -5 0 -12 -10 -17 -22
-5 -15 -9 19 -11 97 -3 100 -1 122 12 131 14 10 12 14 -12 34 l-28 21 33 -17
c32 -18 32 -19 32 -91z m-132 21 c20 -13 22 -23 20 -87 l-1 -72 -7 60 c-6 51
-7 44 -8 -52 -1 -62 -6 -115 -12 -118 -6 -4 -10 37 -10 114 0 101 2 121 15
121 24 0 17 18 -12 34 -16 8 -23 15 -18 16 6 0 21 -7 33 -16z m289 -71 c-3
-10 -5 -4 -5 12 0 17 2 24 5 18 2 -7 2 -21 0 -30z m-402 15 c26 -11 26 -12 24
-127 -2 -106 -11 -151 -31 -151 -5 0 -8 52 -8 115 0 94 3 117 15 121 22 9 18
22 -12 38 -33 18 -25 21 12 4z m-60 -28 c3 -5 2 -10 -4 -10 -5 0 -13 5 -16 10
-3 6 -2 10 4 10 5 0 13 -4 16 -10z m-44 -41 c27 -19 29 -25 29 -85 0 -36 -4
-64 -10 -64 -5 0 -10 -9 -10 -20 0 -11 5 -20 10 -20 16 0 12 -38 -7 -60 -10
-11 -21 -20 -25 -20 -5 0 -8 49 -8 109 0 88 3 113 16 126 9 9 15 17 13 19 -2
1 -15 10 -29 19 -13 9 -21 17 -16 17 4 0 21 -9 37 -21z m236 -106 c-3 -10 -5
-2 -5 17 0 19 2 27 5 18 2 -10 2 -26 0 -35z m-378 -111 c-2 -110 -9 -142 -30
-142 -10 0 -12 199 -3 224 3 9 10 13 15 10 22 -13 6 16 -18 36 l-28 21 33 -16
33 -16 -2 -117z m-61 -48 c-1 -67 -7 -112 -15 -122 -10 -14 -12 4 -13 104 0
66 3 124 6 127 18 17 24 -13 22 -109z m-38 25 c0 -39 -4 -69 -10 -69 -5 0 -10
-9 -10 -20 0 -11 5 -20 10 -20 6 0 10 -12 10 -26 0 -14 -4 -23 -10 -19 -5 3
-10 -1 -10 -9 0 -9 -6 -16 -13 -16 -11 0 -14 25 -16 111 -1 104 0 111 19 116
13 4 19 11 16 20 -3 8 -1 11 4 8 6 -3 10 -37 10 -76z m-62 -66 c-2 -108 -11
-153 -30 -153 -5 0 -8 52 -8 115 0 95 3 117 16 122 8 3 13 12 10 19 -3 8 -1
14 5 14 6 0 9 -45 7 -117z m-68 87 c14 -10 23 -21 20 -23 -3 -3 -18 6 -35 19
-35 28 -22 32 15 4z m-59 -31 c19 -16 20 -18 4 -10 -34 17 -51 31 -39 31 7 0
22 -9 35 -21z m59 -113 c0 -66 -4 -117 -10 -121 -6 -4 -10 37 -10 114 0 74 4
121 10 121 6 0 10 -45 10 -114z m-92 11 c2 -37 -2 -76 -8 -87 -8 -14 -7 -25 2
-39 10 -16 9 -25 -2 -45 -7 -14 -17 -26 -22 -26 -4 0 -8 52 -8 115 0 98 2 115
18 124 15 9 15 12 2 22 -13 9 -13 10 0 6 11 -3 16 -21 18 -70z m49 -35 c-3
-106 -9 -132 -28 -132 -10 0 -13 223 -2 233 3 4 12 7 20 7 11 0 13 -22 10
-108z m-113 72 c18 -18 23 -154 6 -154 -5 0 -10 -9 -10 -21 0 -11 5 -17 10
-14 6 3 10 -1 10 -9 0 -18 -8 -20 -28 -7 -18 11 -13 177 6 174 20 -5 14 15
-10 31 -12 9 -17 16 -11 16 6 0 19 -7 27 -16z m-46 -106 c3 -73 2 -76 -18 -71
-19 5 -21 12 -18 62 2 38 7 55 16 54 6 -2 12 1 12 5 0 4 -6 14 -12 21 -11 11
-10 13 2 9 11 -3 16 -24 18 -80z m-58 42 c8 -5 12 -11 10 -14 -3 -2 -14 2 -24
10 -22 15 -10 19 14 4z m-61 -24 c6 -4 10 -15 10 -24 -1 -15 -2 -14 -6 1 -3
11 -10 16 -20 13 -8 -3 -24 1 -36 9 -21 15 -21 15 9 12 17 -2 36 -7 43 -11z"/>
<path d="M5383 3925 c0 -27 2 -38 4 -22 2 15 2 37 0 50 -2 12 -4 0 -4 -28z"/>
<path d="M5127 3899 c7 -7 15 -10 18 -7 3 3 -2 9 -12 12 -14 6 -15 5 -6 -5z"/>
<path d="M4523 3430 c0 -30 2 -43 4 -27 2 15 2 39 0 55 -2 15 -4 2 -4 -28z"/>
<path d="M1096 4418 c-55 -87 -67 -253 -28 -370 13 -36 29 -72 37 -78 28 -23
33 0 13 62 -36 110 -28 272 18 393 10 24 -24 18 -40 -7z"/>
<path d="M1380 4427 c0 -8 7 -34 16 -58 33 -93 28 -249 -12 -386 -5 -17 -2
-23 10 -23 39 0 81 158 73 274 -5 92 -42 199 -70 204 -10 2 -17 -3 -17 -11z"/>
<path d="M1199 4401 c-37 -37 -40 -81 -6 -81 16 0 28 9 35 25 13 29 56 35 66
9 11 -30 6 -51 -24 -90 -60 -78 -99 -140 -106 -166 l-6 -28 96 0 96 0 0 30 c0
29 -1 30 -50 30 -27 0 -50 4 -50 9 0 5 16 28 36 52 48 57 64 91 64 134 0 97
-87 140 -151 76z"/>
<path d="M7580 4406 c0 -3 14 -12 30 -21 17 -9 30 -13 30 -11 0 3 -13 12 -30
21 -16 9 -30 13 -30 11z"/>
<path d="M7670 4356 c0 -3 14 -12 30 -21 17 -9 30 -13 30 -11 0 3 -13 12 -30
21 -16 9 -30 13 -30 11z"/>
<path d="M7744 4312 c4 -7 26 -22 49 -33 49 -25 39 -12 -17 21 -22 13 -36 18
-32 12z"/>
<path d="M7840 4256 c0 -3 14 -12 30 -21 17 -9 30 -13 30 -11 0 3 -13 12 -30
21 -16 9 -30 13 -30 11z"/>
<path d="M7945 4195 c11 -9 29 -21 40 -26 l20 -10 -20 16 c-11 9 -29 21 -40
26 l-20 10 20 -16z"/>
<path d="M8050 4136 c0 -3 9 -10 20 -16 11 -6 20 -8 20 -6 0 3 -9 10 -20 16
-11 6 -20 8 -20 6z"/>
<path d="M5343 4090 c-29 -17 -53 -33 -53 -36 0 -5 88 43 105 58 17 15 0 8
-52 -22z"/>
<path d="M8125 4093 c6 -6 28 -20 50 -32 22 -13 31 -15 20 -6 -22 18 -86 53
-70 38z"/>
<path d="M5248 4034 c-38 -20 -36 -28 2 -9 17 9 30 18 30 20 0 7 -1 6 -32 -11z"/>
<path d="M8220 4036 c0 -3 14 -12 30 -21 17 -9 30 -13 30 -11 0 3 -13 12 -30
21 -16 9 -30 13 -30 11z"/>
<path d="M8310 3986 c0 -2 16 -13 36 -25 19 -12 32 -16 29 -11 -7 11 -65 43
-65 36z"/>
<path d="M8435 3957 c-22 -12 -44 -26 -50 -30 -5 -5 -43 -27 -83 -50 -140 -81
-458 -265 -582 -337 -69 -40 -170 -98 -225 -130 -55 -31 -145 -83 -200 -115
-55 -32 -145 -84 -200 -115 -121 -69 -251 -145 -405 -235 -63 -37 -149 -86
-190 -109 -41 -23 -136 -78 -210 -121 -74 -43 -177 -102 -227 -132 -51 -29
-135 -77 -185 -107 -51 -29 -136 -78 -188 -108 -52 -30 -153 -88 -225 -130
-179 -103 -359 -207 -560 -323 -93 -54 -213 -123 -265 -153 -102 -59 -243
-140 -380 -219 -95 -56 -252 -146 -540 -313 -107 -62 -238 -137 -290 -167 -52
-29 -187 -107 -300 -173 -113 -65 -244 -140 -292 -167 l-88 -48 0 -42 c0 -23
-5 -43 -12 -45 -6 -2 5 -14 25 -26 33 -19 37 -26 37 -62 0 -44 -1 -45 -33 -29
-22 10 -22 10 -2 -6 11 -9 28 -14 38 -11 10 2 17 -1 17 -10 0 -24 25 -16 127
43 54 31 141 81 193 110 52 30 139 80 193 111 53 32 188 109 300 174 111 64
243 140 292 168 50 29 149 86 220 128 72 41 172 99 223 128 159 93 483 280
707 409 94 54 229 132 300 173 72 42 173 100 225 130 52 30 138 79 190 110 52
30 131 75 175 100 44 24 96 54 115 67 19 12 98 58 175 102 259 148 712 410
1040 600 66 38 170 98 230 133 61 35 146 84 190 110 157 92 263 150 272 150 8
0 1231 -719 1321 -776 12 -8 22 -11 22 -6 0 4 -15 16 -32 27 -18 10 -318 187
-666 393 l-633 375 98 57 c134 79 220 128 341 196 56 31 102 63 102 71 0 18
-1 17 -58 -19 -28 -18 -97 -60 -154 -92 -56 -32 -157 -90 -222 -129 -101 -59
-123 -68 -144 -61 -37 13 -36 26 1 48 17 10 122 70 232 134 312 179 316 182
327 182 5 0 6 -9 3 -20 -4 -11 -2 -20 4 -20 6 0 11 13 11 29 0 16 6 31 13 34
9 3 9 9 0 28 -7 13 -14 44 -15 69 -2 37 -6 44 -20 42 -11 -2 -18 3 -18 13 0
21 -18 19 -65 -8z m53 -9 c-6 -18 -137 -90 -149 -82 -10 6 47 43 104 67 15 6
27 15 27 19 0 4 5 8 11 8 6 0 9 -6 7 -12z m42 -42 c0 -40 5 -36 -150 -126
-169 -98 -508 -292 -628 -361 -53 -31 -141 -81 -194 -112 -139 -81 -263 -153
-413 -239 -71 -41 -218 -126 -325 -188 -107 -62 -239 -138 -293 -169 -54 -31
-142 -81 -195 -113 -53 -31 -131 -75 -172 -99 -41 -23 -111 -63 -155 -89 -83
-49 -538 -312 -708 -409 -85 -49 -248 -143 -587 -339 -52 -30 -135 -78 -185
-107 -96 -55 -299 -173 -455 -263 -158 -91 -290 -167 -390 -225 -52 -30 -140
-80 -195 -112 -55 -32 -140 -81 -190 -110 -49 -28 -151 -87 -225 -130 -161
-94 -252 -144 -262 -145 -16 0 -8 57 10 72 9 9 67 44 127 78 61 35 153 88 205
118 190 110 277 160 370 214 52 30 156 90 230 133 74 43 176 101 225 130 169
97 605 349 782 452 51 29 135 77 185 106 51 30 154 89 228 132 74 43 178 103
230 133 52 30 138 79 190 110 52 30 138 79 190 109 109 63 252 145 392 227 54
31 140 80 190 109 51 30 154 89 228 132 74 43 177 102 228 132 50 29 135 78
187 108 52 30 137 79 188 108 50 30 184 107 297 172 113 65 306 177 430 248
288 166 393 228 505 293 50 29 93 53 98 53 4 1 7 -14 7 -33z m-230 -71 c-7 -8
-53 -38 -104 -66 -85 -47 -149 -84 -388 -223 -54 -31 -140 -80 -190 -109 -51
-30 -154 -89 -228 -132 -74 -43 -177 -102 -228 -132 -50 -29 -136 -78 -190
-109 -53 -31 -141 -82 -195 -113 -53 -31 -186 -107 -295 -170 -108 -63 -237
-137 -287 -166 -49 -28 -151 -87 -225 -130 -74 -43 -164 -95 -200 -115 -36
-21 -71 -35 -78 -32 -14 5 -4 12 78 53 25 12 52 28 60 34 8 7 47 29 85 50 39
20 88 49 110 64 22 15 60 37 85 50 25 12 59 31 75 42 17 10 39 23 50 29 11 6
34 19 50 30 17 10 53 30 82 44 28 15 54 30 57 35 3 5 27 20 53 34 27 13 64 34
83 46 19 11 44 25 55 31 11 6 34 19 50 30 17 10 53 31 80 45 56 30 72 39 133
78 24 15 53 32 65 37 12 6 31 16 42 22 54 35 104 65 145 86 25 12 59 32 75 42
17 11 39 24 50 30 11 6 47 26 80 46 33 19 72 40 88 47 15 6 27 15 27 19 0 4
24 19 53 33 28 14 61 31 72 38 79 49 105 64 145 85 52 27 68 37 128 75 24 15
53 32 65 38 12 5 31 15 42 22 11 7 47 27 80 46 33 19 62 37 65 40 3 3 27 17
53 31 89 46 102 53 115 67 7 7 20 13 29 13 13 0 13 -3 3 -15z m245 -3 c0 -6
-43 -36 -95 -65 -52 -30 -140 -80 -195 -112 -55 -32 -147 -85 -204 -117 -58
-32 -111 -64 -117 -69 -15 -12 -57 -2 -49 11 3 5 45 31 93 58 164 92 496 284
517 298 23 17 50 15 50 -4z m-672 -397 c-17 -11 -110 -64 -338 -195 -60 -35
-141 -82 -180 -105 -38 -23 -104 -61 -145 -84 -73 -41 -172 -98 -375 -216 -55
-32 -145 -84 -200 -115 -109 -63 -223 -128 -415 -240 -69 -40 -170 -98 -225
-130 -55 -31 -144 -83 -197 -114 -54 -31 -142 -81 -195 -112 -54 -31 -143 -82
-198 -114 -55 -31 -156 -90 -225 -130 -69 -40 -181 -106 -250 -145 -69 -40
-201 -116 -295 -170 -93 -54 -212 -122 -262 -152 -51 -29 -135 -77 -185 -107
-208 -120 -485 -279 -688 -395 -118 -68 -231 -133 -250 -146 -37 -23 -115 -68
-298 -171 -104 -59 -132 -68 -132 -44 0 5 37 30 83 55 45 25 127 72 182 105
55 32 143 83 195 113 117 66 245 140 415 239 72 41 222 129 335 194 113 65
244 141 292 168 200 116 489 283 573 331 50 28 151 87 225 130 133 78 212 123
423 244 59 34 112 59 117 56 6 -4 10 1 10 9 0 9 8 16 19 16 11 0 21 4 23 9 3
10 37 30 308 186 107 61 240 138 295 170 250 145 448 259 637 369 130 74 335
193 453 261 428 249 458 265 472 253 11 -9 10 -13 -4 -23z m62 -7 c14 -6 25
-14 25 -17 0 -9 39 14 -595 -352 -55 -32 -143 -81 -195 -110 -52 -28 -102 -58
-110 -64 -8 -7 -51 -33 -95 -57 -44 -25 -168 -96 -275 -158 -361 -209 -455
-263 -555 -321 -55 -31 -138 -80 -185 -107 -47 -27 -132 -76 -190 -109 -111
-64 -306 -176 -455 -263 -49 -28 -134 -77 -188 -109 -162 -93 -287 -165 -387
-223 -52 -30 -185 -107 -295 -170 -170 -98 -309 -178 -485 -280 -19 -12 -52
-30 -72 -40 -21 -11 -38 -25 -38 -31 0 -6 -2 -8 -5 -5 -3 3 -61 -26 -128 -65
-67 -38 -158 -90 -202 -115 -44 -25 -83 -50 -87 -56 -4 -6 -8 -7 -8 -2 0 5 -7
2 -17 -5 -16 -14 -107 -66 -291 -169 -50 -28 -92 -56 -92 -61 0 -5 -3 -8 -7
-7 -5 2 -42 -16 -84 -40 -42 -23 -79 -42 -83 -42 -3 0 -6 13 -6 29 0 32 20 47
155 123 44 25 123 70 175 100 52 30 196 113 320 185 124 71 314 181 422 244
109 63 242 139 295 170 54 31 141 81 193 111 152 88 342 197 525 303 94 54
229 132 300 173 72 42 172 99 223 129 50 29 136 78 190 109 53 31 142 83 197
114 55 31 144 83 197 114 54 31 140 80 190 109 51 30 154 89 228 132 74 43
178 103 230 133 52 30 138 79 190 110 52 30 140 81 195 112 55 31 145 83 200
115 55 32 141 82 190 110 50 29 151 87 225 130 140 81 234 135 237 135 1 0 14
-5 28 -12z m-2265 -1108 c0 -5 -21 -21 -47 -36 -52 -30 -181 -104 -325 -188
-51 -30 -196 -113 -323 -186 -222 -127 -304 -175 -560 -323 -66 -38 -149 -86
-185 -107 -36 -21 -108 -62 -160 -93 -52 -30 -257 -148 -455 -262 -422 -243
-464 -267 -569 -329 -84 -49 -133 -63 -76 -21 19 14 40 25 47 25 7 0 13 4 13
8 0 5 17 16 38 25 20 9 60 31 87 49 28 18 70 43 95 56 25 13 59 32 75 42 17
11 39 24 50 30 11 6 47 26 80 45 33 19 72 39 88 46 15 6 27 15 27 19 0 5 24
20 53 35 63 32 160 86 167 94 3 3 25 16 50 29 25 13 59 32 75 42 17 11 39 24
50 30 11 5 27 14 35 19 8 6 78 46 155 91 77 44 147 85 155 90 8 6 24 14 35 19
12 5 62 34 111 64 50 30 101 58 112 61 12 4 22 11 22 16 0 4 12 13 28 19 15 6
41 20 57 30 17 11 50 30 75 42 25 13 48 26 51 31 6 9 100 61 142 79 15 6 27
14 27 19 0 4 8 10 18 13 9 4 35 17 57 31 22 14 60 35 85 48 25 13 61 34 80 47
19 12 44 27 55 32 11 5 34 18 50 29 17 11 44 26 60 35 17 8 53 29 80 45 28 17
64 38 80 46 17 8 44 23 60 34 25 17 63 37 73 39 1 1 2 -3 2 -9z m-2752 -1595
c-2 -2 -31 -19 -65 -39 -48 -28 -62 -42 -65 -63 -4 -38 -23 -39 -21 -1 1 18 2
36 2 39 1 4 9 9 19 13 9 3 40 19 67 35 28 15 54 26 58 24 5 -3 7 -6 5 -8z
m-101 -247 c-3 -8 -6 -5 -6 6 -1 11 2 17 5 13 3 -3 4 -12 1 -19z"/>
<path d="M1530 3888 c0 -4 285 -286 633 -629 347 -342 633 -626 635 -630 1 -3
-49 -37 -113 -74 -63 -37 -115 -70 -115 -72 0 -5 27 10 157 86 61 36 78 41
113 37 23 -2 45 -8 48 -12 4 -4 -2 -4 -13 0 -19 7 -18 6 2 -13 27 -25 41 -28
22 -4 -12 14 -12 16 1 11 11 -3 16 -24 18 -82 2 -52 -1 -76 -8 -71 -6 4 -10
-4 -10 -20 0 -15 4 -24 10 -20 18 11 10 -36 -10 -57 l-20 -22 0 120 0 120 -38
22 c-27 15 -42 18 -52 11 -13 -9 -13 -11 -1 -16 8 -3 25 -16 38 -29 17 -17 23
-19 23 -8 0 8 5 12 10 9 15 -9 13 -142 -2 -148 -10 -3 -10 -9 0 -26 6 -11 12
-25 12 -31 0 -13 -32 -50 -43 -50 -5 0 -7 54 -5 120 1 66 -1 120 -5 120 -5 0
-21 9 -36 19 -28 20 -60 14 -46 -9 5 -9 9 -9 14 -1 5 8 12 7 24 -2 11 -8 14
-17 8 -26 -8 -13 -15 -12 -49 3 -55 25 -74 11 -28 -20 l36 -25 0 -119 c0 -78
-4 -120 -11 -120 -7 0 -9 40 -7 118 l3 119 -43 18 c-31 13 -46 15 -54 7 -8 -8
-4 -14 15 -23 28 -13 36 -29 14 -29 -7 0 -23 7 -35 16 -13 9 -31 14 -40 12
-20 -6 -29 2 -60 54 -16 26 -47 50 -105 83 -45 25 -134 76 -197 113 -333 195
-844 485 -863 489 -12 3 3 -8 33 -24 30 -16 116 -64 190 -108 74 -43 176 -102
225 -131 361 -208 540 -312 604 -348 40 -22 84 -54 96 -71 13 -16 74 -118 135
-225 62 -107 116 -199 122 -205 6 -5 -4 15 -21 46 -17 31 -31 58 -31 62 0 3
26 20 58 38 31 18 93 53 137 79 44 26 117 69 163 95 l82 48 0 123 c0 104 2
124 15 124 20 0 19 16 -2 30 -17 11 -17 11 0 6 10 -3 21 -6 23 -6 2 0 4 -34 4
-75 0 -43 -4 -75 -10 -75 -5 0 -10 -9 -10 -21 0 -11 5 -17 10 -14 6 4 10 -7
10 -25 0 -17 -4 -29 -9 -26 -5 3 -11 -3 -14 -14 -6 -24 -12 -27 202 98 l154
90 -2 121 c-2 104 0 122 14 127 9 4 14 13 11 21 -4 9 -1 13 6 11 16 -6 24
-148 8 -148 -5 0 -10 -9 -10 -20 0 -11 5 -20 10 -20 6 0 10 -11 10 -25 0 -14
-4 -25 -9 -25 -5 0 -12 -7 -15 -16 -6 -17 22 -2 238 123 l118 69 2 67 c1 60
-5 77 -27 77 -1 0 -1 -24 0 -52 2 -64 -5 -108 -18 -108 -5 0 -9 40 -9 90 0 82
-2 90 -22 101 -20 11 -21 10 -11 -3 15 -17 15 -173 1 -200 -22 -44 -29 -14
-26 102 l3 119 -35 19 c-35 19 -60 19 -60 0 0 -5 6 -8 12 -5 7 2 25 -2 41 -10
26 -13 27 -17 27 -88 0 -43 -4 -75 -10 -75 -5 0 -10 -9 -10 -21 0 -11 5 -17
10 -14 6 4 10 -7 10 -25 0 -18 -4 -29 -10 -25 -5 3 -10 -1 -10 -9 0 -9 -5 -16
-10 -16 -7 0 -10 42 -8 118 2 87 6 116 16 114 6 -1 12 5 12 13 0 18 -17 20
-22 3 -3 -9 -15 -8 -46 6 -56 25 -65 13 -18 -25 l37 -31 -5 -112 c-5 -129 -3
-116 -16 -116 -6 0 -10 46 -10 118 l0 119 -39 18 c-44 19 -74 12 -44 -11 25
-19 41 -18 17 1 -17 14 -15 14 14 0 17 -8 32 -21 32 -28 0 -8 -4 -7 -10 3 -9
13 -11 13 -20 0 -8 -13 -13 -13 -39 3 -56 33 -84 15 -33 -22 24 -18 25 -20 7
-21 -11 0 -30 7 -42 15 -12 8 -29 12 -39 8 -16 -6 -16 -7 1 -19 9 -7 23 -10
29 -8 7 3 13 -2 13 -11 0 -19 -20 -19 -58 0 -16 9 -34 13 -39 10 -16 -10 -1
-25 17 -18 10 4 14 2 9 -5 -3 -6 -2 -13 4 -17 6 -4 8 -11 4 -16 -3 -6 -20 0
-41 12 -27 17 -37 19 -46 9 -9 -10 -9 -14 2 -18 7 -2 22 -13 32 -23 25 -25 37
-24 14 1 -19 21 -7 28 13 8 15 -15 17 -158 2 -158 -5 0 -10 -9 -10 -21 0 -11
5 -17 10 -14 17 10 11 -34 -7 -55 -10 -11 -20 -20 -23 -20 -3 0 -4 53 -3 117
l3 118 -36 23 c-35 22 -64 23 -64 3 0 -5 7 -12 16 -15 9 -4 13 -2 8 5 -4 7 -1
10 6 7 14 -4 25 -48 12 -48 -4 1 -18 7 -32 15 -30 17 -60 19 -60 4 0 -6 6 -9
13 -6 8 3 20 1 28 -5 11 -8 9 -8 -6 -4 -20 6 -20 6 -1 -9 30 -23 9 -31 -29
-11 -19 11 -41 16 -51 12 -15 -6 -12 -10 17 -28 40 -25 24 -36 -20 -14 -35 19
-61 21 -61 5 0 -6 6 -9 13 -6 8 3 20 1 28 -5 11 -8 9 -8 -6 -4 -20 6 -20 6 -1
-9 31 -24 10 -30 -34 -10 -40 18 -58 16 -46 -4 4 -6 14 -7 24 -4 9 3 14 3 10
-2 -4 -4 -3 -14 3 -22 17 -19 -16 -17 -52 4 -22 13 -32 14 -40 6 -9 -9 -6 -15
14 -24 27 -12 36 -29 17 -29 -6 0 -24 7 -41 15 -16 9 -34 13 -39 10 -16 -10
-1 -25 17 -18 12 5 14 3 8 -7 -5 -9 -4 -11 4 -6 27 17 41 -15 41 -91 0 -47 -4
-72 -10 -68 -6 4 -10 -11 -9 -37 1 -36 2 -39 9 -18 8 24 8 25 9 2 1 -13 -8
-32 -19 -44 l-20 -22 0 123 c0 105 2 122 15 117 9 -3 15 0 15 9 0 21 -17 27
-24 9 -5 -14 -10 -13 -41 6 -45 28 -80 20 -43 -9 13 -11 33 -19 44 -18 17 2
19 -6 22 -70 2 -46 -1 -73 -8 -73 -5 0 -10 -19 -9 -42 1 -37 2 -39 9 -18 8 24
8 25 9 2 1 -13 -7 -32 -18 -43 -19 -20 -19 -20 -22 13 -7 57 2 208 12 208 5 0
10 -26 11 -57 l2 -58 3 54 c5 67 -1 88 -22 71 -12 -10 -22 -8 -50 10 -29 18
-39 20 -48 10 -9 -9 -9 -14 -1 -17 6 -2 20 -10 30 -18 31 -22 9 -28 -33 -7
-21 11 -44 17 -50 15 -7 -3 -295 274 -641 614 -624 614 -672 661 -672 651z
m2175 -828 c17 -11 26 -20 20 -20 -5 0 -23 9 -40 20 -16 11 -25 20 -20 20 6 0
24 -9 40 -20z m-87 -153 l-2 -72 -3 73 c-4 66 -6 74 -28 84 -14 6 -25 15 -25
20 0 5 14 0 30 -12 29 -21 30 -24 28 -93z m43 31 c2 -170 2 -175 -16 -182 -13
-5 -15 12 -15 114 0 100 3 120 15 120 11 0 15 -13 16 -52z m-61 -92 c0 -66 -4
-117 -10 -121 -6 -4 -10 37 -10 114 0 74 4 121 10 121 6 0 10 -45 10 -114z
m-106 88 c13 -5 16 -22 16 -85 0 -46 -4 -79 -10 -79 -5 0 -10 -9 -10 -21 0
-11 5 -17 10 -14 18 11 10 -36 -10 -57 l-20 -22 0 122 c0 102 2 122 15 122 20
0 19 17 -2 29 -20 12 -13 14 11 5z m-98 -185 c1 -63 -3 -122 -8 -131 -20 -40
-28 -14 -28 97 0 98 2 115 18 124 15 9 15 12 2 22 -13 9 -13 10 0 6 12 -3 15
-26 16 -118z m-50 5 c1 -78 1 -78 -6 -19 l-7 60 -1 -78 c-1 -50 2 -76 8 -72 6
4 10 -5 10 -19 0 -14 -4 -26 -10 -26 -5 0 -10 -7 -10 -15 0 -8 -5 -15 -10 -15
-7 0 -10 42 -8 118 2 87 6 116 16 115 6 -2 12 1 12 5 0 4 -6 14 -12 21 -11 11
-10 13 2 9 12 -4 15 -23 16 -84z m-75 59 c28 -17 29 -20 29 -90 0 -42 -4 -73
-10 -73 -5 0 -10 -9 -10 -20 0 -11 5 -20 10 -20 6 0 10 -7 10 -15 0 -16 -30
-55 -42 -55 -5 0 -8 49 -8 109 0 100 2 110 22 123 21 14 21 14 -13 36 -40 26
-30 30 12 5z m346 -50 c-3 -10 -5 -4 -5 12 0 17 2 24 5 18 2 -7 2 -21 0 -30z
m-379 -63 c2 -42 -2 -78 -8 -84 -13 -13 -13 -39 0 -31 19 12 10 -52 -10 -70
l-21 -19 3 125 c2 93 6 123 16 122 6 -2 12 1 12 5 0 4 -6 14 -12 21 -11 11
-10 13 2 9 11 -3 16 -23 18 -78z m-122 16 c18 -13 19 -21 13 -103 -4 -48 -4
-89 1 -91 17 -6 -11 -72 -31 -72 -10 0 -12 199 -3 224 3 9 10 13 15 10 20 -12
7 16 -13 30 -12 9 -18 16 -12 16 5 0 19 -6 30 -14z m-121 -56 c3 -6 -1 -7 -9
-4 -18 7 -21 14 -7 14 6 0 13 -4 16 -10z m-49 -36 c24 -16 24 -20 23 -128 -1
-61 -6 -119 -11 -128 -20 -41 -28 -13 -28 97 0 98 2 115 17 124 10 5 16 11 13
14 -3 2 -16 11 -30 20 -13 9 -21 17 -17 17 4 0 19 -7 33 -16z m-110 -59 c10
-8 15 -14 9 -14 -5 0 -19 6 -29 14 -11 8 -15 15 -10 15 6 0 19 -7 30 -15z
m-26 -118 c0 -45 -5 -78 -12 -86 -10 -11 -10 -14 0 -18 25 -9 5 -83 -23 -83
-3 0 -4 53 -3 118 2 93 6 116 17 114 8 -2 11 3 8 13 -4 8 -2 15 3 15 6 0 10
-33 10 -73z m-74 47 c18 -14 18 -14 -6 -3 -31 14 -36 19 -24 19 6 0 19 -7 30
-16z m-35 -109 c-3 -92 -11 -97 -11 -8 0 66 -2 73 -27 93 l-28 22 34 -19 35
-18 -3 -70z m-52 -20 c-1 -33 -4 -51 -6 -40 -3 11 -11 24 -19 28 -16 9 -19 47
-5 47 5 0 12 -8 14 -17 3 -11 5 -8 6 9 1 19 -6 31 -21 39 -20 11 -22 11 -10
-3 10 -13 10 -18 1 -24 -7 -4 -18 1 -26 11 -15 22 -17 39 -3 30 6 -3 10 -2 10
4 0 6 13 2 30 -7 28 -16 30 -20 29 -77z m31 -21 c0 -54 -4 -83 -10 -79 -5 3
-10 42 -10 86 0 46 4 79 10 79 6 0 10 -35 10 -86z m22 -99 c-2 -14 -6 -25 -8
-25 -2 0 -4 11 -4 25 0 14 4 25 9 25 4 0 6 -11 3 -25z"/>
<path d="M3493 2835 c0 -33 2 -45 4 -27 2 18 2 45 0 60 -2 15 -4 0 -4 -33z"/>
<path d="M4788 3769 c-21 -11 -38 -22 -38 -24 0 -3 18 4 40 15 22 11 40 23 40
25 0 7 0 7 -42 -16z"/>
<path d="M3190 3721 c0 -5 7 -12 16 -15 14 -5 15 -4 4 9 -14 17 -20 19 -20 6z"/>
<path d="M4953 3680 c0 -30 2 -43 4 -27 2 15 2 39 0 55 -2 15 -4 2 -4 -28z"/>
<path d="M4843 3615 c0 -27 2 -38 4 -22 2 15 2 37 0 50 -2 12 -4 0 -4 -28z"/>
<path d="M3217 3584 c-8 -13 20 -41 30 -30 3 3 1 6 -5 6 -6 0 -12 8 -14 18 -2
11 -6 13 -11 6z"/>
<path d="M3395 3493 c6 -6 28 -20 50 -32 22 -13 31 -15 20 -6 -22 18 -86 53
-70 38z"/>
<path d="M3600 3376 c0 -3 9 -10 20 -16 11 -6 20 -8 20 -6 0 3 -9 10 -20 16
-11 6 -20 8 -20 6z"/>
<path d="M3817 3249 c7 -7 15 -10 18 -7 3 3 -2 9 -12 12 -14 6 -15 5 -6 -5z"/>
<path d="M3690 3141 c0 -4 -54 -39 -120 -76 -67 -38 -129 -75 -138 -83 -19
-15 25 8 162 86 91 52 131 82 108 82 -7 0 -12 -4 -12 -9z"/>
<path d="M3727 3089 c7 -7 15 -10 18 -7 3 3 -2 9 -12 12 -14 6 -15 5 -6 -5z"/>
<path d="M3935 2981 c3 -17 1 -39 -5 -51 l-11 -21 40 20 c46 24 57 37 37 44
-8 3 -17 -3 -22 -16 -6 -20 -7 -19 -11 10 -2 17 -11 34 -19 37 -13 5 -14 0 -9
-23z"/>
<path d="M3368 2949 c-21 -11 -38 -22 -38 -24 0 -3 18 4 40 15 22 11 40 23 40
25 0 7 0 7 -42 -16z"/>
<path d="M3281 2899 c-19 -11 -125 -73 -235 -136 -111 -63 -205 -119 -211
-125 -13 -14 -31 -24 240 132 207 118 259 150 245 150 -3 0 -20 -9 -39 -21z"/>
<path d="M1491 2618 c-52 -117 -99 -216 -105 -220 -6 -4 -8 -8 -4 -8 9 0 23
32 -323 -757 -267 -607 -322 -739 -289 -681 6 9 140 313 299 675 318 725 322
733 332 733 3 0 7 10 7 23 0 12 42 114 92 226 50 113 89 209 87 214 -1 5 -45
-87 -96 -205z"/>
<path d="M1352 2733 c2 -9 10 -18 18 -20 12 -4 13 -3 1 5 -7 5 -10 15 -7 21 4
6 2 11 -4 11 -6 0 -10 -8 -8 -17z"/>
<path d="M3173 2650 c0 -30 2 -43 4 -27 2 15 2 39 0 55 -2 15 -4 2 -4 -28z"/>
<path d="M1320 2636 c0 -3 18 -15 39 -26 22 -10 41 -24 44 -30 3 -6 4 -5 3 2
-2 13 -86 65 -86 54z"/>
<path d="M3063 2585 c0 -27 2 -38 4 -22 2 15 2 37 0 50 -2 12 -4 0 -4 -28z"/>
<path d="M9466 2588 c-55 -87 -67 -253 -28 -370 13 -36 29 -72 37 -78 28 -23
33 0 13 62 -36 110 -28 272 18 393 10 24 -24 18 -40 -7z"/>
<path d="M9750 2597 c0 -8 7 -34 16 -58 33 -93 28 -249 -12 -386 -5 -17 -2
-23 10 -23 39 0 81 158 73 274 -5 92 -42 199 -70 204 -10 2 -17 -3 -17 -11z"/>
<path d="M9622 2576 c-6 -14 -25 -35 -41 -47 -22 -16 -31 -31 -31 -51 0 -33 3
-34 41 -7 l29 20 0 -125 0 -126 30 0 30 0 0 180 0 180 -23 0 c-15 0 -28 -9
-35 -24z"/>
<path d="M2903 2495 c0 -27 2 -38 4 -22 2 15 2 37 0 50 -2 12 -4 0 -4 -28z"/>
<path d="M1320 2426 c0 -2 7 -7 16 -10 8 -3 12 -2 9 4 -6 10 -25 14 -25 6z"/>
<path d="M1610 2350 c112 -65 180 -101 180 -97 0 4 -73 47 -201 121 -25 14
-50 26 -55 26 -5 0 29 -23 76 -50z"/>
<path d="M1800 2247 c0 -2 37 -26 83 -52 100 -59 97 -57 97 -52 0 2 -37 26
-82 52 -101 59 -98 57 -98 52z"/>
<path d="M1990 2136 c0 -3 14 -12 30 -21 17 -9 30 -13 30 -11 0 3 -13 12 -30
21 -16 9 -30 13 -30 11z"/>
<path d="M2770 2077 c0 -4 13 -28 29 -54 16 -27 68 -115 115 -197 47 -83 86
-146 86 -140 0 5 -18 40 -40 78 -22 37 -40 70 -40 71 0 5 -137 236 -144 243
-3 3 -6 2 -6 -1z"/>
<path d="M1758 2019 c-21 -11 -38 -22 -38 -24 0 -3 18 4 40 15 22 11 40 23 40
25 0 7 0 7 -42 -16z"/>
<path d="M1820 2029 c-10 -7 -11 -12 -4 -15 24 -10 49 -33 42 -39 -3 -4 -20 1
-37 9 -35 19 -61 21 -61 5 0 -6 6 -9 13 -6 6 2 24 -2 40 -10 26 -13 27 -16 25
-91 l-2 -77 -3 78 c-4 70 -14 97 -26 65 -3 -10 -12 -9 -37 5 -58 32 -83 16
-32 -22 22 -17 24 -20 9 -21 -11 0 -32 8 -48 17 -21 13 -32 14 -40 6 -8 -8 -5
-14 12 -24 23 -12 23 -11 9 6 -14 17 -14 18 7 6 14 -7 20 -17 17 -26 -8 -19
-18 -19 -55 0 -16 9 -34 13 -39 10 -16 -10 -1 -25 18 -18 9 3 14 3 10 -2 -4
-4 -3 -14 3 -22 17 -19 -12 -17 -50 4 -23 14 -33 15 -42 6 -9 -9 -6 -15 14
-24 15 -7 27 -18 27 -26 0 -18 -7 -17 -47 8 -27 17 -37 19 -46 9 -9 -9 -9 -14
-1 -17 6 -2 20 -10 30 -18 32 -23 8 -28 -34 -6 -38 19 -52 19 -52 -2 0 -5 6
-7 13 -4 8 3 20 1 28 -5 11 -7 9 -8 -6 -3 -19 6 -18 5 2 -14 27 -25 41 -28 22
-4 -12 14 -12 16 1 11 18 -6 28 -148 10 -148 -5 0 -10 -12 -10 -26 0 -14 4
-23 10 -19 18 11 10 -36 -10 -57 l-20 -22 0 120 0 119 -38 22 c-27 15 -42 19
-53 11 -9 -6 -10 -11 -3 -14 6 -3 20 -11 30 -19 32 -23 7 -29 -31 -6 -36 21
-55 21 -55 -1 0 -5 6 -8 13 -5 8 3 20 1 28 -5 11 -8 9 -8 -6 -4 -20 6 -20 6
-1 -9 29 -22 9 -32 -25 -12 -33 18 -69 23 -69 8 0 -5 7 -12 16 -15 8 -3 12 -2
9 4 -3 6 1 7 9 4 9 -3 14 -9 12 -13 -2 -3 2 -15 10 -26 12 -16 14 -17 14 -2 0
9 -5 17 -12 17 -6 0 -8 3 -5 6 4 4 13 1 22 -6 17 -14 22 -135 5 -145 -5 -3
-10 -15 -10 -26 0 -10 5 -19 10 -19 16 0 12 -32 -7 -52 -24 -27 0 -22 59 14
29 17 95 55 146 84 50 30 136 79 190 110 53 31 142 83 197 114 55 31 122 70
148 85 44 25 46 28 30 40 -16 12 -18 11 -21 -6 -5 -28 -22 -24 -22 5 0 26 -16
43 -28 31 -4 -4 -1 -10 6 -12 17 -6 15 -29 -4 -58 -26 -40 -36 -29 -33 35 1
33 -2 65 -7 70 -7 7 -10 -13 -9 -57 0 -38 -3 -76 -8 -85 -18 -39 -27 -14 -29
80 -1 65 -3 78 -5 40 -2 -32 -8 -58 -13 -58 -6 0 -10 -9 -10 -21 0 -11 5 -17
10 -14 19 12 10 -36 -11 -58 l-20 -22 3 122 3 122 -35 18 c-19 9 -37 19 -40
20 -3 2 -12 -2 -20 -8z m46 -25 c24 -16 25 -19 23 -128 -2 -61 -6 -119 -11
-128 -20 -41 -28 -13 -28 97 0 98 2 115 17 124 10 5 16 11 13 14 -3 2 -16 11
-30 20 -13 9 -21 17 -17 17 4 0 19 -7 33 -16z m-105 -65 c27 -19 29 -25 29
-90 0 -39 -4 -69 -10 -69 -5 0 -10 -9 -10 -20 0 -11 5 -20 10 -20 15 0 12 -39
-4 -56 -31 -30 -36 -15 -36 96 0 89 3 112 15 116 16 6 21 34 7 34 -11 0 -49
29 -39 30 5 0 22 -9 38 -21z m59 -124 c0 -70 -4 -115 -10 -115 -6 0 -10 45
-10 115 0 70 4 115 10 115 6 0 10 -45 10 -115z m-90 12 c0 -43 -5 -78 -12 -85
-9 -9 -9 -15 0 -24 23 -23 8 -78 -20 -78 -5 0 -7 53 -6 118 2 93 6 116 17 114
8 -2 11 3 8 13 -4 8 -2 15 3 15 6 0 10 -33 10 -73z m-62 41 c15 -15 16 -148 2
-148 -5 0 -10 -12 -10 -26 0 -14 4 -23 10 -19 16 10 12 -35 -4 -51 -8 -8 -17
-14 -20 -14 -3 0 -6 52 -6 115 0 96 3 115 15 115 20 0 19 17 -2 29 -10 6 -13
11 -7 11 5 0 15 -5 22 -12z m-49 -146 c-1 -64 -6 -125 -11 -134 -20 -41 -28
-13 -28 97 0 98 2 115 18 125 15 9 14 12 -13 36 l-30 26 33 -17 33 -16 -2
-117z m-74 92 c23 -15 25 -23 25 -91 0 -47 -4 -72 -10 -68 -6 4 -10 -5 -10
-20 0 -15 4 -24 10 -20 18 11 10 -36 -10 -57 l-20 -22 0 117 c0 100 2 117 17
126 10 5 16 11 13 14 -3 2 -16 11 -30 20 -13 9 -21 17 -17 17 4 0 19 -7 32
-16z m292 -71 c-3 -10 -5 -4 -5 12 0 17 2 24 5 18 2 -7 2 -21 0 -30z m-399 11
c21 -15 22 -22 21 -127 -1 -62 -6 -120 -11 -129 -20 -41 -28 -13 -28 97 0 98
2 115 17 124 10 5 16 11 13 14 -3 2 -16 11 -30 20 -13 9 -20 17 -14 17 5 0 20
-7 32 -16z m-32 -120 c1 -78 1 -78 -6 -19 -6 52 -7 45 -8 -52 -1 -70 -6 -113
-12 -113 -7 0 -10 42 -8 118 2 87 6 116 16 115 6 -2 12 1 12 5 0 4 -6 14 -12
21 -11 11 -10 13 2 9 12 -4 15 -23 16 -84z m1 -151 c-3 -10 -5 -2 -5 17 0 19
2 27 5 18 2 -10 2 -26 0 -35z"/>
<path d="M1663 1780 c0 -30 2 -43 4 -27 2 15 2 39 0 55 -2 15 -4 2 -4 -28z"/>
<path d="M1553 1715 c0 -27 2 -38 4 -22 2 15 2 37 0 50 -2 12 -4 0 -4 -28z"/>
<path d="M1622 1941 c-81 -48 -121 -76 -72 -51 44 22 160 92 160 96 0 7 -3 5
-88 -45z"/>
<path d="M1787 1969 c7 -7 15 -10 18 -7 3 3 -2 9 -12 12 -14 6 -15 5 -6 -5z"/>
<path d="M1432 1831 c-70 -41 -122 -77 -87 -59 30 15 175 101 175 104 0 7 -4
5 -88 -45z"/>
<path d="M1289 1750 c-19 -10 -42 -26 -49 -35 -12 -15 -11 -19 8 -33 19 -15
21 -27 23 -112 1 -62 -2 -95 -10 -98 -6 -2 -9 -8 -6 -13 4 -5 -1 -6 -9 -3 -36
14 -12 -13 32 -36 26 -13 65 -35 87 -49 38 -24 112 -66 330 -191 55 -31 143
-82 195 -113 117 -69 190 -109 190 -103 0 2 -19 15 -42 29 -24 13 -88 50 -143
82 -55 32 -145 84 -200 115 -341 195 -345 198 -362 219 -9 10 -13 53 -13 130
l0 116 -40 23 c-22 13 -38 27 -35 33 4 5 24 18 46 29 21 11 39 23 39 25 0 7 0
7 -41 -15z m15 -106 c9 -24 7 -31 -9 -38 -11 -4 -15 2 -15 24 0 32 14 40 24
14z m6 -111 c0 -37 -24 -22 -28 17 -3 30 -2 32 12 21 9 -8 16 -25 16 -38z
m-13 -53 c-1 -11 -5 -20 -9 -20 -10 0 -10 4 -2 24 8 22 13 20 11 -4z m8 -39
c10 -17 -12 -21 -25 -6 -10 12 -10 15 3 15 9 0 18 -4 22 -9z"/>
<path d="M2998 1565 c-2 -59 0 -109 3 -111 4 -2 3 -22 -1 -45 -5 -28 -4 -37 3
-30 10 10 12 280 2 289 -2 2 -5 -44 -7 -103z"/>
<path d="M2927 1499 c7 -7 15 -10 18 -7 3 3 -2 9 -12 12 -14 6 -15 5 -6 -5z"/>
<path d="M1234 1351 c7 -11 46 -35 46 -28 0 3 -12 12 -26 22 -15 9 -23 12 -20
6z"/>
<path d="M1356 1331 c-9 -14 4 -41 20 -41 8 0 14 6 14 14 0 18 -26 40 -34 27z
m24 -22 c0 -6 -4 -7 -10 -4 -5 3 -10 11 -10 16 0 6 5 7 10 4 6 -3 10 -11 10
-16z"/>
<path d="M1415 1245 c11 -9 29 -21 40 -26 l20 -10 -20 16 c-11 9 -29 21 -40
26 l-20 10 20 -16z"/>
<path d="M1500 1196 c0 -3 14 -12 30 -21 17 -9 30 -13 30 -11 0 3 -13 12 -30
21 -16 9 -30 13 -30 11z"/>
<path d="M1605 1135 c11 -9 29 -21 40 -26 l20 -10 -20 16 c-11 9 -29 21 -40
26 l-20 10 20 -16z"/>
<path d="M1710 1076 c0 -3 9 -10 20 -16 11 -6 20 -8 20 -6 0 3 -9 10 -20 16
-11 6 -20 8 -20 6z"/>
<path d="M1795 1025 c30 -25 59 -39 51 -26 -4 6 -22 18 -39 27 -30 14 -31 14
-12 -1z"/>
<path d="M1900 966 c0 -3 9 -10 20 -16 11 -6 20 -8 20 -6 0 3 -9 10 -20 16
-11 6 -20 8 -20 6z"/>
<path d="M2090 956 c0 -3 14 -12 30 -21 17 -9 30 -13 30 -11 0 3 -13 12 -30
21 -16 9 -30 13 -30 11z"/>
<path d="M1990 917 c0 -3 12 -12 26 -22 15 -9 23 -12 20 -6 -7 11 -46 35 -46
28z"/>
<path d="M2184 902 c4 -7 26 -22 49 -33 49 -25 39 -12 -17 21 -22 13 -36 18
-32 12z"/>
<path d="M2090 856 c0 -3 9 -10 20 -16 11 -6 20 -8 20 -6 0 3 -9 10 -20 16
-11 6 -20 8 -20 6z"/>
<path d="M2280 845 c0 -2 18 -14 40 -25 22 -11 40 -18 40 -15 0 2 -18 14 -40
25 -22 11 -40 18 -40 15z"/>
<path d="M2180 806 c0 -3 9 -10 20 -16 11 -6 20 -8 20 -6 0 3 -9 10 -20 16
-11 6 -20 8 -20 6z"/>
<path d="M556 778 c-55 -87 -67 -253 -28 -370 13 -36 29 -72 37 -78 28 -23 33
0 13 62 -36 110 -28 272 18 393 10 24 -24 18 -40 -7z"/>
<path d="M840 787 c0 -8 7 -34 16 -58 33 -93 28 -249 -12 -386 -5 -17 -2 -23
10 -23 39 0 81 158 73 274 -5 92 -42 199 -70 204 -10 2 -17 -3 -17 -11z"/>
<path d="M2390 781 c14 -11 28 -21 33 -21 4 0 12 -12 18 -27 7 -20 12 -24 18
-14 7 10 17 8 50 -8 22 -12 41 -19 41 -16 0 2 -26 18 -57 35 -32 17 -74 40
-93 51 l-35 21 25 -21z"/>
<path d="M681 678 c-40 -73 -61 -123 -61 -145 l0 -33 60 0 60 0 0 -35 c0 -31
3 -35 25 -35 22 0 25 4 25 35 0 24 5 35 15 35 10 0 15 10 15 30 0 20 -5 30
-15 30 -12 0 -15 19 -15 115 0 115 0 115 -24 115 -21 0 -34 -17 -85 -112z m55
-104 c-3 -8 -19 -14 -37 -14 -17 0 -29 3 -27 8 2 4 17 32 33 62 l30 55 3 -49
c2 -27 1 -55 -2 -62z"/>
<path d="M2280 746 c0 -3 14 -12 30 -21 17 -9 30 -13 30 -11 0 3 -13 12 -30
21 -16 9 -30 13 -30 11z"/>
<path d="M2370 696 c0 -3 9 -10 20 -16 11 -6 20 -8 20 -6 0 3 -9 10 -20 16
-11 6 -20 8 -20 6z"/>
<path d="M2575 675 c11 -9 34 -23 50 -31 28 -14 29 -14 10 1 -11 9 -33 23 -50
31 -28 14 -29 14 -10 -1z"/>
<path d="M2420 666 c0 -3 9 -10 20 -16 11 -6 20 -8 20 -6 0 3 -9 10 -20 16
-11 6 -20 8 -20 6z"/>
<path d="M2470 636 c0 -3 9 -10 20 -16 11 -6 20 -8 20 -6 0 3 -9 10 -20 16
-11 6 -20 8 -20 6z"/>
<path d="M2660 626 c0 -3 14 -12 30 -21 17 -9 30 -13 30 -11 0 3 -13 12 -30
21 -16 9 -30 13 -30 11z"/>
<path d="M2560 586 c0 -3 14 -12 30 -21 17 -9 30 -13 30 -11 0 3 -13 12 -30
21 -16 9 -30 13 -30 11z"/>
<path d="M2647 584 c-3 -4 -1 -16 5 -27 9 -17 8 -19 -8 -13 -17 5 -17 5 1 -10
25 -20 75 -46 75 -40 0 3 -14 13 -31 22 -24 12 -29 18 -18 25 11 7 10 11 -6
24 -17 14 -18 16 -2 11 11 -3 16 -2 12 4 -7 11 -19 13 -28 4z"/>
</g>
</svg>
